<?xml version="1.0" encoding="utf-8" standalone="no"?>
<!DOCTYPE svg PUBLIC "-//W3C//DTD SVG 1.1//EN"
  "http://www.w3.org/Graphics/SVG/1.1/DTD/svg11.dtd">
<svg xmlns:xlink="http://www.w3.org/1999/xlink" width="494.832692pt" height="348.909375pt" viewBox="0 0 494.832692 348.909375" xmlns="http://www.w3.org/2000/svg" version="1.1">
 <metadata>
  <rdf:RDF xmlns:dc="http://purl.org/dc/elements/1.1/" xmlns:cc="http://creativecommons.org/ns#" xmlns:rdf="http://www.w3.org/1999/02/22-rdf-syntax-ns#">
   <cc:Work>
    <dc:type rdf:resource="http://purl.org/dc/dcmitype/StillImage"/>
    <dc:date>2026-06-22T20:03:33.567901</dc:date>
    <dc:format>image/svg+xml</dc:format>
    <dc:creator>
     <cc:Agent>
      <dc:title>Matplotlib v3.10.9, https://matplotlib.org/</dc:title>
     </cc:Agent>
    </dc:creator>
   </cc:Work>
  </rdf:RDF>
 </metadata>
 <defs>
  <style type="text/css">*{stroke-linejoin: round; stroke-linecap: butt}</style>
 </defs>
 <g id="figure_1">
  <g id="patch_1">
   <path d="M 0 348.909375 
L 494.832692 348.909375 
L 494.832692 0 
L 0 0 
z
" style="fill: #ffffff"/>
  </g>
  <g id="axes_1">
   <g id="patch_2">
    <path d="M 55.949375 301.48 
L 479.580886 301.48 
L 479.580886 7.2 
L 55.949375 7.2 
z
" style="fill: #ffffff"/>
   </g>
   <g id="matplotlib.axis_1">
    <g id="xtick_1">
     <g id="line2d_1">
      <defs>
       <path id="m7f5d1fb547" d="M 0 0 
L 0 3.5 
" style="stroke: #000000; stroke-width: 0.8"/>
      </defs>
      <g>
       <use xlink:href="#m7f5d1fb547" x="127.014712" y="301.48" style="stroke: #000000; stroke-width: 0.8"/>
      </g>
     </g>
     <g id="text_1">
      <!-- $\mathdefault{10^{0}}$ -->
      <g transform="translate(114.694712 319.117812) scale(0.14 -0.14)">
       <defs>
        <path id="DejaVuSans-31" d="M 794 531 
L 1825 531 
L 1825 4091 
L 703 3866 
L 703 4441 
L 1819 4666 
L 2450 4666 
L 2450 531 
L 3481 531 
L 3481 0 
L 794 0 
L 794 531 
z
" transform="scale(0.015625)"/>
        <path id="DejaVuSans-30" d="M 2034 4250 
Q 1547 4250 1301 3770 
Q 1056 3291 1056 2328 
Q 1056 1369 1301 889 
Q 1547 409 2034 409 
Q 2525 409 2770 889 
Q 3016 1369 3016 2328 
Q 3016 3291 2770 3770 
Q 2525 4250 2034 4250 
z
M 2034 4750 
Q 2819 4750 3233 4129 
Q 3647 3509 3647 2328 
Q 3647 1150 3233 529 
Q 2819 -91 2034 -91 
Q 1250 -91 836 529 
Q 422 1150 422 2328 
Q 422 3509 836 4129 
Q 1250 4750 2034 4750 
z
" transform="scale(0.015625)"/>
       </defs>
       <use xlink:href="#DejaVuSans-31" transform="translate(0 0.765625)"/>
       <use xlink:href="#DejaVuSans-30" transform="translate(63.623047 0.765625)"/>
       <use xlink:href="#DejaVuSans-30" transform="translate(128.203125 39.046875) scale(0.7)"/>
      </g>
     </g>
    </g>
    <g id="xtick_2">
     <g id="line2d_2">
      <g>
       <use xlink:href="#m7f5d1fb547" x="475.312692" y="301.48" style="stroke: #000000; stroke-width: 0.8"/>
      </g>
     </g>
     <g id="text_2">
      <!-- $\mathdefault{10^{1}}$ -->
      <g transform="translate(462.992692 319.117812) scale(0.14 -0.14)">
       <use xlink:href="#DejaVuSans-31" transform="translate(0 0.684375)"/>
       <use xlink:href="#DejaVuSans-30" transform="translate(63.623047 0.684375)"/>
       <use xlink:href="#DejaVuSans-31" transform="translate(128.203125 38.965625) scale(0.7)"/>
      </g>
     </g>
    </g>
    <g id="xtick_3">
     <g id="line2d_3">
      <defs>
       <path id="m05b75af4cb" d="M 0 0 
L 0 2 
" style="stroke: #000000; stroke-width: 0.6"/>
      </defs>
      <g>
       <use xlink:href="#m05b75af4cb" x="73.062672" y="301.48" style="stroke: #000000; stroke-width: 0.6"/>
      </g>
     </g>
    </g>
    <g id="xtick_4">
     <g id="line2d_4">
      <g>
       <use xlink:href="#m05b75af4cb" x="93.26115" y="301.48" style="stroke: #000000; stroke-width: 0.6"/>
      </g>
     </g>
    </g>
    <g id="xtick_5">
     <g id="line2d_5">
      <g>
       <use xlink:href="#m05b75af4cb" x="111.07747" y="301.48" style="stroke: #000000; stroke-width: 0.6"/>
      </g>
     </g>
    </g>
    <g id="xtick_6">
     <g id="line2d_6">
      <g>
       <use xlink:href="#m05b75af4cb" x="231.862851" y="301.48" style="stroke: #000000; stroke-width: 0.6"/>
      </g>
     </g>
    </g>
    <g id="xtick_7">
     <g id="line2d_7">
      <g>
       <use xlink:href="#m05b75af4cb" x="293.195081" y="301.48" style="stroke: #000000; stroke-width: 0.6"/>
      </g>
     </g>
    </g>
    <g id="xtick_8">
     <g id="line2d_8">
      <g>
       <use xlink:href="#m05b75af4cb" x="336.710991" y="301.48" style="stroke: #000000; stroke-width: 0.6"/>
      </g>
     </g>
    </g>
    <g id="xtick_9">
     <g id="line2d_9">
      <g>
       <use xlink:href="#m05b75af4cb" x="370.464552" y="301.48" style="stroke: #000000; stroke-width: 0.6"/>
      </g>
     </g>
    </g>
    <g id="xtick_10">
     <g id="line2d_10">
      <g>
       <use xlink:href="#m05b75af4cb" x="398.04322" y="301.48" style="stroke: #000000; stroke-width: 0.6"/>
      </g>
     </g>
    </g>
    <g id="xtick_11">
     <g id="line2d_11">
      <g>
       <use xlink:href="#m05b75af4cb" x="421.360652" y="301.48" style="stroke: #000000; stroke-width: 0.6"/>
      </g>
     </g>
    </g>
    <g id="xtick_12">
     <g id="line2d_12">
      <g>
       <use xlink:href="#m05b75af4cb" x="441.55913" y="301.48" style="stroke: #000000; stroke-width: 0.6"/>
      </g>
     </g>
    </g>
    <g id="xtick_13">
     <g id="line2d_13">
      <g>
       <use xlink:href="#m05b75af4cb" x="459.37545" y="301.48" style="stroke: #000000; stroke-width: 0.6"/>
      </g>
     </g>
    </g>
    <g id="text_3">
     <!-- Magnet height  $z$  [mm]  (log scale) -->
     <g transform="translate(109.765131 338.189375) scale(0.16 -0.16)">
      <defs>
       <path id="DejaVuSans-Bold-4d" d="M 588 4666 
L 2119 4666 
L 3181 2169 
L 4250 4666 
L 5778 4666 
L 5778 0 
L 4641 0 
L 4641 3413 
L 3566 897 
L 2803 897 
L 1728 3413 
L 1728 0 
L 588 0 
L 588 4666 
z
" transform="scale(0.015625)"/>
       <path id="DejaVuSans-Bold-61" d="M 2106 1575 
Q 1756 1575 1579 1456 
Q 1403 1338 1403 1106 
Q 1403 894 1545 773 
Q 1688 653 1941 653 
Q 2256 653 2472 879 
Q 2688 1106 2688 1447 
L 2688 1575 
L 2106 1575 
z
M 3816 1997 
L 3816 0 
L 2688 0 
L 2688 519 
Q 2463 200 2181 54 
Q 1900 -91 1497 -91 
Q 953 -91 614 226 
Q 275 544 275 1050 
Q 275 1666 698 1953 
Q 1122 2241 2028 2241 
L 2688 2241 
L 2688 2328 
Q 2688 2594 2478 2717 
Q 2269 2841 1825 2841 
Q 1466 2841 1156 2769 
Q 847 2697 581 2553 
L 581 3406 
Q 941 3494 1303 3539 
Q 1666 3584 2028 3584 
Q 2975 3584 3395 3211 
Q 3816 2838 3816 1997 
z
" transform="scale(0.015625)"/>
       <path id="DejaVuSans-Bold-67" d="M 2919 594 
Q 2688 288 2409 144 
Q 2131 0 1766 0 
Q 1125 0 706 504 
Q 288 1009 288 1791 
Q 288 2575 706 3076 
Q 1125 3578 1766 3578 
Q 2131 3578 2409 3434 
Q 2688 3291 2919 2981 
L 2919 3500 
L 4044 3500 
L 4044 353 
Q 4044 -491 3511 -936 
Q 2978 -1381 1966 -1381 
Q 1638 -1381 1331 -1331 
Q 1025 -1281 716 -1178 
L 716 -306 
Q 1009 -475 1290 -558 
Q 1572 -641 1856 -641 
Q 2406 -641 2662 -400 
Q 2919 -159 2919 353 
L 2919 594 
z
M 2181 2772 
Q 1834 2772 1640 2515 
Q 1447 2259 1447 1791 
Q 1447 1309 1634 1061 
Q 1822 813 2181 813 
Q 2531 813 2725 1069 
Q 2919 1325 2919 1791 
Q 2919 2259 2725 2515 
Q 2531 2772 2181 2772 
z
" transform="scale(0.015625)"/>
       <path id="DejaVuSans-Bold-6e" d="M 4056 2131 
L 4056 0 
L 2931 0 
L 2931 347 
L 2931 1631 
Q 2931 2084 2911 2256 
Q 2891 2428 2841 2509 
Q 2775 2619 2662 2680 
Q 2550 2741 2406 2741 
Q 2056 2741 1856 2470 
Q 1656 2200 1656 1722 
L 1656 0 
L 538 0 
L 538 3500 
L 1656 3500 
L 1656 2988 
Q 1909 3294 2193 3439 
Q 2478 3584 2822 3584 
Q 3428 3584 3742 3212 
Q 4056 2841 4056 2131 
z
" transform="scale(0.015625)"/>
       <path id="DejaVuSans-Bold-65" d="M 4031 1759 
L 4031 1441 
L 1416 1441 
Q 1456 1047 1700 850 
Q 1944 653 2381 653 
Q 2734 653 3104 758 
Q 3475 863 3866 1075 
L 3866 213 
Q 3469 63 3072 -14 
Q 2675 -91 2278 -91 
Q 1328 -91 801 392 
Q 275 875 275 1747 
Q 275 2603 792 3093 
Q 1309 3584 2216 3584 
Q 3041 3584 3536 3087 
Q 4031 2591 4031 1759 
z
M 2881 2131 
Q 2881 2450 2695 2645 
Q 2509 2841 2209 2841 
Q 1884 2841 1681 2658 
Q 1478 2475 1428 2131 
L 2881 2131 
z
" transform="scale(0.015625)"/>
       <path id="DejaVuSans-Bold-74" d="M 1759 4494 
L 1759 3500 
L 2913 3500 
L 2913 2700 
L 1759 2700 
L 1759 1216 
Q 1759 972 1856 886 
Q 1953 800 2241 800 
L 2816 800 
L 2816 0 
L 1856 0 
Q 1194 0 917 276 
Q 641 553 641 1216 
L 641 2700 
L 84 2700 
L 84 3500 
L 641 3500 
L 641 4494 
L 1759 4494 
z
" transform="scale(0.015625)"/>
       <path id="DejaVuSans-Bold-20" transform="scale(0.015625)"/>
       <path id="DejaVuSans-Bold-68" d="M 4056 2131 
L 4056 0 
L 2931 0 
L 2931 347 
L 2931 1625 
Q 2931 2084 2911 2256 
Q 2891 2428 2841 2509 
Q 2775 2619 2662 2680 
Q 2550 2741 2406 2741 
Q 2056 2741 1856 2470 
Q 1656 2200 1656 1722 
L 1656 0 
L 538 0 
L 538 4863 
L 1656 4863 
L 1656 2988 
Q 1909 3294 2193 3439 
Q 2478 3584 2822 3584 
Q 3428 3584 3742 3212 
Q 4056 2841 4056 2131 
z
" transform="scale(0.015625)"/>
       <path id="DejaVuSans-Bold-69" d="M 538 3500 
L 1656 3500 
L 1656 0 
L 538 0 
L 538 3500 
z
M 538 4863 
L 1656 4863 
L 1656 3950 
L 538 3950 
L 538 4863 
z
" transform="scale(0.015625)"/>
       <path id="DejaVuSans-Oblique-7a" d="M 744 3500 
L 3475 3500 
L 3372 2975 
L 738 459 
L 2913 459 
L 2822 0 
L -19 0 
L 84 525 
L 2719 3041 
L 653 3041 
L 744 3500 
z
" transform="scale(0.015625)"/>
       <path id="DejaVuSans-Bold-5b" d="M 550 4863 
L 2491 4863 
L 2491 4159 
L 1613 4159 
L 1613 -141 
L 2491 -141 
L 2491 -844 
L 550 -844 
L 550 4863 
z
" transform="scale(0.015625)"/>
       <path id="DejaVuSans-Bold-6d" d="M 3781 2919 
Q 3994 3244 4286 3414 
Q 4578 3584 4928 3584 
Q 5531 3584 5847 3212 
Q 6163 2841 6163 2131 
L 6163 0 
L 5038 0 
L 5038 1825 
Q 5041 1866 5042 1909 
Q 5044 1953 5044 2034 
Q 5044 2406 4934 2573 
Q 4825 2741 4581 2741 
Q 4263 2741 4089 2478 
Q 3916 2216 3909 1719 
L 3909 0 
L 2784 0 
L 2784 1825 
Q 2784 2406 2684 2573 
Q 2584 2741 2328 2741 
Q 2006 2741 1831 2477 
Q 1656 2213 1656 1722 
L 1656 0 
L 531 0 
L 531 3500 
L 1656 3500 
L 1656 2988 
Q 1863 3284 2130 3434 
Q 2397 3584 2719 3584 
Q 3081 3584 3359 3409 
Q 3638 3234 3781 2919 
z
" transform="scale(0.015625)"/>
       <path id="DejaVuSans-Bold-5d" d="M 2375 -844 
L 434 -844 
L 434 -141 
L 1313 -141 
L 1313 4159 
L 434 4159 
L 434 4863 
L 2375 4863 
L 2375 -844 
z
" transform="scale(0.015625)"/>
       <path id="DejaVuSans-Bold-28" d="M 2413 -844 
L 1484 -844 
Q 1006 -72 778 623 
Q 550 1319 550 2003 
Q 550 2688 779 3389 
Q 1009 4091 1484 4856 
L 2413 4856 
Q 2013 4116 1813 3408 
Q 1613 2700 1613 2009 
Q 1613 1319 1811 609 
Q 2009 -100 2413 -844 
z
" transform="scale(0.015625)"/>
       <path id="DejaVuSans-Bold-6c" d="M 538 4863 
L 1656 4863 
L 1656 0 
L 538 0 
L 538 4863 
z
" transform="scale(0.015625)"/>
       <path id="DejaVuSans-Bold-6f" d="M 2203 2784 
Q 1831 2784 1636 2517 
Q 1441 2250 1441 1747 
Q 1441 1244 1636 976 
Q 1831 709 2203 709 
Q 2569 709 2762 976 
Q 2956 1244 2956 1747 
Q 2956 2250 2762 2517 
Q 2569 2784 2203 2784 
z
M 2203 3584 
Q 3106 3584 3614 3096 
Q 4122 2609 4122 1747 
Q 4122 884 3614 396 
Q 3106 -91 2203 -91 
Q 1297 -91 786 396 
Q 275 884 275 1747 
Q 275 2609 786 3096 
Q 1297 3584 2203 3584 
z
" transform="scale(0.015625)"/>
       <path id="DejaVuSans-Bold-73" d="M 3272 3391 
L 3272 2541 
Q 2913 2691 2578 2766 
Q 2244 2841 1947 2841 
Q 1628 2841 1473 2761 
Q 1319 2681 1319 2516 
Q 1319 2381 1436 2309 
Q 1553 2238 1856 2203 
L 2053 2175 
Q 2913 2066 3209 1816 
Q 3506 1566 3506 1031 
Q 3506 472 3093 190 
Q 2681 -91 1863 -91 
Q 1516 -91 1145 -36 
Q 775 19 384 128 
L 384 978 
Q 719 816 1070 734 
Q 1422 653 1784 653 
Q 2113 653 2278 743 
Q 2444 834 2444 1013 
Q 2444 1163 2330 1236 
Q 2216 1309 1875 1350 
L 1678 1375 
Q 931 1469 631 1722 
Q 331 1975 331 2491 
Q 331 3047 712 3315 
Q 1094 3584 1881 3584 
Q 2191 3584 2531 3537 
Q 2872 3491 3272 3391 
z
" transform="scale(0.015625)"/>
       <path id="DejaVuSans-Bold-63" d="M 3366 3391 
L 3366 2478 
Q 3138 2634 2908 2709 
Q 2678 2784 2431 2784 
Q 1963 2784 1702 2511 
Q 1441 2238 1441 1747 
Q 1441 1256 1702 982 
Q 1963 709 2431 709 
Q 2694 709 2930 787 
Q 3166 866 3366 1019 
L 3366 103 
Q 3103 6 2833 -42 
Q 2563 -91 2291 -91 
Q 1344 -91 809 395 
Q 275 881 275 1747 
Q 275 2613 809 3098 
Q 1344 3584 2291 3584 
Q 2566 3584 2833 3536 
Q 3100 3488 3366 3391 
z
" transform="scale(0.015625)"/>
       <path id="DejaVuSans-Bold-29" d="M 513 -844 
Q 913 -100 1113 609 
Q 1313 1319 1313 2009 
Q 1313 2700 1113 3408 
Q 913 4116 513 4856 
L 1441 4856 
Q 1916 4091 2145 3389 
Q 2375 2688 2375 2003 
Q 2375 1319 2147 623 
Q 1919 -72 1441 -844 
L 513 -844 
z
" transform="scale(0.015625)"/>
      </defs>
      <use xlink:href="#DejaVuSans-Bold-4d" transform="translate(0 0.015625)"/>
      <use xlink:href="#DejaVuSans-Bold-61" transform="translate(99.511719 0.015625)"/>
      <use xlink:href="#DejaVuSans-Bold-67" transform="translate(166.992188 0.015625)"/>
      <use xlink:href="#DejaVuSans-Bold-6e" transform="translate(238.574219 0.015625)"/>
      <use xlink:href="#DejaVuSans-Bold-65" transform="translate(309.765625 0.015625)"/>
      <use xlink:href="#DejaVuSans-Bold-74" transform="translate(377.587891 0.015625)"/>
      <use xlink:href="#DejaVuSans-Bold-20" transform="translate(425.390625 0.015625)"/>
      <use xlink:href="#DejaVuSans-Bold-68" transform="translate(460.205078 0.015625)"/>
      <use xlink:href="#DejaVuSans-Bold-65" transform="translate(531.396484 0.015625)"/>
      <use xlink:href="#DejaVuSans-Bold-69" transform="translate(599.21875 0.015625)"/>
      <use xlink:href="#DejaVuSans-Bold-67" transform="translate(633.496094 0.015625)"/>
      <use xlink:href="#DejaVuSans-Bold-68" transform="translate(705.078125 0.015625)"/>
      <use xlink:href="#DejaVuSans-Bold-74" transform="translate(776.269531 0.015625)"/>
      <use xlink:href="#DejaVuSans-Bold-20" transform="translate(824.072266 0.015625)"/>
      <use xlink:href="#DejaVuSans-Bold-20" transform="translate(858.886719 0.015625)"/>
      <use xlink:href="#DejaVuSans-Oblique-7a" transform="translate(893.701172 0.015625)"/>
      <use xlink:href="#DejaVuSans-Bold-20" transform="translate(946.191406 0.015625)"/>
      <use xlink:href="#DejaVuSans-Bold-20" transform="translate(981.005859 0.015625)"/>
      <use xlink:href="#DejaVuSans-Bold-5b" transform="translate(1015.820312 0.015625)"/>
      <use xlink:href="#DejaVuSans-Bold-6d" transform="translate(1061.523438 0.015625)"/>
      <use xlink:href="#DejaVuSans-Bold-6d" transform="translate(1165.722656 0.015625)"/>
      <use xlink:href="#DejaVuSans-Bold-5d" transform="translate(1269.921875 0.015625)"/>
      <use xlink:href="#DejaVuSans-Bold-20" transform="translate(1315.625 0.015625)"/>
      <use xlink:href="#DejaVuSans-Bold-20" transform="translate(1350.439453 0.015625)"/>
      <use xlink:href="#DejaVuSans-Bold-28" transform="translate(1385.253906 0.015625)"/>
      <use xlink:href="#DejaVuSans-Bold-6c" transform="translate(1430.957031 0.015625)"/>
      <use xlink:href="#DejaVuSans-Bold-6f" transform="translate(1465.234375 0.015625)"/>
      <use xlink:href="#DejaVuSans-Bold-67" transform="translate(1533.935547 0.015625)"/>
      <use xlink:href="#DejaVuSans-Bold-20" transform="translate(1605.517578 0.015625)"/>
      <use xlink:href="#DejaVuSans-Bold-73" transform="translate(1640.332031 0.015625)"/>
      <use xlink:href="#DejaVuSans-Bold-63" transform="translate(1699.853516 0.015625)"/>
      <use xlink:href="#DejaVuSans-Bold-61" transform="translate(1759.130859 0.015625)"/>
      <use xlink:href="#DejaVuSans-Bold-6c" transform="translate(1826.611328 0.015625)"/>
      <use xlink:href="#DejaVuSans-Bold-65" transform="translate(1860.888672 0.015625)"/>
      <use xlink:href="#DejaVuSans-Bold-29" transform="translate(1928.710938 0.015625)"/>
     </g>
    </g>
   </g>
   <g id="matplotlib.axis_2">
    <g id="ytick_1">
     <g id="line2d_14">
      <defs>
       <path id="mb749deb69c" d="M 0 0 
L -3.5 0 
" style="stroke: #000000; stroke-width: 0.8"/>
      </defs>
      <g>
       <use xlink:href="#mb749deb69c" x="55.949375" y="296.056194" style="stroke: #000000; stroke-width: 0.8"/>
      </g>
     </g>
     <g id="text_4">
      <!-- 0.7 -->
      <g transform="translate(26.685 301.375101) scale(0.14 -0.14)">
       <defs>
        <path id="DejaVuSans-2e" d="M 684 794 
L 1344 794 
L 1344 0 
L 684 0 
L 684 794 
z
" transform="scale(0.015625)"/>
        <path id="DejaVuSans-37" d="M 525 4666 
L 3525 4666 
L 3525 4397 
L 1831 0 
L 1172 0 
L 2766 4134 
L 525 4134 
L 525 4666 
z
" transform="scale(0.015625)"/>
       </defs>
       <use xlink:href="#DejaVuSans-30"/>
       <use xlink:href="#DejaVuSans-2e" transform="translate(63.623047 0)"/>
       <use xlink:href="#DejaVuSans-37" transform="translate(95.410156 0)"/>
      </g>
     </g>
    </g>
    <g id="ytick_2">
     <g id="line2d_15">
      <g>
       <use xlink:href="#mb749deb69c" x="55.949375" y="252.350551" style="stroke: #000000; stroke-width: 0.8"/>
      </g>
     </g>
     <g id="text_5">
      <!-- 0.8 -->
      <g transform="translate(26.685 257.669457) scale(0.14 -0.14)">
       <defs>
        <path id="DejaVuSans-38" d="M 2034 2216 
Q 1584 2216 1326 1975 
Q 1069 1734 1069 1313 
Q 1069 891 1326 650 
Q 1584 409 2034 409 
Q 2484 409 2743 651 
Q 3003 894 3003 1313 
Q 3003 1734 2745 1975 
Q 2488 2216 2034 2216 
z
M 1403 2484 
Q 997 2584 770 2862 
Q 544 3141 544 3541 
Q 544 4100 942 4425 
Q 1341 4750 2034 4750 
Q 2731 4750 3128 4425 
Q 3525 4100 3525 3541 
Q 3525 3141 3298 2862 
Q 3072 2584 2669 2484 
Q 3125 2378 3379 2068 
Q 3634 1759 3634 1313 
Q 3634 634 3220 271 
Q 2806 -91 2034 -91 
Q 1263 -91 848 271 
Q 434 634 434 1313 
Q 434 1759 690 2068 
Q 947 2378 1403 2484 
z
M 1172 3481 
Q 1172 3119 1398 2916 
Q 1625 2713 2034 2713 
Q 2441 2713 2670 2916 
Q 2900 3119 2900 3481 
Q 2900 3844 2670 4047 
Q 2441 4250 2034 4250 
Q 1625 4250 1398 4047 
Q 1172 3844 1172 3481 
z
" transform="scale(0.015625)"/>
       </defs>
       <use xlink:href="#DejaVuSans-30"/>
       <use xlink:href="#DejaVuSans-2e" transform="translate(63.623047 0)"/>
       <use xlink:href="#DejaVuSans-38" transform="translate(95.410156 0)"/>
      </g>
     </g>
    </g>
    <g id="ytick_3">
     <g id="line2d_16">
      <g>
       <use xlink:href="#mb749deb69c" x="55.949375" y="208.644908" style="stroke: #000000; stroke-width: 0.8"/>
      </g>
     </g>
     <g id="text_6">
      <!-- 0.9 -->
      <g transform="translate(26.685 213.963814) scale(0.14 -0.14)">
       <defs>
        <path id="DejaVuSans-39" d="M 703 97 
L 703 672 
Q 941 559 1184 500 
Q 1428 441 1663 441 
Q 2288 441 2617 861 
Q 2947 1281 2994 2138 
Q 2813 1869 2534 1725 
Q 2256 1581 1919 1581 
Q 1219 1581 811 2004 
Q 403 2428 403 3163 
Q 403 3881 828 4315 
Q 1253 4750 1959 4750 
Q 2769 4750 3195 4129 
Q 3622 3509 3622 2328 
Q 3622 1225 3098 567 
Q 2575 -91 1691 -91 
Q 1453 -91 1209 -44 
Q 966 3 703 97 
z
M 1959 2075 
Q 2384 2075 2632 2365 
Q 2881 2656 2881 3163 
Q 2881 3666 2632 3958 
Q 2384 4250 1959 4250 
Q 1534 4250 1286 3958 
Q 1038 3666 1038 3163 
Q 1038 2656 1286 2365 
Q 1534 2075 1959 2075 
z
" transform="scale(0.015625)"/>
       </defs>
       <use xlink:href="#DejaVuSans-30"/>
       <use xlink:href="#DejaVuSans-2e" transform="translate(63.623047 0)"/>
       <use xlink:href="#DejaVuSans-39" transform="translate(95.410156 0)"/>
      </g>
     </g>
    </g>
    <g id="ytick_4">
     <g id="line2d_17">
      <g>
       <use xlink:href="#mb749deb69c" x="55.949375" y="164.939264" style="stroke: #000000; stroke-width: 0.8"/>
      </g>
     </g>
     <g id="text_7">
      <!-- 1.0 -->
      <g transform="translate(26.685 170.258171) scale(0.14 -0.14)">
       <use xlink:href="#DejaVuSans-31"/>
       <use xlink:href="#DejaVuSans-2e" transform="translate(63.623047 0)"/>
       <use xlink:href="#DejaVuSans-30" transform="translate(95.410156 0)"/>
      </g>
     </g>
    </g>
    <g id="ytick_5">
     <g id="line2d_18">
      <g>
       <use xlink:href="#mb749deb69c" x="55.949375" y="121.233621" style="stroke: #000000; stroke-width: 0.8"/>
      </g>
     </g>
     <g id="text_8">
      <!-- 1.1 -->
      <g transform="translate(26.685 126.552527) scale(0.14 -0.14)">
       <use xlink:href="#DejaVuSans-31"/>
       <use xlink:href="#DejaVuSans-2e" transform="translate(63.623047 0)"/>
       <use xlink:href="#DejaVuSans-31" transform="translate(95.410156 0)"/>
      </g>
     </g>
    </g>
    <g id="ytick_6">
     <g id="line2d_19">
      <g>
       <use xlink:href="#mb749deb69c" x="55.949375" y="77.527978" style="stroke: #000000; stroke-width: 0.8"/>
      </g>
     </g>
     <g id="text_9">
      <!-- 1.2 -->
      <g transform="translate(26.685 82.846884) scale(0.14 -0.14)">
       <defs>
        <path id="DejaVuSans-32" d="M 1228 531 
L 3431 531 
L 3431 0 
L 469 0 
L 469 531 
Q 828 903 1448 1529 
Q 2069 2156 2228 2338 
Q 2531 2678 2651 2914 
Q 2772 3150 2772 3378 
Q 2772 3750 2511 3984 
Q 2250 4219 1831 4219 
Q 1534 4219 1204 4116 
Q 875 4013 500 3803 
L 500 4441 
Q 881 4594 1212 4672 
Q 1544 4750 1819 4750 
Q 2544 4750 2975 4387 
Q 3406 4025 3406 3419 
Q 3406 3131 3298 2873 
Q 3191 2616 2906 2266 
Q 2828 2175 2409 1742 
Q 1991 1309 1228 531 
z
" transform="scale(0.015625)"/>
       </defs>
       <use xlink:href="#DejaVuSans-31"/>
       <use xlink:href="#DejaVuSans-2e" transform="translate(63.623047 0)"/>
       <use xlink:href="#DejaVuSans-32" transform="translate(95.410156 0)"/>
      </g>
     </g>
    </g>
    <g id="ytick_7">
     <g id="line2d_20">
      <g>
       <use xlink:href="#mb749deb69c" x="55.949375" y="33.822335" style="stroke: #000000; stroke-width: 0.8"/>
      </g>
     </g>
     <g id="text_10">
      <!-- 1.3 -->
      <g transform="translate(26.685 39.141241) scale(0.14 -0.14)">
       <defs>
        <path id="DejaVuSans-33" d="M 2597 2516 
Q 3050 2419 3304 2112 
Q 3559 1806 3559 1356 
Q 3559 666 3084 287 
Q 2609 -91 1734 -91 
Q 1441 -91 1130 -33 
Q 819 25 488 141 
L 488 750 
Q 750 597 1062 519 
Q 1375 441 1716 441 
Q 2309 441 2620 675 
Q 2931 909 2931 1356 
Q 2931 1769 2642 2001 
Q 2353 2234 1838 2234 
L 1294 2234 
L 1294 2753 
L 1863 2753 
Q 2328 2753 2575 2939 
Q 2822 3125 2822 3475 
Q 2822 3834 2567 4026 
Q 2313 4219 1838 4219 
Q 1578 4219 1281 4162 
Q 984 4106 628 3988 
L 628 4550 
Q 988 4650 1302 4700 
Q 1616 4750 1894 4750 
Q 2613 4750 3031 4423 
Q 3450 4097 3450 3541 
Q 3450 3153 3228 2886 
Q 3006 2619 2597 2516 
z
" transform="scale(0.015625)"/>
       </defs>
       <use xlink:href="#DejaVuSans-31"/>
       <use xlink:href="#DejaVuSans-2e" transform="translate(63.623047 0)"/>
       <use xlink:href="#DejaVuSans-33" transform="translate(95.410156 0)"/>
      </g>
     </g>
    </g>
    <g id="text_11">
     <!-- $F_\mathrm{meas}\ /\ F_\mathrm{set}$ -->
     <g transform="translate(19.3575 195.7) rotate(-90) scale(0.16 -0.16)">
      <defs>
       <path id="DejaVuSans-Oblique-46" d="M 1081 4666 
L 3756 4666 
L 3653 4134 
L 1606 4134 
L 1338 2759 
L 3188 2759 
L 3084 2228 
L 1234 2228 
L 800 0 
L 172 0 
L 1081 4666 
z
" transform="scale(0.015625)"/>
       <path id="DejaVuSans-6d" d="M 3328 2828 
Q 3544 3216 3844 3400 
Q 4144 3584 4550 3584 
Q 5097 3584 5394 3201 
Q 5691 2819 5691 2113 
L 5691 0 
L 5113 0 
L 5113 2094 
Q 5113 2597 4934 2840 
Q 4756 3084 4391 3084 
Q 3944 3084 3684 2787 
Q 3425 2491 3425 1978 
L 3425 0 
L 2847 0 
L 2847 2094 
Q 2847 2600 2669 2842 
Q 2491 3084 2119 3084 
Q 1678 3084 1418 2786 
Q 1159 2488 1159 1978 
L 1159 0 
L 581 0 
L 581 3500 
L 1159 3500 
L 1159 2956 
Q 1356 3278 1631 3431 
Q 1906 3584 2284 3584 
Q 2666 3584 2933 3390 
Q 3200 3197 3328 2828 
z
" transform="scale(0.015625)"/>
       <path id="DejaVuSans-65" d="M 3597 1894 
L 3597 1613 
L 953 1613 
Q 991 1019 1311 708 
Q 1631 397 2203 397 
Q 2534 397 2845 478 
Q 3156 559 3463 722 
L 3463 178 
Q 3153 47 2828 -22 
Q 2503 -91 2169 -91 
Q 1331 -91 842 396 
Q 353 884 353 1716 
Q 353 2575 817 3079 
Q 1281 3584 2069 3584 
Q 2775 3584 3186 3129 
Q 3597 2675 3597 1894 
z
M 3022 2063 
Q 3016 2534 2758 2815 
Q 2500 3097 2075 3097 
Q 1594 3097 1305 2825 
Q 1016 2553 972 2059 
L 3022 2063 
z
" transform="scale(0.015625)"/>
       <path id="DejaVuSans-61" d="M 2194 1759 
Q 1497 1759 1228 1600 
Q 959 1441 959 1056 
Q 959 750 1161 570 
Q 1363 391 1709 391 
Q 2188 391 2477 730 
Q 2766 1069 2766 1631 
L 2766 1759 
L 2194 1759 
z
M 3341 1997 
L 3341 0 
L 2766 0 
L 2766 531 
Q 2569 213 2275 61 
Q 1981 -91 1556 -91 
Q 1019 -91 701 211 
Q 384 513 384 1019 
Q 384 1609 779 1909 
Q 1175 2209 1959 2209 
L 2766 2209 
L 2766 2266 
Q 2766 2663 2505 2880 
Q 2244 3097 1772 3097 
Q 1472 3097 1187 3025 
Q 903 2953 641 2809 
L 641 3341 
Q 956 3463 1253 3523 
Q 1550 3584 1831 3584 
Q 2591 3584 2966 3190 
Q 3341 2797 3341 1997 
z
" transform="scale(0.015625)"/>
       <path id="DejaVuSans-73" d="M 2834 3397 
L 2834 2853 
Q 2591 2978 2328 3040 
Q 2066 3103 1784 3103 
Q 1356 3103 1142 2972 
Q 928 2841 928 2578 
Q 928 2378 1081 2264 
Q 1234 2150 1697 2047 
L 1894 2003 
Q 2506 1872 2764 1633 
Q 3022 1394 3022 966 
Q 3022 478 2636 193 
Q 2250 -91 1575 -91 
Q 1294 -91 989 -36 
Q 684 19 347 128 
L 347 722 
Q 666 556 975 473 
Q 1284 391 1588 391 
Q 1994 391 2212 530 
Q 2431 669 2431 922 
Q 2431 1156 2273 1281 
Q 2116 1406 1581 1522 
L 1381 1569 
Q 847 1681 609 1914 
Q 372 2147 372 2553 
Q 372 3047 722 3315 
Q 1072 3584 1716 3584 
Q 2034 3584 2315 3537 
Q 2597 3491 2834 3397 
z
" transform="scale(0.015625)"/>
       <path id="DejaVuSans-2f" d="M 1625 4666 
L 2156 4666 
L 531 -594 
L 0 -594 
L 1625 4666 
z
" transform="scale(0.015625)"/>
       <path id="DejaVuSans-74" d="M 1172 4494 
L 1172 3500 
L 2356 3500 
L 2356 3053 
L 1172 3053 
L 1172 1153 
Q 1172 725 1289 603 
Q 1406 481 1766 481 
L 2356 481 
L 2356 0 
L 1766 0 
Q 1100 0 847 248 
Q 594 497 594 1153 
L 594 3053 
L 172 3053 
L 172 3500 
L 594 3500 
L 594 4494 
L 1172 4494 
z
" transform="scale(0.015625)"/>
      </defs>
      <use xlink:href="#DejaVuSans-Oblique-46" transform="translate(0 0.09375)"/>
      <use xlink:href="#DejaVuSans-6d" transform="translate(57.519531 -16.3125) scale(0.7)"/>
      <use xlink:href="#DejaVuSans-65" transform="translate(125.708008 -16.3125) scale(0.7)"/>
      <use xlink:href="#DejaVuSans-61" transform="translate(168.774414 -16.3125) scale(0.7)"/>
      <use xlink:href="#DejaVuSans-73" transform="translate(211.669922 -16.3125) scale(0.7)"/>
      <use xlink:href="#DejaVuSans-2f" transform="translate(283.344402 0.09375)"/>
      <use xlink:href="#DejaVuSans-Oblique-46" transform="translate(349.506187 0.09375)"/>
      <use xlink:href="#DejaVuSans-73" transform="translate(407.025718 -16.3125) scale(0.7)"/>
      <use xlink:href="#DejaVuSans-65" transform="translate(443.495444 -16.3125) scale(0.7)"/>
      <use xlink:href="#DejaVuSans-74" transform="translate(486.561851 -16.3125) scale(0.7)"/>
     </g>
    </g>
   </g>
   <g id="line2d_21">
    <path d="M 55.949375 164.939264 
L 479.580886 164.939264 
" clip-path="url(#p43255eb81c)" style="fill: none; stroke: #000000; stroke-width: 1.2; stroke-linecap: square"/>
   </g>
   <g id="line2d_22">
    <path d="M 55.949375 121.233621 
L 479.580886 121.233621 
" clip-path="url(#p43255eb81c)" style="fill: none; stroke-dasharray: 4.44,1.92; stroke-dashoffset: 0; stroke: #000000; stroke-width: 1.2"/>
   </g>
   <g id="patch_3">
    <path d="M 55.949375 301.48 
L 55.949375 7.2 
" style="fill: none; stroke: #000000; stroke-width: 0.8; stroke-linejoin: miter; stroke-linecap: square"/>
   </g>
   <g id="patch_4">
    <path d="M 479.580886 301.48 
L 479.580886 7.2 
" style="fill: none; stroke: #000000; stroke-width: 0.8; stroke-linejoin: miter; stroke-linecap: square"/>
   </g>
   <g id="patch_5">
    <path d="M 55.949375 301.48 
L 479.580886 301.48 
" style="fill: none; stroke: #000000; stroke-width: 0.8; stroke-linejoin: miter; stroke-linecap: square"/>
   </g>
   <g id="patch_6">
    <path d="M 55.949375 7.2 
L 479.580886 7.2 
" style="fill: none; stroke: #000000; stroke-width: 0.8; stroke-linejoin: miter; stroke-linecap: square"/>
   </g>
   <g id="LineCollection_1">
    <path d="M 75.205353 211.842569 
L 75.205353 80.967491 
" clip-path="url(#p43255eb81c)" style="fill: none; stroke: #0000ff; stroke-width: 1.5"/>
    <path d="M 135.827729 195.636519 
L 135.827729 89.767369 
" clip-path="url(#p43255eb81c)" style="fill: none; stroke: #0000ff; stroke-width: 1.5"/>
    <path d="M 195.245367 176.825305 
L 195.245367 101.454249 
" clip-path="url(#p43255eb81c)" style="fill: none; stroke: #0000ff; stroke-width: 1.5"/>
    <path d="M 227.253609 173.286999 
L 227.253609 104.361868 
" clip-path="url(#p43255eb81c)" style="fill: none; stroke: #0000ff; stroke-width: 1.5"/>
    <path d="M 264.400201 181.102224 
L 264.400201 100.653888 
" clip-path="url(#p43255eb81c)" style="fill: none; stroke: #0000ff; stroke-width: 1.5"/>
    <path d="M 313.895295 148.645139 
L 313.895295 92.802729 
" clip-path="url(#p43255eb81c)" style="fill: none; stroke: #0000ff; stroke-width: 1.5"/>
    <path d="M 362.376874 137.099062 
L 362.376874 80.710438 
" clip-path="url(#p43255eb81c)" style="fill: none; stroke: #0000ff; stroke-width: 1.5"/>
    <path d="M 391.066153 123.768024 
L 391.066153 55.03957 
" clip-path="url(#p43255eb81c)" style="fill: none; stroke: #0000ff; stroke-width: 1.5"/>
    <path d="M 415.436587 121.804864 
L 415.436587 47.998259 
" clip-path="url(#p43255eb81c)" style="fill: none; stroke: #0000ff; stroke-width: 1.5"/>
    <path d="M 460.324908 145.233987 
L 460.324908 20.576364 
" clip-path="url(#p43255eb81c)" style="fill: none; stroke: #0000ff; stroke-width: 1.5"/>
   </g>
   <g id="line2d_23">
    <defs>
     <path id="m346d4202ce" d="M 4 0 
L -4 -0 
" style="stroke: #0000ff; stroke-width: 1.5"/>
    </defs>
    <g clip-path="url(#p43255eb81c)">
     <use xlink:href="#m346d4202ce" x="75.205353" y="211.842569" style="fill: #0000ff; stroke: #0000ff; stroke-width: 1.5"/>
     <use xlink:href="#m346d4202ce" x="135.827729" y="195.636519" style="fill: #0000ff; stroke: #0000ff; stroke-width: 1.5"/>
     <use xlink:href="#m346d4202ce" x="195.245367" y="176.825305" style="fill: #0000ff; stroke: #0000ff; stroke-width: 1.5"/>
     <use xlink:href="#m346d4202ce" x="227.253609" y="173.286999" style="fill: #0000ff; stroke: #0000ff; stroke-width: 1.5"/>
     <use xlink:href="#m346d4202ce" x="264.400201" y="181.102224" style="fill: #0000ff; stroke: #0000ff; stroke-width: 1.5"/>
     <use xlink:href="#m346d4202ce" x="313.895295" y="148.645139" style="fill: #0000ff; stroke: #0000ff; stroke-width: 1.5"/>
     <use xlink:href="#m346d4202ce" x="362.376874" y="137.099062" style="fill: #0000ff; stroke: #0000ff; stroke-width: 1.5"/>
     <use xlink:href="#m346d4202ce" x="391.066153" y="123.768024" style="fill: #0000ff; stroke: #0000ff; stroke-width: 1.5"/>
     <use xlink:href="#m346d4202ce" x="415.436587" y="121.804864" style="fill: #0000ff; stroke: #0000ff; stroke-width: 1.5"/>
     <use xlink:href="#m346d4202ce" x="460.324908" y="145.233987" style="fill: #0000ff; stroke: #0000ff; stroke-width: 1.5"/>
    </g>
   </g>
   <g id="line2d_24">
    <g clip-path="url(#p43255eb81c)">
     <use xlink:href="#m346d4202ce" x="75.205353" y="80.967491" style="fill: #0000ff; stroke: #0000ff; stroke-width: 1.5"/>
     <use xlink:href="#m346d4202ce" x="135.827729" y="89.767369" style="fill: #0000ff; stroke: #0000ff; stroke-width: 1.5"/>
     <use xlink:href="#m346d4202ce" x="195.245367" y="101.454249" style="fill: #0000ff; stroke: #0000ff; stroke-width: 1.5"/>
     <use xlink:href="#m346d4202ce" x="227.253609" y="104.361868" style="fill: #0000ff; stroke: #0000ff; stroke-width: 1.5"/>
     <use xlink:href="#m346d4202ce" x="264.400201" y="100.653888" style="fill: #0000ff; stroke: #0000ff; stroke-width: 1.5"/>
     <use xlink:href="#m346d4202ce" x="313.895295" y="92.802729" style="fill: #0000ff; stroke: #0000ff; stroke-width: 1.5"/>
     <use xlink:href="#m346d4202ce" x="362.376874" y="80.710438" style="fill: #0000ff; stroke: #0000ff; stroke-width: 1.5"/>
     <use xlink:href="#m346d4202ce" x="391.066153" y="55.03957" style="fill: #0000ff; stroke: #0000ff; stroke-width: 1.5"/>
     <use xlink:href="#m346d4202ce" x="415.436587" y="47.998259" style="fill: #0000ff; stroke: #0000ff; stroke-width: 1.5"/>
     <use xlink:href="#m346d4202ce" x="460.324908" y="20.576364" style="fill: #0000ff; stroke: #0000ff; stroke-width: 1.5"/>
    </g>
   </g>
   <g id="LineCollection_2">
    <path d="M 75.205353 227.393686 
L 75.205353 174.046897 
" clip-path="url(#p43255eb81c)" style="fill: none; stroke: #ff0000; stroke-width: 1.5"/>
    <path d="M 135.827729 226.684605 
L 135.827729 156.712238 
" clip-path="url(#p43255eb81c)" style="fill: none; stroke: #ff0000; stroke-width: 1.5"/>
    <path d="M 195.245367 224.535725 
L 195.245367 159.632928 
" clip-path="url(#p43255eb81c)" style="fill: none; stroke: #ff0000; stroke-width: 1.5"/>
    <path d="M 227.253609 221.541766 
L 227.253609 163.891385 
" clip-path="url(#p43255eb81c)" style="fill: none; stroke: #ff0000; stroke-width: 1.5"/>
    <path d="M 264.400201 219.763992 
L 264.400201 171.491634 
" clip-path="url(#p43255eb81c)" style="fill: none; stroke: #ff0000; stroke-width: 1.5"/>
    <path d="M 313.895295 213.698096 
L 313.895295 169.466664 
" clip-path="url(#p43255eb81c)" style="fill: none; stroke: #ff0000; stroke-width: 1.5"/>
    <path d="M 362.376874 207.916965 
L 362.376874 154.274069 
" clip-path="url(#p43255eb81c)" style="fill: none; stroke: #ff0000; stroke-width: 1.5"/>
    <path d="M 391.066153 204.54471 
L 391.066153 150.150938 
" clip-path="url(#p43255eb81c)" style="fill: none; stroke: #ff0000; stroke-width: 1.5"/>
    <path d="M 415.436587 194.756571 
L 415.436587 137.676238 
" clip-path="url(#p43255eb81c)" style="fill: none; stroke: #ff0000; stroke-width: 1.5"/>
    <path d="M 460.324908 288.103636 
L 460.324908 178.987939 
" clip-path="url(#p43255eb81c)" style="fill: none; stroke: #ff0000; stroke-width: 1.5"/>
   </g>
   <g id="line2d_25">
    <defs>
     <path id="m82c25d696e" d="M 4 0 
L -4 -0 
" style="stroke: #ff0000; stroke-width: 1.5"/>
    </defs>
    <g clip-path="url(#p43255eb81c)">
     <use xlink:href="#m82c25d696e" x="75.205353" y="227.393686" style="fill: #ff0000; stroke: #ff0000; stroke-width: 1.5"/>
     <use xlink:href="#m82c25d696e" x="135.827729" y="226.684605" style="fill: #ff0000; stroke: #ff0000; stroke-width: 1.5"/>
     <use xlink:href="#m82c25d696e" x="195.245367" y="224.535725" style="fill: #ff0000; stroke: #ff0000; stroke-width: 1.5"/>
     <use xlink:href="#m82c25d696e" x="227.253609" y="221.541766" style="fill: #ff0000; stroke: #ff0000; stroke-width: 1.5"/>
     <use xlink:href="#m82c25d696e" x="264.400201" y="219.763992" style="fill: #ff0000; stroke: #ff0000; stroke-width: 1.5"/>
     <use xlink:href="#m82c25d696e" x="313.895295" y="213.698096" style="fill: #ff0000; stroke: #ff0000; stroke-width: 1.5"/>
     <use xlink:href="#m82c25d696e" x="362.376874" y="207.916965" style="fill: #ff0000; stroke: #ff0000; stroke-width: 1.5"/>
     <use xlink:href="#m82c25d696e" x="391.066153" y="204.54471" style="fill: #ff0000; stroke: #ff0000; stroke-width: 1.5"/>
     <use xlink:href="#m82c25d696e" x="415.436587" y="194.756571" style="fill: #ff0000; stroke: #ff0000; stroke-width: 1.5"/>
     <use xlink:href="#m82c25d696e" x="460.324908" y="288.103636" style="fill: #ff0000; stroke: #ff0000; stroke-width: 1.5"/>
    </g>
   </g>
   <g id="line2d_26">
    <g clip-path="url(#p43255eb81c)">
     <use xlink:href="#m82c25d696e" x="75.205353" y="174.046897" style="fill: #ff0000; stroke: #ff0000; stroke-width: 1.5"/>
     <use xlink:href="#m82c25d696e" x="135.827729" y="156.712238" style="fill: #ff0000; stroke: #ff0000; stroke-width: 1.5"/>
     <use xlink:href="#m82c25d696e" x="195.245367" y="159.632928" style="fill: #ff0000; stroke: #ff0000; stroke-width: 1.5"/>
     <use xlink:href="#m82c25d696e" x="227.253609" y="163.891385" style="fill: #ff0000; stroke: #ff0000; stroke-width: 1.5"/>
     <use xlink:href="#m82c25d696e" x="264.400201" y="171.491634" style="fill: #ff0000; stroke: #ff0000; stroke-width: 1.5"/>
     <use xlink:href="#m82c25d696e" x="313.895295" y="169.466664" style="fill: #ff0000; stroke: #ff0000; stroke-width: 1.5"/>
     <use xlink:href="#m82c25d696e" x="362.376874" y="154.274069" style="fill: #ff0000; stroke: #ff0000; stroke-width: 1.5"/>
     <use xlink:href="#m82c25d696e" x="391.066153" y="150.150938" style="fill: #ff0000; stroke: #ff0000; stroke-width: 1.5"/>
     <use xlink:href="#m82c25d696e" x="415.436587" y="137.676238" style="fill: #ff0000; stroke: #ff0000; stroke-width: 1.5"/>
     <use xlink:href="#m82c25d696e" x="460.324908" y="178.987939" style="fill: #ff0000; stroke: #ff0000; stroke-width: 1.5"/>
    </g>
   </g>
   <g id="legend_1">
    <g id="patch_7">
     <path d="M 61.549375 61.405 
L 209.229375 61.405 
Q 210.829375 61.405 210.829375 59.805 
L 210.829375 12.8 
Q 210.829375 11.2 209.229375 11.2 
L 61.549375 11.2 
Q 59.949375 11.2 59.949375 12.8 
L 59.949375 59.805 
Q 59.949375 61.405 61.549375 61.405 
z
" style="fill: #ffffff; opacity: 0.8; stroke: #cccccc; stroke-linejoin: miter"/>
    </g>
    <g id="line2d_27">
     <path d="M 63.149375 17.68 
L 71.149375 17.68 
L 79.149375 17.68 
" style="fill: none; stroke: #000000; stroke-width: 1.2; stroke-linecap: square"/>
    </g>
    <g id="text_12">
     <!-- $y = 1$  (exact) -->
     <g transform="translate(85.549375 20.48) scale(0.08 -0.08)">
      <defs>
       <path id="DejaVuSans-Oblique-79" d="M 1588 -325 
Q 1188 -997 936 -1164 
Q 684 -1331 294 -1331 
L -159 -1331 
L -63 -850 
L 269 -850 
Q 509 -850 678 -719 
Q 847 -588 1056 -206 
L 1234 128 
L 459 3500 
L 1069 3500 
L 1650 819 
L 3256 3500 
L 3859 3500 
L 1588 -325 
z
" transform="scale(0.015625)"/>
       <path id="DejaVuSans-3d" d="M 678 2906 
L 4684 2906 
L 4684 2381 
L 678 2381 
L 678 2906 
z
M 678 1631 
L 4684 1631 
L 4684 1100 
L 678 1100 
L 678 1631 
z
" transform="scale(0.015625)"/>
       <path id="DejaVuSans-20" transform="scale(0.015625)"/>
       <path id="DejaVuSans-28" d="M 1984 4856 
Q 1566 4138 1362 3434 
Q 1159 2731 1159 2009 
Q 1159 1288 1364 580 
Q 1569 -128 1984 -844 
L 1484 -844 
Q 1016 -109 783 600 
Q 550 1309 550 2009 
Q 550 2706 781 3412 
Q 1013 4119 1484 4856 
L 1984 4856 
z
" transform="scale(0.015625)"/>
       <path id="DejaVuSans-78" d="M 3513 3500 
L 2247 1797 
L 3578 0 
L 2900 0 
L 1881 1375 
L 863 0 
L 184 0 
L 1544 1831 
L 300 3500 
L 978 3500 
L 1906 2253 
L 2834 3500 
L 3513 3500 
z
" transform="scale(0.015625)"/>
       <path id="DejaVuSans-63" d="M 3122 3366 
L 3122 2828 
Q 2878 2963 2633 3030 
Q 2388 3097 2138 3097 
Q 1578 3097 1268 2742 
Q 959 2388 959 1747 
Q 959 1106 1268 751 
Q 1578 397 2138 397 
Q 2388 397 2633 464 
Q 2878 531 3122 666 
L 3122 134 
Q 2881 22 2623 -34 
Q 2366 -91 2075 -91 
Q 1284 -91 818 406 
Q 353 903 353 1747 
Q 353 2603 823 3093 
Q 1294 3584 2113 3584 
Q 2378 3584 2631 3529 
Q 2884 3475 3122 3366 
z
" transform="scale(0.015625)"/>
       <path id="DejaVuSans-29" d="M 513 4856 
L 1013 4856 
Q 1481 4119 1714 3412 
Q 1947 2706 1947 2009 
Q 1947 1309 1714 600 
Q 1481 -109 1013 -844 
L 513 -844 
Q 928 -128 1133 580 
Q 1338 1288 1338 2009 
Q 1338 2731 1133 3434 
Q 928 4138 513 4856 
z
" transform="scale(0.015625)"/>
      </defs>
      <use xlink:href="#DejaVuSans-Oblique-79" transform="translate(0 0.125)"/>
      <use xlink:href="#DejaVuSans-3d" transform="translate(78.662109 0.125)"/>
      <use xlink:href="#DejaVuSans-31" transform="translate(181.933594 0.125)"/>
      <use xlink:href="#DejaVuSans-20" transform="translate(245.556641 0.125)"/>
      <use xlink:href="#DejaVuSans-20" transform="translate(277.34375 0.125)"/>
      <use xlink:href="#DejaVuSans-28" transform="translate(309.130859 0.125)"/>
      <use xlink:href="#DejaVuSans-65" transform="translate(348.144531 0.125)"/>
      <use xlink:href="#DejaVuSans-78" transform="translate(409.667969 0.125)"/>
      <use xlink:href="#DejaVuSans-61" transform="translate(468.847656 0.125)"/>
      <use xlink:href="#DejaVuSans-63" transform="translate(530.126953 0.125)"/>
      <use xlink:href="#DejaVuSans-74" transform="translate(585.107422 0.125)"/>
      <use xlink:href="#DejaVuSans-29" transform="translate(624.316406 0.125)"/>
     </g>
    </g>
    <g id="line2d_28">
     <path d="M 63.149375 29.43875 
L 71.149375 29.43875 
L 79.149375 29.43875 
" style="fill: none; stroke-dasharray: 4.44,1.92; stroke-dashoffset: 0; stroke: #000000; stroke-width: 1.2"/>
    </g>
    <g id="text_13">
     <!-- 10 % overestimation -->
     <g transform="translate(85.549375 32.23875) scale(0.08 -0.08)">
      <defs>
       <path id="DejaVuSans-25" d="M 4653 2053 
Q 4381 2053 4226 1822 
Q 4072 1591 4072 1178 
Q 4072 772 4226 539 
Q 4381 306 4653 306 
Q 4919 306 5073 539 
Q 5228 772 5228 1178 
Q 5228 1588 5073 1820 
Q 4919 2053 4653 2053 
z
M 4653 2450 
Q 5147 2450 5437 2106 
Q 5728 1763 5728 1178 
Q 5728 594 5436 251 
Q 5144 -91 4653 -91 
Q 4153 -91 3862 251 
Q 3572 594 3572 1178 
Q 3572 1766 3864 2108 
Q 4156 2450 4653 2450 
z
M 1428 4353 
Q 1159 4353 1004 4120 
Q 850 3888 850 3481 
Q 850 3069 1003 2837 
Q 1156 2606 1428 2606 
Q 1700 2606 1854 2837 
Q 2009 3069 2009 3481 
Q 2009 3884 1853 4118 
Q 1697 4353 1428 4353 
z
M 4250 4750 
L 4750 4750 
L 1831 -91 
L 1331 -91 
L 4250 4750 
z
M 1428 4750 
Q 1922 4750 2215 4408 
Q 2509 4066 2509 3481 
Q 2509 2891 2217 2550 
Q 1925 2209 1428 2209 
Q 931 2209 642 2551 
Q 353 2894 353 3481 
Q 353 4063 643 4406 
Q 934 4750 1428 4750 
z
" transform="scale(0.015625)"/>
       <path id="DejaVuSans-6f" d="M 1959 3097 
Q 1497 3097 1228 2736 
Q 959 2375 959 1747 
Q 959 1119 1226 758 
Q 1494 397 1959 397 
Q 2419 397 2687 759 
Q 2956 1122 2956 1747 
Q 2956 2369 2687 2733 
Q 2419 3097 1959 3097 
z
M 1959 3584 
Q 2709 3584 3137 3096 
Q 3566 2609 3566 1747 
Q 3566 888 3137 398 
Q 2709 -91 1959 -91 
Q 1206 -91 779 398 
Q 353 888 353 1747 
Q 353 2609 779 3096 
Q 1206 3584 1959 3584 
z
" transform="scale(0.015625)"/>
       <path id="DejaVuSans-76" d="M 191 3500 
L 800 3500 
L 1894 563 
L 2988 3500 
L 3597 3500 
L 2284 0 
L 1503 0 
L 191 3500 
z
" transform="scale(0.015625)"/>
       <path id="DejaVuSans-72" d="M 2631 2963 
Q 2534 3019 2420 3045 
Q 2306 3072 2169 3072 
Q 1681 3072 1420 2755 
Q 1159 2438 1159 1844 
L 1159 0 
L 581 0 
L 581 3500 
L 1159 3500 
L 1159 2956 
Q 1341 3275 1631 3429 
Q 1922 3584 2338 3584 
Q 2397 3584 2469 3576 
Q 2541 3569 2628 3553 
L 2631 2963 
z
" transform="scale(0.015625)"/>
       <path id="DejaVuSans-69" d="M 603 3500 
L 1178 3500 
L 1178 0 
L 603 0 
L 603 3500 
z
M 603 4863 
L 1178 4863 
L 1178 4134 
L 603 4134 
L 603 4863 
z
" transform="scale(0.015625)"/>
       <path id="DejaVuSans-6e" d="M 3513 2113 
L 3513 0 
L 2938 0 
L 2938 2094 
Q 2938 2591 2744 2837 
Q 2550 3084 2163 3084 
Q 1697 3084 1428 2787 
Q 1159 2491 1159 1978 
L 1159 0 
L 581 0 
L 581 3500 
L 1159 3500 
L 1159 2956 
Q 1366 3272 1645 3428 
Q 1925 3584 2291 3584 
Q 2894 3584 3203 3211 
Q 3513 2838 3513 2113 
z
" transform="scale(0.015625)"/>
      </defs>
      <use xlink:href="#DejaVuSans-31"/>
      <use xlink:href="#DejaVuSans-30" transform="translate(63.623047 0)"/>
      <use xlink:href="#DejaVuSans-20" transform="translate(127.246094 0)"/>
      <use xlink:href="#DejaVuSans-25" transform="translate(159.033203 0)"/>
      <use xlink:href="#DejaVuSans-20" transform="translate(254.052734 0)"/>
      <use xlink:href="#DejaVuSans-6f" transform="translate(285.839844 0)"/>
      <use xlink:href="#DejaVuSans-76" transform="translate(347.021484 0)"/>
      <use xlink:href="#DejaVuSans-65" transform="translate(406.201172 0)"/>
      <use xlink:href="#DejaVuSans-72" transform="translate(467.724609 0)"/>
      <use xlink:href="#DejaVuSans-65" transform="translate(506.587891 0)"/>
      <use xlink:href="#DejaVuSans-73" transform="translate(568.111328 0)"/>
      <use xlink:href="#DejaVuSans-74" transform="translate(620.210938 0)"/>
      <use xlink:href="#DejaVuSans-69" transform="translate(659.419922 0)"/>
      <use xlink:href="#DejaVuSans-6d" transform="translate(687.203125 0)"/>
      <use xlink:href="#DejaVuSans-61" transform="translate(784.615234 0)"/>
      <use xlink:href="#DejaVuSans-74" transform="translate(845.894531 0)"/>
      <use xlink:href="#DejaVuSans-69" transform="translate(885.103516 0)"/>
      <use xlink:href="#DejaVuSans-6f" transform="translate(912.886719 0)"/>
      <use xlink:href="#DejaVuSans-6e" transform="translate(974.068359 0)"/>
     </g>
    </g>
    <g id="LineCollection_3">
     <path d="M 71.149375 45.18125 
L 71.149375 37.18125 
" style="fill: none; stroke: #0000ff; stroke-width: 1.5"/>
    </g>
    <g id="line2d_29">
     <g>
      <use xlink:href="#m346d4202ce" x="71.149375" y="45.18125" style="fill: #0000ff; stroke: #0000ff; stroke-width: 1.5"/>
     </g>
    </g>
    <g id="line2d_30">
     <g>
      <use xlink:href="#m346d4202ce" x="71.149375" y="37.18125" style="fill: #0000ff; stroke: #0000ff; stroke-width: 1.5"/>
     </g>
    </g>
    <g id="line2d_31">
     <path d="M 63.149375 41.18125 
L 79.149375 41.18125 
" style="fill: none; stroke: #0000ff; stroke-width: 2; stroke-linecap: square"/>
    </g>
    <g id="line2d_32">
     <defs>
      <path id="mf2ee9d94f4" d="M 0 2.5 
C 0.663008 2.5 1.29895 2.236584 1.767767 1.767767 
C 2.236584 1.29895 2.5 0.663008 2.5 0 
C 2.5 -0.663008 2.236584 -1.29895 1.767767 -1.767767 
C 1.29895 -2.236584 0.663008 -2.5 0 -2.5 
C -0.663008 -2.5 -1.29895 -2.236584 -1.767767 -1.767767 
C -2.236584 -1.29895 -2.5 -0.663008 -2.5 0 
C -2.5 0.663008 -2.236584 1.29895 -1.767767 1.767767 
C -1.29895 2.236584 -0.663008 2.5 0 2.5 
z
" style="stroke: #0000ff"/>
     </defs>
     <g>
      <use xlink:href="#mf2ee9d94f4" x="71.149375" y="41.18125" style="fill: #0000ff; stroke: #0000ff"/>
     </g>
    </g>
    <g id="text_14">
     <!-- Mean $F_x/F_{set}$ ± SD  (short axis) -->
     <g transform="translate(85.549375 43.98125) scale(0.08 -0.08)">
      <defs>
       <path id="DejaVuSans-4d" d="M 628 4666 
L 1569 4666 
L 2759 1491 
L 3956 4666 
L 4897 4666 
L 4897 0 
L 4281 0 
L 4281 4097 
L 3078 897 
L 2444 897 
L 1241 4097 
L 1241 0 
L 628 0 
L 628 4666 
z
" transform="scale(0.015625)"/>
       <path id="DejaVuSans-Oblique-78" d="M 3841 3500 
L 2234 1784 
L 3219 0 
L 2559 0 
L 1819 1388 
L 531 0 
L -166 0 
L 1556 1844 
L 641 3500 
L 1300 3500 
L 1972 2234 
L 3144 3500 
L 3841 3500 
z
" transform="scale(0.015625)"/>
       <path id="DejaVuSans-Oblique-73" d="M 3200 3397 
L 3091 2853 
Q 2863 2978 2609 3040 
Q 2356 3103 2088 3103 
Q 1634 3103 1373 2948 
Q 1113 2794 1113 2528 
Q 1113 2219 1719 2053 
Q 1766 2041 1788 2034 
L 1972 1978 
Q 2547 1819 2739 1644 
Q 2931 1469 2931 1166 
Q 2931 609 2489 259 
Q 2047 -91 1331 -91 
Q 1053 -91 747 -37 
Q 441 16 72 128 
L 184 722 
Q 500 559 806 475 
Q 1113 391 1394 391 
Q 1816 391 2080 572 
Q 2344 753 2344 1031 
Q 2344 1331 1650 1516 
L 1591 1531 
L 1394 1581 
Q 956 1697 753 1886 
Q 550 2075 550 2369 
Q 550 2928 970 3256 
Q 1391 3584 2113 3584 
Q 2397 3584 2667 3537 
Q 2938 3491 3200 3397 
z
" transform="scale(0.015625)"/>
       <path id="DejaVuSans-Oblique-65" d="M 3078 2063 
Q 3088 2113 3092 2166 
Q 3097 2219 3097 2272 
Q 3097 2653 2873 2875 
Q 2650 3097 2266 3097 
Q 1838 3097 1509 2826 
Q 1181 2556 1013 2059 
L 3078 2063 
z
M 3578 1613 
L 903 1613 
Q 884 1494 878 1425 
Q 872 1356 872 1306 
Q 872 872 1139 634 
Q 1406 397 1894 397 
Q 2269 397 2603 481 
Q 2938 566 3225 728 
L 3116 159 
Q 2806 34 2476 -28 
Q 2147 -91 1806 -91 
Q 1078 -91 686 257 
Q 294 606 294 1247 
Q 294 1794 489 2264 
Q 684 2734 1063 3103 
Q 1306 3334 1642 3459 
Q 1978 3584 2356 3584 
Q 2950 3584 3301 3228 
Q 3653 2872 3653 2272 
Q 3653 2128 3634 1964 
Q 3616 1800 3578 1613 
z
" transform="scale(0.015625)"/>
       <path id="DejaVuSans-Oblique-74" d="M 2706 3500 
L 2619 3053 
L 1472 3053 
L 1100 1153 
Q 1081 1047 1072 975 
Q 1063 903 1063 863 
Q 1063 663 1183 572 
Q 1303 481 1569 481 
L 2150 481 
L 2053 0 
L 1503 0 
Q 991 0 739 200 
Q 488 400 488 806 
Q 488 878 497 964 
Q 506 1050 525 1153 
L 897 3053 
L 409 3053 
L 500 3500 
L 978 3500 
L 1172 4494 
L 1747 4494 
L 1556 3500 
L 2706 3500 
z
" transform="scale(0.015625)"/>
       <path id="DejaVuSans-b1" d="M 2944 4013 
L 2944 2803 
L 4684 2803 
L 4684 2272 
L 2944 2272 
L 2944 1063 
L 2419 1063 
L 2419 2272 
L 678 2272 
L 678 2803 
L 2419 2803 
L 2419 4013 
L 2944 4013 
z
M 678 531 
L 4684 531 
L 4684 0 
L 678 0 
L 678 531 
z
" transform="scale(0.015625)"/>
       <path id="DejaVuSans-53" d="M 3425 4513 
L 3425 3897 
Q 3066 4069 2747 4153 
Q 2428 4238 2131 4238 
Q 1616 4238 1336 4038 
Q 1056 3838 1056 3469 
Q 1056 3159 1242 3001 
Q 1428 2844 1947 2747 
L 2328 2669 
Q 3034 2534 3370 2195 
Q 3706 1856 3706 1288 
Q 3706 609 3251 259 
Q 2797 -91 1919 -91 
Q 1588 -91 1214 -16 
Q 841 59 441 206 
L 441 856 
Q 825 641 1194 531 
Q 1563 422 1919 422 
Q 2459 422 2753 634 
Q 3047 847 3047 1241 
Q 3047 1584 2836 1778 
Q 2625 1972 2144 2069 
L 1759 2144 
Q 1053 2284 737 2584 
Q 422 2884 422 3419 
Q 422 4038 858 4394 
Q 1294 4750 2059 4750 
Q 2388 4750 2728 4690 
Q 3069 4631 3425 4513 
z
" transform="scale(0.015625)"/>
       <path id="DejaVuSans-44" d="M 1259 4147 
L 1259 519 
L 2022 519 
Q 2988 519 3436 956 
Q 3884 1394 3884 2338 
Q 3884 3275 3436 3711 
Q 2988 4147 2022 4147 
L 1259 4147 
z
M 628 4666 
L 1925 4666 
Q 3281 4666 3915 4102 
Q 4550 3538 4550 2338 
Q 4550 1131 3912 565 
Q 3275 0 1925 0 
L 628 0 
L 628 4666 
z
" transform="scale(0.015625)"/>
       <path id="DejaVuSans-68" d="M 3513 2113 
L 3513 0 
L 2938 0 
L 2938 2094 
Q 2938 2591 2744 2837 
Q 2550 3084 2163 3084 
Q 1697 3084 1428 2787 
Q 1159 2491 1159 1978 
L 1159 0 
L 581 0 
L 581 4863 
L 1159 4863 
L 1159 2956 
Q 1366 3272 1645 3428 
Q 1925 3584 2291 3584 
Q 2894 3584 3203 3211 
Q 3513 2838 3513 2113 
z
" transform="scale(0.015625)"/>
      </defs>
      <use xlink:href="#DejaVuSans-4d" transform="translate(0 0.015625)"/>
      <use xlink:href="#DejaVuSans-65" transform="translate(86.279297 0.015625)"/>
      <use xlink:href="#DejaVuSans-61" transform="translate(147.802734 0.015625)"/>
      <use xlink:href="#DejaVuSans-6e" transform="translate(209.082031 0.015625)"/>
      <use xlink:href="#DejaVuSans-20" transform="translate(272.460938 0.015625)"/>
      <use xlink:href="#DejaVuSans-Oblique-46" transform="translate(304.248047 0.015625)"/>
      <use xlink:href="#DejaVuSans-Oblique-78" transform="translate(361.767578 -16.390625) scale(0.7)"/>
      <use xlink:href="#DejaVuSans-2f" transform="translate(405.927734 0.015625)"/>
      <use xlink:href="#DejaVuSans-Oblique-46" transform="translate(439.619141 0.015625)"/>
      <use xlink:href="#DejaVuSans-Oblique-73" transform="translate(497.138672 -16.390625) scale(0.7)"/>
      <use xlink:href="#DejaVuSans-Oblique-65" transform="translate(533.608398 -16.390625) scale(0.7)"/>
      <use xlink:href="#DejaVuSans-Oblique-74" transform="translate(576.674805 -16.390625) scale(0.7)"/>
      <use xlink:href="#DejaVuSans-20" transform="translate(606.855469 0.015625)"/>
      <use xlink:href="#DejaVuSans-b1" transform="translate(638.642578 0.015625)"/>
      <use xlink:href="#DejaVuSans-20" transform="translate(722.431641 0.015625)"/>
      <use xlink:href="#DejaVuSans-53" transform="translate(754.21875 0.015625)"/>
      <use xlink:href="#DejaVuSans-44" transform="translate(817.695312 0.015625)"/>
      <use xlink:href="#DejaVuSans-20" transform="translate(894.697266 0.015625)"/>
      <use xlink:href="#DejaVuSans-20" transform="translate(926.484375 0.015625)"/>
      <use xlink:href="#DejaVuSans-28" transform="translate(958.271484 0.015625)"/>
      <use xlink:href="#DejaVuSans-73" transform="translate(997.285156 0.015625)"/>
      <use xlink:href="#DejaVuSans-68" transform="translate(1049.384766 0.015625)"/>
      <use xlink:href="#DejaVuSans-6f" transform="translate(1112.763672 0.015625)"/>
      <use xlink:href="#DejaVuSans-72" transform="translate(1173.945312 0.015625)"/>
      <use xlink:href="#DejaVuSans-74" transform="translate(1215.058594 0.015625)"/>
      <use xlink:href="#DejaVuSans-20" transform="translate(1254.267578 0.015625)"/>
      <use xlink:href="#DejaVuSans-61" transform="translate(1286.054688 0.015625)"/>
      <use xlink:href="#DejaVuSans-78" transform="translate(1347.333984 0.015625)"/>
      <use xlink:href="#DejaVuSans-69" transform="translate(1406.513672 0.015625)"/>
      <use xlink:href="#DejaVuSans-73" transform="translate(1434.296875 0.015625)"/>
      <use xlink:href="#DejaVuSans-29" transform="translate(1486.396484 0.015625)"/>
     </g>
    </g>
    <g id="LineCollection_4">
     <path d="M 71.149375 56.925 
L 71.149375 48.925 
" style="fill: none; stroke: #ff0000; stroke-width: 1.5"/>
    </g>
    <g id="line2d_33">
     <g>
      <use xlink:href="#m82c25d696e" x="71.149375" y="56.925" style="fill: #ff0000; stroke: #ff0000; stroke-width: 1.5"/>
     </g>
    </g>
    <g id="line2d_34">
     <g>
      <use xlink:href="#m82c25d696e" x="71.149375" y="48.925" style="fill: #ff0000; stroke: #ff0000; stroke-width: 1.5"/>
     </g>
    </g>
    <g id="line2d_35">
     <path d="M 63.149375 52.925 
L 79.149375 52.925 
" style="fill: none; stroke: #ff0000; stroke-width: 2; stroke-linecap: square"/>
    </g>
    <g id="line2d_36">
     <defs>
      <path id="mb68fa30ad8" d="M 0 2.5 
C 0.663008 2.5 1.29895 2.236584 1.767767 1.767767 
C 2.236584 1.29895 2.5 0.663008 2.5 0 
C 2.5 -0.663008 2.236584 -1.29895 1.767767 -1.767767 
C 1.29895 -2.236584 0.663008 -2.5 0 -2.5 
C -0.663008 -2.5 -1.29895 -2.236584 -1.767767 -1.767767 
C -2.236584 -1.29895 -2.5 -0.663008 -2.5 0 
C -2.5 0.663008 -2.236584 1.29895 -1.767767 1.767767 
C -1.29895 2.236584 -0.663008 2.5 0 2.5 
z
" style="stroke: #ff0000"/>
     </defs>
     <g>
      <use xlink:href="#mb68fa30ad8" x="71.149375" y="52.925" style="fill: #ff0000; stroke: #ff0000"/>
     </g>
    </g>
    <g id="text_15">
     <!-- Mean $F_y/F_{set}$ ± SD  (long axis) -->
     <g transform="translate(85.549375 55.725) scale(0.08 -0.08)">
      <defs>
       <path id="DejaVuSans-6c" d="M 603 4863 
L 1178 4863 
L 1178 0 
L 603 0 
L 603 4863 
z
" transform="scale(0.015625)"/>
       <path id="DejaVuSans-67" d="M 2906 1791 
Q 2906 2416 2648 2759 
Q 2391 3103 1925 3103 
Q 1463 3103 1205 2759 
Q 947 2416 947 1791 
Q 947 1169 1205 825 
Q 1463 481 1925 481 
Q 2391 481 2648 825 
Q 2906 1169 2906 1791 
z
M 3481 434 
Q 3481 -459 3084 -895 
Q 2688 -1331 1869 -1331 
Q 1566 -1331 1297 -1286 
Q 1028 -1241 775 -1147 
L 775 -588 
Q 1028 -725 1275 -790 
Q 1522 -856 1778 -856 
Q 2344 -856 2625 -561 
Q 2906 -266 2906 331 
L 2906 616 
Q 2728 306 2450 153 
Q 2172 0 1784 0 
Q 1141 0 747 490 
Q 353 981 353 1791 
Q 353 2603 747 3093 
Q 1141 3584 1784 3584 
Q 2172 3584 2450 3431 
Q 2728 3278 2906 2969 
L 2906 3500 
L 3481 3500 
L 3481 434 
z
" transform="scale(0.015625)"/>
      </defs>
      <use xlink:href="#DejaVuSans-4d" transform="translate(0 0.015625)"/>
      <use xlink:href="#DejaVuSans-65" transform="translate(86.279297 0.015625)"/>
      <use xlink:href="#DejaVuSans-61" transform="translate(147.802734 0.015625)"/>
      <use xlink:href="#DejaVuSans-6e" transform="translate(209.082031 0.015625)"/>
      <use xlink:href="#DejaVuSans-20" transform="translate(272.460938 0.015625)"/>
      <use xlink:href="#DejaVuSans-Oblique-46" transform="translate(304.248047 0.015625)"/>
      <use xlink:href="#DejaVuSans-Oblique-79" transform="translate(361.767578 -16.390625) scale(0.7)"/>
      <use xlink:href="#DejaVuSans-2f" transform="translate(405.927734 0.015625)"/>
      <use xlink:href="#DejaVuSans-Oblique-46" transform="translate(439.619141 0.015625)"/>
      <use xlink:href="#DejaVuSans-Oblique-73" transform="translate(497.138672 -16.390625) scale(0.7)"/>
      <use xlink:href="#DejaVuSans-Oblique-65" transform="translate(533.608398 -16.390625) scale(0.7)"/>
      <use xlink:href="#DejaVuSans-Oblique-74" transform="translate(576.674805 -16.390625) scale(0.7)"/>
      <use xlink:href="#DejaVuSans-20" transform="translate(606.855469 0.015625)"/>
      <use xlink:href="#DejaVuSans-b1" transform="translate(638.642578 0.015625)"/>
      <use xlink:href="#DejaVuSans-20" transform="translate(722.431641 0.015625)"/>
      <use xlink:href="#DejaVuSans-53" transform="translate(754.21875 0.015625)"/>
      <use xlink:href="#DejaVuSans-44" transform="translate(817.695312 0.015625)"/>
      <use xlink:href="#DejaVuSans-20" transform="translate(894.697266 0.015625)"/>
      <use xlink:href="#DejaVuSans-20" transform="translate(926.484375 0.015625)"/>
      <use xlink:href="#DejaVuSans-28" transform="translate(958.271484 0.015625)"/>
      <use xlink:href="#DejaVuSans-6c" transform="translate(997.285156 0.015625)"/>
      <use xlink:href="#DejaVuSans-6f" transform="translate(1025.068359 0.015625)"/>
      <use xlink:href="#DejaVuSans-6e" transform="translate(1086.25 0.015625)"/>
      <use xlink:href="#DejaVuSans-67" transform="translate(1149.628906 0.015625)"/>
      <use xlink:href="#DejaVuSans-20" transform="translate(1213.105469 0.015625)"/>
      <use xlink:href="#DejaVuSans-61" transform="translate(1244.892578 0.015625)"/>
      <use xlink:href="#DejaVuSans-78" transform="translate(1306.171875 0.015625)"/>
      <use xlink:href="#DejaVuSans-69" transform="translate(1365.351562 0.015625)"/>
      <use xlink:href="#DejaVuSans-73" transform="translate(1393.134766 0.015625)"/>
      <use xlink:href="#DejaVuSans-29" transform="translate(1445.234375 0.015625)"/>
     </g>
    </g>
   </g>
   <g id="line2d_37">
    <path d="M 75.205353 146.40503 
L 135.827729 142.701944 
L 195.245367 139.139777 
L 227.253609 138.824433 
L 264.400201 140.878056 
L 313.895295 120.723934 
L 362.376874 108.90475 
L 391.066153 89.403797 
L 415.436587 84.901561 
L 460.324908 82.905175 
" clip-path="url(#p43255eb81c)" style="fill: none; stroke: #0000ff; stroke-width: 2; stroke-linecap: square"/>
    <g clip-path="url(#p43255eb81c)">
     <use xlink:href="#mf2ee9d94f4" x="75.205353" y="146.40503" style="fill: #0000ff; stroke: #0000ff"/>
     <use xlink:href="#mf2ee9d94f4" x="135.827729" y="142.701944" style="fill: #0000ff; stroke: #0000ff"/>
     <use xlink:href="#mf2ee9d94f4" x="195.245367" y="139.139777" style="fill: #0000ff; stroke: #0000ff"/>
     <use xlink:href="#mf2ee9d94f4" x="227.253609" y="138.824433" style="fill: #0000ff; stroke: #0000ff"/>
     <use xlink:href="#mf2ee9d94f4" x="264.400201" y="140.878056" style="fill: #0000ff; stroke: #0000ff"/>
     <use xlink:href="#mf2ee9d94f4" x="313.895295" y="120.723934" style="fill: #0000ff; stroke: #0000ff"/>
     <use xlink:href="#mf2ee9d94f4" x="362.376874" y="108.90475" style="fill: #0000ff; stroke: #0000ff"/>
     <use xlink:href="#mf2ee9d94f4" x="391.066153" y="89.403797" style="fill: #0000ff; stroke: #0000ff"/>
     <use xlink:href="#mf2ee9d94f4" x="415.436587" y="84.901561" style="fill: #0000ff; stroke: #0000ff"/>
     <use xlink:href="#mf2ee9d94f4" x="460.324908" y="82.905175" style="fill: #0000ff; stroke: #0000ff"/>
    </g>
   </g>
   <g id="line2d_38">
    <path d="M 75.205353 200.720291 
L 135.827729 191.698422 
L 195.245367 192.084326 
L 227.253609 192.716575 
L 264.400201 195.627813 
L 313.895295 191.58238 
L 362.376874 181.095517 
L 391.066153 177.347824 
L 415.436587 166.216405 
L 460.324908 233.545788 
" clip-path="url(#p43255eb81c)" style="fill: none; stroke: #ff0000; stroke-width: 2; stroke-linecap: square"/>
    <g clip-path="url(#p43255eb81c)">
     <use xlink:href="#mb68fa30ad8" x="75.205353" y="200.720291" style="fill: #ff0000; stroke: #ff0000"/>
     <use xlink:href="#mb68fa30ad8" x="135.827729" y="191.698422" style="fill: #ff0000; stroke: #ff0000"/>
     <use xlink:href="#mb68fa30ad8" x="195.245367" y="192.084326" style="fill: #ff0000; stroke: #ff0000"/>
     <use xlink:href="#mb68fa30ad8" x="227.253609" y="192.716575" style="fill: #ff0000; stroke: #ff0000"/>
     <use xlink:href="#mb68fa30ad8" x="264.400201" y="195.627813" style="fill: #ff0000; stroke: #ff0000"/>
     <use xlink:href="#mb68fa30ad8" x="313.895295" y="191.58238" style="fill: #ff0000; stroke: #ff0000"/>
     <use xlink:href="#mb68fa30ad8" x="362.376874" y="181.095517" style="fill: #ff0000; stroke: #ff0000"/>
     <use xlink:href="#mb68fa30ad8" x="391.066153" y="177.347824" style="fill: #ff0000; stroke: #ff0000"/>
     <use xlink:href="#mb68fa30ad8" x="415.436587" y="166.216405" style="fill: #ff0000; stroke: #ff0000"/>
     <use xlink:href="#mb68fa30ad8" x="460.324908" y="233.545788" style="fill: #ff0000; stroke: #ff0000"/>
    </g>
   </g>
  </g>
 </g>
 <defs>
  <clipPath id="p43255eb81c">
   <rect x="55.949375" y="7.2" width="423.631511" height="294.28"/>
  </clipPath>
 </defs>
</svg>
