<?xml version="1.0" encoding="utf-8" standalone="no"?>
<!DOCTYPE svg PUBLIC "-//W3C//DTD SVG 1.1//EN"
  "http://www.w3.org/Graphics/SVG/1.1/DTD/svg11.dtd">
<svg xmlns:xlink="http://www.w3.org/1999/xlink" width="494.285pt" height="350.229375pt" viewBox="0 0 494.285 350.229375" xmlns="http://www.w3.org/2000/svg" version="1.1">
 <metadata>
  <rdf:RDF xmlns:dc="http://purl.org/dc/elements/1.1/" xmlns:cc="http://creativecommons.org/ns#" xmlns:rdf="http://www.w3.org/1999/02/22-rdf-syntax-ns#">
   <cc:Work>
    <dc:type rdf:resource="http://purl.org/dc/dcmitype/StillImage"/>
    <dc:date>2026-06-22T20:03:32.800078</dc:date>
    <dc:format>image/svg+xml</dc:format>
    <dc:creator>
     <cc:Agent>
      <dc:title>Matplotlib v3.10.9, https://matplotlib.org/</dc:title>
     </cc:Agent>
    </dc:creator>
   </cc:Work>
  </rdf:RDF>
 </metadata>
 <defs>
  <style type="text/css">*{stroke-linejoin: round; stroke-linecap: butt}</style>
 </defs>
 <g id="figure_1">
  <g id="patch_1">
   <path d="M 0 350.229375 
L 494.285 350.229375 
L 494.285 0 
L 0 0 
z
" style="fill: #ffffff"/>
  </g>
  <g id="axes_1">
   <g id="patch_2">
    <path d="M 51.535 302.8 
L 487.085 302.8 
L 487.085 7.2 
L 51.535 7.2 
z
" style="fill: #ffffff"/>
   </g>
   <g id="matplotlib.axis_1">
    <g id="xtick_1">
     <g id="line2d_1">
      <defs>
       <path id="m22ff4f60bc" d="M 0 0 
L 0 3.5 
" style="stroke: #000000; stroke-width: 0.8"/>
      </defs>
      <g>
       <use xlink:href="#m22ff4f60bc" x="132.529113" y="302.8" style="stroke: #000000; stroke-width: 0.8"/>
      </g>
     </g>
     <g id="text_1">
      <!-- 2 -->
      <g transform="translate(128.075363 320.437813) scale(0.14 -0.14)">
       <defs>
        <path id="DejaVuSans-32" d="M 1228 531 
L 3431 531 
L 3431 0 
L 469 0 
L 469 531 
Q 828 903 1448 1529 
Q 2069 2156 2228 2338 
Q 2531 2678 2651 2914 
Q 2772 3150 2772 3378 
Q 2772 3750 2511 3984 
Q 2250 4219 1831 4219 
Q 1534 4219 1204 4116 
Q 875 4013 500 3803 
L 500 4441 
Q 881 4594 1212 4672 
Q 1544 4750 1819 4750 
Q 2544 4750 2975 4387 
Q 3406 4025 3406 3419 
Q 3406 3131 3298 2873 
Q 3191 2616 2906 2266 
Q 2828 2175 2409 1742 
Q 1991 1309 1228 531 
z
" transform="scale(0.015625)"/>
       </defs>
       <use xlink:href="#DejaVuSans-32"/>
      </g>
     </g>
    </g>
    <g id="xtick_2">
     <g id="line2d_2">
      <g>
       <use xlink:href="#m22ff4f60bc" x="227.406215" y="302.8" style="stroke: #000000; stroke-width: 0.8"/>
      </g>
     </g>
     <g id="text_2">
      <!-- 4 -->
      <g transform="translate(222.952465 320.437813) scale(0.14 -0.14)">
       <defs>
        <path id="DejaVuSans-34" d="M 2419 4116 
L 825 1625 
L 2419 1625 
L 2419 4116 
z
M 2253 4666 
L 3047 4666 
L 3047 1625 
L 3713 1625 
L 3713 1100 
L 3047 1100 
L 3047 0 
L 2419 0 
L 2419 1100 
L 313 1100 
L 313 1709 
L 2253 4666 
z
" transform="scale(0.015625)"/>
       </defs>
       <use xlink:href="#DejaVuSans-34"/>
      </g>
     </g>
    </g>
    <g id="xtick_3">
     <g id="line2d_3">
      <g>
       <use xlink:href="#m22ff4f60bc" x="322.283317" y="302.8" style="stroke: #000000; stroke-width: 0.8"/>
      </g>
     </g>
     <g id="text_3">
      <!-- 6 -->
      <g transform="translate(317.829567 320.437813) scale(0.14 -0.14)">
       <defs>
        <path id="DejaVuSans-36" d="M 2113 2584 
Q 1688 2584 1439 2293 
Q 1191 2003 1191 1497 
Q 1191 994 1439 701 
Q 1688 409 2113 409 
Q 2538 409 2786 701 
Q 3034 994 3034 1497 
Q 3034 2003 2786 2293 
Q 2538 2584 2113 2584 
z
M 3366 4563 
L 3366 3988 
Q 3128 4100 2886 4159 
Q 2644 4219 2406 4219 
Q 1781 4219 1451 3797 
Q 1122 3375 1075 2522 
Q 1259 2794 1537 2939 
Q 1816 3084 2150 3084 
Q 2853 3084 3261 2657 
Q 3669 2231 3669 1497 
Q 3669 778 3244 343 
Q 2819 -91 2113 -91 
Q 1303 -91 875 529 
Q 447 1150 447 2328 
Q 447 3434 972 4092 
Q 1497 4750 2381 4750 
Q 2619 4750 2861 4703 
Q 3103 4656 3366 4563 
z
" transform="scale(0.015625)"/>
       </defs>
       <use xlink:href="#DejaVuSans-36"/>
      </g>
     </g>
    </g>
    <g id="xtick_4">
     <g id="line2d_4">
      <g>
       <use xlink:href="#m22ff4f60bc" x="417.160419" y="302.8" style="stroke: #000000; stroke-width: 0.8"/>
      </g>
     </g>
     <g id="text_4">
      <!-- 8 -->
      <g transform="translate(412.706669 320.437813) scale(0.14 -0.14)">
       <defs>
        <path id="DejaVuSans-38" d="M 2034 2216 
Q 1584 2216 1326 1975 
Q 1069 1734 1069 1313 
Q 1069 891 1326 650 
Q 1584 409 2034 409 
Q 2484 409 2743 651 
Q 3003 894 3003 1313 
Q 3003 1734 2745 1975 
Q 2488 2216 2034 2216 
z
M 1403 2484 
Q 997 2584 770 2862 
Q 544 3141 544 3541 
Q 544 4100 942 4425 
Q 1341 4750 2034 4750 
Q 2731 4750 3128 4425 
Q 3525 4100 3525 3541 
Q 3525 3141 3298 2862 
Q 3072 2584 2669 2484 
Q 3125 2378 3379 2068 
Q 3634 1759 3634 1313 
Q 3634 634 3220 271 
Q 2806 -91 2034 -91 
Q 1263 -91 848 271 
Q 434 634 434 1313 
Q 434 1759 690 2068 
Q 947 2378 1403 2484 
z
M 1172 3481 
Q 1172 3119 1398 2916 
Q 1625 2713 2034 2713 
Q 2441 2713 2670 2916 
Q 2900 3119 2900 3481 
Q 2900 3844 2670 4047 
Q 2441 4250 2034 4250 
Q 1625 4250 1398 4047 
Q 1172 3844 1172 3481 
z
" transform="scale(0.015625)"/>
       </defs>
       <use xlink:href="#DejaVuSans-38"/>
      </g>
     </g>
    </g>
    <g id="text_5">
     <!-- Magnet height  $z$  [mm] -->
     <g transform="translate(164.03 339.509375) scale(0.16 -0.16)">
      <defs>
       <path id="DejaVuSans-Bold-4d" d="M 588 4666 
L 2119 4666 
L 3181 2169 
L 4250 4666 
L 5778 4666 
L 5778 0 
L 4641 0 
L 4641 3413 
L 3566 897 
L 2803 897 
L 1728 3413 
L 1728 0 
L 588 0 
L 588 4666 
z
" transform="scale(0.015625)"/>
       <path id="DejaVuSans-Bold-61" d="M 2106 1575 
Q 1756 1575 1579 1456 
Q 1403 1338 1403 1106 
Q 1403 894 1545 773 
Q 1688 653 1941 653 
Q 2256 653 2472 879 
Q 2688 1106 2688 1447 
L 2688 1575 
L 2106 1575 
z
M 3816 1997 
L 3816 0 
L 2688 0 
L 2688 519 
Q 2463 200 2181 54 
Q 1900 -91 1497 -91 
Q 953 -91 614 226 
Q 275 544 275 1050 
Q 275 1666 698 1953 
Q 1122 2241 2028 2241 
L 2688 2241 
L 2688 2328 
Q 2688 2594 2478 2717 
Q 2269 2841 1825 2841 
Q 1466 2841 1156 2769 
Q 847 2697 581 2553 
L 581 3406 
Q 941 3494 1303 3539 
Q 1666 3584 2028 3584 
Q 2975 3584 3395 3211 
Q 3816 2838 3816 1997 
z
" transform="scale(0.015625)"/>
       <path id="DejaVuSans-Bold-67" d="M 2919 594 
Q 2688 288 2409 144 
Q 2131 0 1766 0 
Q 1125 0 706 504 
Q 288 1009 288 1791 
Q 288 2575 706 3076 
Q 1125 3578 1766 3578 
Q 2131 3578 2409 3434 
Q 2688 3291 2919 2981 
L 2919 3500 
L 4044 3500 
L 4044 353 
Q 4044 -491 3511 -936 
Q 2978 -1381 1966 -1381 
Q 1638 -1381 1331 -1331 
Q 1025 -1281 716 -1178 
L 716 -306 
Q 1009 -475 1290 -558 
Q 1572 -641 1856 -641 
Q 2406 -641 2662 -400 
Q 2919 -159 2919 353 
L 2919 594 
z
M 2181 2772 
Q 1834 2772 1640 2515 
Q 1447 2259 1447 1791 
Q 1447 1309 1634 1061 
Q 1822 813 2181 813 
Q 2531 813 2725 1069 
Q 2919 1325 2919 1791 
Q 2919 2259 2725 2515 
Q 2531 2772 2181 2772 
z
" transform="scale(0.015625)"/>
       <path id="DejaVuSans-Bold-6e" d="M 4056 2131 
L 4056 0 
L 2931 0 
L 2931 347 
L 2931 1631 
Q 2931 2084 2911 2256 
Q 2891 2428 2841 2509 
Q 2775 2619 2662 2680 
Q 2550 2741 2406 2741 
Q 2056 2741 1856 2470 
Q 1656 2200 1656 1722 
L 1656 0 
L 538 0 
L 538 3500 
L 1656 3500 
L 1656 2988 
Q 1909 3294 2193 3439 
Q 2478 3584 2822 3584 
Q 3428 3584 3742 3212 
Q 4056 2841 4056 2131 
z
" transform="scale(0.015625)"/>
       <path id="DejaVuSans-Bold-65" d="M 4031 1759 
L 4031 1441 
L 1416 1441 
Q 1456 1047 1700 850 
Q 1944 653 2381 653 
Q 2734 653 3104 758 
Q 3475 863 3866 1075 
L 3866 213 
Q 3469 63 3072 -14 
Q 2675 -91 2278 -91 
Q 1328 -91 801 392 
Q 275 875 275 1747 
Q 275 2603 792 3093 
Q 1309 3584 2216 3584 
Q 3041 3584 3536 3087 
Q 4031 2591 4031 1759 
z
M 2881 2131 
Q 2881 2450 2695 2645 
Q 2509 2841 2209 2841 
Q 1884 2841 1681 2658 
Q 1478 2475 1428 2131 
L 2881 2131 
z
" transform="scale(0.015625)"/>
       <path id="DejaVuSans-Bold-74" d="M 1759 4494 
L 1759 3500 
L 2913 3500 
L 2913 2700 
L 1759 2700 
L 1759 1216 
Q 1759 972 1856 886 
Q 1953 800 2241 800 
L 2816 800 
L 2816 0 
L 1856 0 
Q 1194 0 917 276 
Q 641 553 641 1216 
L 641 2700 
L 84 2700 
L 84 3500 
L 641 3500 
L 641 4494 
L 1759 4494 
z
" transform="scale(0.015625)"/>
       <path id="DejaVuSans-Bold-20" transform="scale(0.015625)"/>
       <path id="DejaVuSans-Bold-68" d="M 4056 2131 
L 4056 0 
L 2931 0 
L 2931 347 
L 2931 1625 
Q 2931 2084 2911 2256 
Q 2891 2428 2841 2509 
Q 2775 2619 2662 2680 
Q 2550 2741 2406 2741 
Q 2056 2741 1856 2470 
Q 1656 2200 1656 1722 
L 1656 0 
L 538 0 
L 538 4863 
L 1656 4863 
L 1656 2988 
Q 1909 3294 2193 3439 
Q 2478 3584 2822 3584 
Q 3428 3584 3742 3212 
Q 4056 2841 4056 2131 
z
" transform="scale(0.015625)"/>
       <path id="DejaVuSans-Bold-69" d="M 538 3500 
L 1656 3500 
L 1656 0 
L 538 0 
L 538 3500 
z
M 538 4863 
L 1656 4863 
L 1656 3950 
L 538 3950 
L 538 4863 
z
" transform="scale(0.015625)"/>
       <path id="DejaVuSans-Oblique-7a" d="M 744 3500 
L 3475 3500 
L 3372 2975 
L 738 459 
L 2913 459 
L 2822 0 
L -19 0 
L 84 525 
L 2719 3041 
L 653 3041 
L 744 3500 
z
" transform="scale(0.015625)"/>
       <path id="DejaVuSans-Bold-5b" d="M 550 4863 
L 2491 4863 
L 2491 4159 
L 1613 4159 
L 1613 -141 
L 2491 -141 
L 2491 -844 
L 550 -844 
L 550 4863 
z
" transform="scale(0.015625)"/>
       <path id="DejaVuSans-Bold-6d" d="M 3781 2919 
Q 3994 3244 4286 3414 
Q 4578 3584 4928 3584 
Q 5531 3584 5847 3212 
Q 6163 2841 6163 2131 
L 6163 0 
L 5038 0 
L 5038 1825 
Q 5041 1866 5042 1909 
Q 5044 1953 5044 2034 
Q 5044 2406 4934 2573 
Q 4825 2741 4581 2741 
Q 4263 2741 4089 2478 
Q 3916 2216 3909 1719 
L 3909 0 
L 2784 0 
L 2784 1825 
Q 2784 2406 2684 2573 
Q 2584 2741 2328 2741 
Q 2006 2741 1831 2477 
Q 1656 2213 1656 1722 
L 1656 0 
L 531 0 
L 531 3500 
L 1656 3500 
L 1656 2988 
Q 1863 3284 2130 3434 
Q 2397 3584 2719 3584 
Q 3081 3584 3359 3409 
Q 3638 3234 3781 2919 
z
" transform="scale(0.015625)"/>
       <path id="DejaVuSans-Bold-5d" d="M 2375 -844 
L 434 -844 
L 434 -141 
L 1313 -141 
L 1313 4159 
L 434 4159 
L 434 4863 
L 2375 4863 
L 2375 -844 
z
" transform="scale(0.015625)"/>
      </defs>
      <use xlink:href="#DejaVuSans-Bold-4d" transform="translate(0 0.015625)"/>
      <use xlink:href="#DejaVuSans-Bold-61" transform="translate(99.511719 0.015625)"/>
      <use xlink:href="#DejaVuSans-Bold-67" transform="translate(166.992188 0.015625)"/>
      <use xlink:href="#DejaVuSans-Bold-6e" transform="translate(238.574219 0.015625)"/>
      <use xlink:href="#DejaVuSans-Bold-65" transform="translate(309.765625 0.015625)"/>
      <use xlink:href="#DejaVuSans-Bold-74" transform="translate(377.587891 0.015625)"/>
      <use xlink:href="#DejaVuSans-Bold-20" transform="translate(425.390625 0.015625)"/>
      <use xlink:href="#DejaVuSans-Bold-68" transform="translate(460.205078 0.015625)"/>
      <use xlink:href="#DejaVuSans-Bold-65" transform="translate(531.396484 0.015625)"/>
      <use xlink:href="#DejaVuSans-Bold-69" transform="translate(599.21875 0.015625)"/>
      <use xlink:href="#DejaVuSans-Bold-67" transform="translate(633.496094 0.015625)"/>
      <use xlink:href="#DejaVuSans-Bold-68" transform="translate(705.078125 0.015625)"/>
      <use xlink:href="#DejaVuSans-Bold-74" transform="translate(776.269531 0.015625)"/>
      <use xlink:href="#DejaVuSans-Bold-20" transform="translate(824.072266 0.015625)"/>
      <use xlink:href="#DejaVuSans-Bold-20" transform="translate(858.886719 0.015625)"/>
      <use xlink:href="#DejaVuSans-Oblique-7a" transform="translate(893.701172 0.015625)"/>
      <use xlink:href="#DejaVuSans-Bold-20" transform="translate(946.191406 0.015625)"/>
      <use xlink:href="#DejaVuSans-Bold-20" transform="translate(981.005859 0.015625)"/>
      <use xlink:href="#DejaVuSans-Bold-5b" transform="translate(1015.820312 0.015625)"/>
      <use xlink:href="#DejaVuSans-Bold-6d" transform="translate(1061.523438 0.015625)"/>
      <use xlink:href="#DejaVuSans-Bold-6d" transform="translate(1165.722656 0.015625)"/>
      <use xlink:href="#DejaVuSans-Bold-5d" transform="translate(1269.921875 0.015625)"/>
     </g>
    </g>
   </g>
   <g id="matplotlib.axis_2">
    <g id="ytick_1">
     <g id="line2d_5">
      <defs>
       <path id="m2913cd9477" d="M 0 0 
L -3.5 0 
" style="stroke: #000000; stroke-width: 0.8"/>
      </defs>
      <g>
       <use xlink:href="#m2913cd9477" x="51.535" y="289.785831" style="stroke: #000000; stroke-width: 0.8"/>
      </g>
     </g>
     <g id="text_6">
      <!-- 0 -->
      <g transform="translate(35.6275 295.104737) scale(0.14 -0.14)">
       <defs>
        <path id="DejaVuSans-30" d="M 2034 4250 
Q 1547 4250 1301 3770 
Q 1056 3291 1056 2328 
Q 1056 1369 1301 889 
Q 1547 409 2034 409 
Q 2525 409 2770 889 
Q 3016 1369 3016 2328 
Q 3016 3291 2770 3770 
Q 2525 4250 2034 4250 
z
M 2034 4750 
Q 2819 4750 3233 4129 
Q 3647 3509 3647 2328 
Q 3647 1150 3233 529 
Q 2819 -91 2034 -91 
Q 1250 -91 836 529 
Q 422 1150 422 2328 
Q 422 3509 836 4129 
Q 1250 4750 2034 4750 
z
" transform="scale(0.015625)"/>
       </defs>
       <use xlink:href="#DejaVuSans-30"/>
      </g>
     </g>
    </g>
    <g id="ytick_2">
     <g id="line2d_6">
      <g>
       <use xlink:href="#m2913cd9477" x="51.535" y="241.668269" style="stroke: #000000; stroke-width: 0.8"/>
      </g>
     </g>
     <g id="text_7">
      <!-- 10 -->
      <g transform="translate(26.72 246.987175) scale(0.14 -0.14)">
       <defs>
        <path id="DejaVuSans-31" d="M 794 531 
L 1825 531 
L 1825 4091 
L 703 3866 
L 703 4441 
L 1819 4666 
L 2450 4666 
L 2450 531 
L 3481 531 
L 3481 0 
L 794 0 
L 794 531 
z
" transform="scale(0.015625)"/>
       </defs>
       <use xlink:href="#DejaVuSans-31"/>
       <use xlink:href="#DejaVuSans-30" transform="translate(63.623047 0)"/>
      </g>
     </g>
    </g>
    <g id="ytick_3">
     <g id="line2d_7">
      <g>
       <use xlink:href="#m2913cd9477" x="51.535" y="193.550706" style="stroke: #000000; stroke-width: 0.8"/>
      </g>
     </g>
     <g id="text_8">
      <!-- 20 -->
      <g transform="translate(26.72 198.869612) scale(0.14 -0.14)">
       <use xlink:href="#DejaVuSans-32"/>
       <use xlink:href="#DejaVuSans-30" transform="translate(63.623047 0)"/>
      </g>
     </g>
    </g>
    <g id="ytick_4">
     <g id="line2d_8">
      <g>
       <use xlink:href="#m2913cd9477" x="51.535" y="145.433144" style="stroke: #000000; stroke-width: 0.8"/>
      </g>
     </g>
     <g id="text_9">
      <!-- 30 -->
      <g transform="translate(26.72 150.75205) scale(0.14 -0.14)">
       <defs>
        <path id="DejaVuSans-33" d="M 2597 2516 
Q 3050 2419 3304 2112 
Q 3559 1806 3559 1356 
Q 3559 666 3084 287 
Q 2609 -91 1734 -91 
Q 1441 -91 1130 -33 
Q 819 25 488 141 
L 488 750 
Q 750 597 1062 519 
Q 1375 441 1716 441 
Q 2309 441 2620 675 
Q 2931 909 2931 1356 
Q 2931 1769 2642 2001 
Q 2353 2234 1838 2234 
L 1294 2234 
L 1294 2753 
L 1863 2753 
Q 2328 2753 2575 2939 
Q 2822 3125 2822 3475 
Q 2822 3834 2567 4026 
Q 2313 4219 1838 4219 
Q 1578 4219 1281 4162 
Q 984 4106 628 3988 
L 628 4550 
Q 988 4650 1302 4700 
Q 1616 4750 1894 4750 
Q 2613 4750 3031 4423 
Q 3450 4097 3450 3541 
Q 3450 3153 3228 2886 
Q 3006 2619 2597 2516 
z
" transform="scale(0.015625)"/>
       </defs>
       <use xlink:href="#DejaVuSans-33"/>
       <use xlink:href="#DejaVuSans-30" transform="translate(63.623047 0)"/>
      </g>
     </g>
    </g>
    <g id="ytick_5">
     <g id="line2d_9">
      <g>
       <use xlink:href="#m2913cd9477" x="51.535" y="97.315582" style="stroke: #000000; stroke-width: 0.8"/>
      </g>
     </g>
     <g id="text_10">
      <!-- 40 -->
      <g transform="translate(26.72 102.634488) scale(0.14 -0.14)">
       <use xlink:href="#DejaVuSans-34"/>
       <use xlink:href="#DejaVuSans-30" transform="translate(63.623047 0)"/>
      </g>
     </g>
    </g>
    <g id="ytick_6">
     <g id="line2d_10">
      <g>
       <use xlink:href="#m2913cd9477" x="51.535" y="49.198019" style="stroke: #000000; stroke-width: 0.8"/>
      </g>
     </g>
     <g id="text_11">
      <!-- 50 -->
      <g transform="translate(26.72 54.516925) scale(0.14 -0.14)">
       <defs>
        <path id="DejaVuSans-35" d="M 691 4666 
L 3169 4666 
L 3169 4134 
L 1269 4134 
L 1269 2991 
Q 1406 3038 1543 3061 
Q 1681 3084 1819 3084 
Q 2600 3084 3056 2656 
Q 3513 2228 3513 1497 
Q 3513 744 3044 326 
Q 2575 -91 1722 -91 
Q 1428 -91 1123 -41 
Q 819 9 494 109 
L 494 744 
Q 775 591 1075 516 
Q 1375 441 1709 441 
Q 2250 441 2565 725 
Q 2881 1009 2881 1497 
Q 2881 1984 2565 2268 
Q 2250 2553 1709 2553 
Q 1456 2553 1204 2497 
Q 953 2441 691 2322 
L 691 4666 
z
" transform="scale(0.015625)"/>
       </defs>
       <use xlink:href="#DejaVuSans-35"/>
       <use xlink:href="#DejaVuSans-30" transform="translate(63.623047 0)"/>
      </g>
     </g>
    </g>
    <g id="text_12">
     <!-- $F_x$  [pN] -->
     <g transform="translate(19.36 188.44) rotate(-90) scale(0.16 -0.16)">
      <defs>
       <path id="DejaVuSans-Oblique-46" d="M 1081 4666 
L 3756 4666 
L 3653 4134 
L 1606 4134 
L 1338 2759 
L 3188 2759 
L 3084 2228 
L 1234 2228 
L 800 0 
L 172 0 
L 1081 4666 
z
" transform="scale(0.015625)"/>
       <path id="DejaVuSans-Oblique-78" d="M 3841 3500 
L 2234 1784 
L 3219 0 
L 2559 0 
L 1819 1388 
L 531 0 
L -166 0 
L 1556 1844 
L 641 3500 
L 1300 3500 
L 1972 2234 
L 3144 3500 
L 3841 3500 
z
" transform="scale(0.015625)"/>
       <path id="DejaVuSans-Bold-70" d="M 1656 506 
L 1656 -1331 
L 538 -1331 
L 538 3500 
L 1656 3500 
L 1656 2988 
Q 1888 3294 2169 3439 
Q 2450 3584 2816 3584 
Q 3463 3584 3878 3070 
Q 4294 2556 4294 1747 
Q 4294 938 3878 423 
Q 3463 -91 2816 -91 
Q 2450 -91 2169 54 
Q 1888 200 1656 506 
z
M 2400 2772 
Q 2041 2772 1848 2508 
Q 1656 2244 1656 1747 
Q 1656 1250 1848 986 
Q 2041 722 2400 722 
Q 2759 722 2948 984 
Q 3138 1247 3138 1747 
Q 3138 2247 2948 2509 
Q 2759 2772 2400 2772 
z
" transform="scale(0.015625)"/>
       <path id="DejaVuSans-Bold-4e" d="M 588 4666 
L 1931 4666 
L 3628 1466 
L 3628 4666 
L 4769 4666 
L 4769 0 
L 3425 0 
L 1728 3200 
L 1728 0 
L 588 0 
L 588 4666 
z
" transform="scale(0.015625)"/>
      </defs>
      <use xlink:href="#DejaVuSans-Oblique-46" transform="translate(0 0.015625)"/>
      <use xlink:href="#DejaVuSans-Oblique-78" transform="translate(57.519531 -16.390625) scale(0.7)"/>
      <use xlink:href="#DejaVuSans-Bold-20" transform="translate(101.679688 0.015625)"/>
      <use xlink:href="#DejaVuSans-Bold-20" transform="translate(136.494141 0.015625)"/>
      <use xlink:href="#DejaVuSans-Bold-5b" transform="translate(171.308594 0.015625)"/>
      <use xlink:href="#DejaVuSans-Bold-70" transform="translate(217.011719 0.015625)"/>
      <use xlink:href="#DejaVuSans-Bold-4e" transform="translate(288.59375 0.015625)"/>
      <use xlink:href="#DejaVuSans-Bold-5d" transform="translate(372.285156 0.015625)"/>
     </g>
    </g>
   </g>
   <g id="line2d_11">
    <path d="M 71.332727 113.448046 
L 87.936555 156.364753 
L 112.130144 199.547091 
L 129.681666 221.537519 
L 155.298657 243.852238 
L 200.838859 265.846446 
L 262.495775 280.087018 
L 309.452838 284.455061 
L 356.968131 287.209697 
L 467.287273 289.163312 
" clip-path="url(#ped0a27177d)" style="fill: none; stroke: #1f77b4; stroke-opacity: 0.7; stroke-linecap: square"/>
    <defs>
     <path id="m02fc1809ed" d="M 0 2 
C 0.530406 2 1.03916 1.789267 1.414214 1.414214 
C 1.789267 1.03916 2 0.530406 2 0 
C 2 -0.530406 1.789267 -1.03916 1.414214 -1.414214 
C 1.03916 -1.789267 0.530406 -2 0 -2 
C -0.530406 -2 -1.03916 -1.789267 -1.414214 -1.414214 
C -1.789267 -1.03916 -2 -0.530406 -2 0 
C -2 0.530406 -1.789267 1.03916 -1.414214 1.414214 
C -1.03916 1.789267 -0.530406 2 0 2 
z
" style="stroke: #1f77b4; stroke-opacity: 0.7"/>
    </defs>
    <g clip-path="url(#ped0a27177d)">
     <use xlink:href="#m02fc1809ed" x="71.332727" y="113.448046" style="fill: #1f77b4; fill-opacity: 0.7; stroke: #1f77b4; stroke-opacity: 0.7"/>
     <use xlink:href="#m02fc1809ed" x="87.936555" y="156.364753" style="fill: #1f77b4; fill-opacity: 0.7; stroke: #1f77b4; stroke-opacity: 0.7"/>
     <use xlink:href="#m02fc1809ed" x="112.130144" y="199.547091" style="fill: #1f77b4; fill-opacity: 0.7; stroke: #1f77b4; stroke-opacity: 0.7"/>
     <use xlink:href="#m02fc1809ed" x="129.681666" y="221.537519" style="fill: #1f77b4; fill-opacity: 0.7; stroke: #1f77b4; stroke-opacity: 0.7"/>
     <use xlink:href="#m02fc1809ed" x="155.298657" y="243.852238" style="fill: #1f77b4; fill-opacity: 0.7; stroke: #1f77b4; stroke-opacity: 0.7"/>
     <use xlink:href="#m02fc1809ed" x="200.838859" y="265.846446" style="fill: #1f77b4; fill-opacity: 0.7; stroke: #1f77b4; stroke-opacity: 0.7"/>
     <use xlink:href="#m02fc1809ed" x="262.495775" y="280.087018" style="fill: #1f77b4; fill-opacity: 0.7; stroke: #1f77b4; stroke-opacity: 0.7"/>
     <use xlink:href="#m02fc1809ed" x="309.452838" y="284.455061" style="fill: #1f77b4; fill-opacity: 0.7; stroke: #1f77b4; stroke-opacity: 0.7"/>
     <use xlink:href="#m02fc1809ed" x="356.968131" y="287.209697" style="fill: #1f77b4; fill-opacity: 0.7; stroke: #1f77b4; stroke-opacity: 0.7"/>
     <use xlink:href="#m02fc1809ed" x="467.287273" y="289.163312" style="fill: #1f77b4; fill-opacity: 0.7; stroke: #1f77b4; stroke-opacity: 0.7"/>
    </g>
   </g>
   <g id="line2d_12">
    <path clip-path="url(#ped0a27177d)" style="fill: none; stroke: #aec7e8; stroke-opacity: 0.7; stroke-linecap: square"/>
    <defs>
     <path id="m20a6f361b2" d="M 0 2 
C 0.530406 2 1.03916 1.789267 1.414214 1.414214 
C 1.789267 1.03916 2 0.530406 2 0 
C 2 -0.530406 1.789267 -1.03916 1.414214 -1.414214 
C 1.03916 -1.789267 0.530406 -2 0 -2 
C -0.530406 -2 -1.03916 -1.789267 -1.414214 -1.414214 
C -1.789267 -1.03916 -2 -0.530406 -2 0 
C -2 0.530406 -1.789267 1.03916 -1.414214 1.414214 
C -1.03916 1.789267 -0.530406 2 0 2 
z
" style="stroke: #aec7e8; stroke-opacity: 0.7"/>
    </defs>
    <g clip-path="url(#ped0a27177d)"/>
   </g>
   <g id="line2d_13">
    <path clip-path="url(#ped0a27177d)" style="fill: none; stroke: #ff7f0e; stroke-opacity: 0.7; stroke-linecap: square"/>
    <defs>
     <path id="mb336d6f58c" d="M 0 2 
C 0.530406 2 1.03916 1.789267 1.414214 1.414214 
C 1.789267 1.03916 2 0.530406 2 0 
C 2 -0.530406 1.789267 -1.03916 1.414214 -1.414214 
C 1.03916 -1.789267 0.530406 -2 0 -2 
C -0.530406 -2 -1.03916 -1.789267 -1.414214 -1.414214 
C -1.789267 -1.03916 -2 -0.530406 -2 0 
C -2 0.530406 -1.789267 1.03916 -1.414214 1.414214 
C -1.03916 1.789267 -0.530406 2 0 2 
z
" style="stroke: #ff7f0e; stroke-opacity: 0.7"/>
    </defs>
    <g clip-path="url(#ped0a27177d)"/>
   </g>
   <g id="line2d_14">
    <path d="M 112.130144 186.617169 
L 129.681666 214.068395 
L 155.298657 243.92953 
L 200.838859 264.165992 
L 262.495775 279.46736 
L 309.452838 284.970669 
L 356.968131 287.333496 
L 467.287273 289.363636 
" clip-path="url(#ped0a27177d)" style="fill: none; stroke: #ffbb78; stroke-opacity: 0.7; stroke-linecap: square"/>
    <defs>
     <path id="m9be023f577" d="M 0 2 
C 0.530406 2 1.03916 1.789267 1.414214 1.414214 
C 1.789267 1.03916 2 0.530406 2 0 
C 2 -0.530406 1.789267 -1.03916 1.414214 -1.414214 
C 1.03916 -1.789267 0.530406 -2 0 -2 
C -0.530406 -2 -1.03916 -1.789267 -1.414214 -1.414214 
C -1.789267 -1.03916 -2 -0.530406 -2 0 
C -2 0.530406 -1.789267 1.03916 -1.414214 1.414214 
C -1.03916 1.789267 -0.530406 2 0 2 
z
" style="stroke: #ffbb78; stroke-opacity: 0.7"/>
    </defs>
    <g clip-path="url(#ped0a27177d)">
     <use xlink:href="#m9be023f577" x="112.130144" y="186.617169" style="fill: #ffbb78; fill-opacity: 0.7; stroke: #ffbb78; stroke-opacity: 0.7"/>
     <use xlink:href="#m9be023f577" x="129.681666" y="214.068395" style="fill: #ffbb78; fill-opacity: 0.7; stroke: #ffbb78; stroke-opacity: 0.7"/>
     <use xlink:href="#m9be023f577" x="155.298657" y="243.92953" style="fill: #ffbb78; fill-opacity: 0.7; stroke: #ffbb78; stroke-opacity: 0.7"/>
     <use xlink:href="#m9be023f577" x="200.838859" y="264.165992" style="fill: #ffbb78; fill-opacity: 0.7; stroke: #ffbb78; stroke-opacity: 0.7"/>
     <use xlink:href="#m9be023f577" x="262.495775" y="279.46736" style="fill: #ffbb78; fill-opacity: 0.7; stroke: #ffbb78; stroke-opacity: 0.7"/>
     <use xlink:href="#m9be023f577" x="309.452838" y="284.970669" style="fill: #ffbb78; fill-opacity: 0.7; stroke: #ffbb78; stroke-opacity: 0.7"/>
     <use xlink:href="#m9be023f577" x="356.968131" y="287.333496" style="fill: #ffbb78; fill-opacity: 0.7; stroke: #ffbb78; stroke-opacity: 0.7"/>
     <use xlink:href="#m9be023f577" x="467.287273" y="289.363636" style="fill: #ffbb78; fill-opacity: 0.7; stroke: #ffbb78; stroke-opacity: 0.7"/>
    </g>
   </g>
   <g id="line2d_15">
    <path d="M 71.332727 116.64056 
L 87.936555 155.437548 
L 112.130144 194.449181 
L 129.681666 217.803049 
L 155.298657 241.271444 
L 200.838859 264.757564 
L 262.495775 279.292537 
L 309.452838 284.317036 
L 356.968131 287.067758 
L 467.287273 289.210263 
" clip-path="url(#ped0a27177d)" style="fill: none; stroke: #2ca02c; stroke-opacity: 0.7; stroke-linecap: square"/>
    <defs>
     <path id="m98d43b2ccd" d="M 0 2 
C 0.530406 2 1.03916 1.789267 1.414214 1.414214 
C 1.789267 1.03916 2 0.530406 2 0 
C 2 -0.530406 1.789267 -1.03916 1.414214 -1.414214 
C 1.03916 -1.789267 0.530406 -2 0 -2 
C -0.530406 -2 -1.03916 -1.789267 -1.414214 -1.414214 
C -1.789267 -1.03916 -2 -0.530406 -2 0 
C -2 0.530406 -1.789267 1.03916 -1.414214 1.414214 
C -1.03916 1.789267 -0.530406 2 0 2 
z
" style="stroke: #2ca02c; stroke-opacity: 0.7"/>
    </defs>
    <g clip-path="url(#ped0a27177d)">
     <use xlink:href="#m98d43b2ccd" x="71.332727" y="116.64056" style="fill: #2ca02c; fill-opacity: 0.7; stroke: #2ca02c; stroke-opacity: 0.7"/>
     <use xlink:href="#m98d43b2ccd" x="87.936555" y="155.437548" style="fill: #2ca02c; fill-opacity: 0.7; stroke: #2ca02c; stroke-opacity: 0.7"/>
     <use xlink:href="#m98d43b2ccd" x="112.130144" y="194.449181" style="fill: #2ca02c; fill-opacity: 0.7; stroke: #2ca02c; stroke-opacity: 0.7"/>
     <use xlink:href="#m98d43b2ccd" x="129.681666" y="217.803049" style="fill: #2ca02c; fill-opacity: 0.7; stroke: #2ca02c; stroke-opacity: 0.7"/>
     <use xlink:href="#m98d43b2ccd" x="155.298657" y="241.271444" style="fill: #2ca02c; fill-opacity: 0.7; stroke: #2ca02c; stroke-opacity: 0.7"/>
     <use xlink:href="#m98d43b2ccd" x="200.838859" y="264.757564" style="fill: #2ca02c; fill-opacity: 0.7; stroke: #2ca02c; stroke-opacity: 0.7"/>
     <use xlink:href="#m98d43b2ccd" x="262.495775" y="279.292537" style="fill: #2ca02c; fill-opacity: 0.7; stroke: #2ca02c; stroke-opacity: 0.7"/>
     <use xlink:href="#m98d43b2ccd" x="309.452838" y="284.317036" style="fill: #2ca02c; fill-opacity: 0.7; stroke: #2ca02c; stroke-opacity: 0.7"/>
     <use xlink:href="#m98d43b2ccd" x="356.968131" y="287.067758" style="fill: #2ca02c; fill-opacity: 0.7; stroke: #2ca02c; stroke-opacity: 0.7"/>
     <use xlink:href="#m98d43b2ccd" x="467.287273" y="289.210263" style="fill: #2ca02c; fill-opacity: 0.7; stroke: #2ca02c; stroke-opacity: 0.7"/>
    </g>
   </g>
   <g id="line2d_16">
    <path clip-path="url(#ped0a27177d)" style="fill: none; stroke: #98df8a; stroke-opacity: 0.7; stroke-linecap: square"/>
    <defs>
     <path id="mf8ac576443" d="M 0 2 
C 0.530406 2 1.03916 1.789267 1.414214 1.414214 
C 1.789267 1.03916 2 0.530406 2 0 
C 2 -0.530406 1.789267 -1.03916 1.414214 -1.414214 
C 1.03916 -1.789267 0.530406 -2 0 -2 
C -0.530406 -2 -1.03916 -1.789267 -1.414214 -1.414214 
C -1.789267 -1.03916 -2 -0.530406 -2 0 
C -2 0.530406 -1.789267 1.03916 -1.414214 1.414214 
C -1.03916 1.789267 -0.530406 2 0 2 
z
" style="stroke: #98df8a; stroke-opacity: 0.7"/>
    </defs>
    <g clip-path="url(#ped0a27177d)"/>
   </g>
   <g id="line2d_17">
    <path clip-path="url(#ped0a27177d)" style="fill: none; stroke: #d62728; stroke-opacity: 0.7; stroke-linecap: square"/>
    <defs>
     <path id="m0dbd318417" d="M 0 2 
C 0.530406 2 1.03916 1.789267 1.414214 1.414214 
C 1.789267 1.03916 2 0.530406 2 0 
C 2 -0.530406 1.789267 -1.03916 1.414214 -1.414214 
C 1.03916 -1.789267 0.530406 -2 0 -2 
C -0.530406 -2 -1.03916 -1.789267 -1.414214 -1.414214 
C -1.789267 -1.03916 -2 -0.530406 -2 0 
C -2 0.530406 -1.789267 1.03916 -1.414214 1.414214 
C -1.03916 1.789267 -0.530406 2 0 2 
z
" style="stroke: #d62728; stroke-opacity: 0.7"/>
    </defs>
    <g clip-path="url(#ped0a27177d)"/>
   </g>
   <g id="line2d_18">
    <path clip-path="url(#ped0a27177d)" style="fill: none; stroke: #ff9896; stroke-opacity: 0.7; stroke-linecap: square"/>
    <defs>
     <path id="m8a283ef53d" d="M 0 2 
C 0.530406 2 1.03916 1.789267 1.414214 1.414214 
C 1.789267 1.03916 2 0.530406 2 0 
C 2 -0.530406 1.789267 -1.03916 1.414214 -1.414214 
C 1.03916 -1.789267 0.530406 -2 0 -2 
C -0.530406 -2 -1.03916 -1.789267 -1.414214 -1.414214 
C -1.789267 -1.03916 -2 -0.530406 -2 0 
C -2 0.530406 -1.789267 1.03916 -1.414214 1.414214 
C -1.03916 1.789267 -0.530406 2 0 2 
z
" style="stroke: #ff9896; stroke-opacity: 0.7"/>
    </defs>
    <g clip-path="url(#ped0a27177d)"/>
   </g>
   <g id="line2d_19">
    <path d="M 87.936555 141.003431 
L 112.130144 190.281898 
L 129.681666 215.838109 
L 155.298657 239.006477 
L 200.838859 264.571072 
L 262.495775 279.205212 
L 309.452838 284.095866 
L 356.968131 287.040054 
L 467.287273 289.287107 
" clip-path="url(#ped0a27177d)" style="fill: none; stroke: #9467bd; stroke-opacity: 0.7; stroke-linecap: square"/>
    <defs>
     <path id="m7084c1b1fb" d="M 0 2 
C 0.530406 2 1.03916 1.789267 1.414214 1.414214 
C 1.789267 1.03916 2 0.530406 2 0 
C 2 -0.530406 1.789267 -1.03916 1.414214 -1.414214 
C 1.03916 -1.789267 0.530406 -2 0 -2 
C -0.530406 -2 -1.03916 -1.789267 -1.414214 -1.414214 
C -1.789267 -1.03916 -2 -0.530406 -2 0 
C -2 0.530406 -1.789267 1.03916 -1.414214 1.414214 
C -1.03916 1.789267 -0.530406 2 0 2 
z
" style="stroke: #9467bd; stroke-opacity: 0.7"/>
    </defs>
    <g clip-path="url(#ped0a27177d)">
     <use xlink:href="#m7084c1b1fb" x="87.936555" y="141.003431" style="fill: #9467bd; fill-opacity: 0.7; stroke: #9467bd; stroke-opacity: 0.7"/>
     <use xlink:href="#m7084c1b1fb" x="112.130144" y="190.281898" style="fill: #9467bd; fill-opacity: 0.7; stroke: #9467bd; stroke-opacity: 0.7"/>
     <use xlink:href="#m7084c1b1fb" x="129.681666" y="215.838109" style="fill: #9467bd; fill-opacity: 0.7; stroke: #9467bd; stroke-opacity: 0.7"/>
     <use xlink:href="#m7084c1b1fb" x="155.298657" y="239.006477" style="fill: #9467bd; fill-opacity: 0.7; stroke: #9467bd; stroke-opacity: 0.7"/>
     <use xlink:href="#m7084c1b1fb" x="200.838859" y="264.571072" style="fill: #9467bd; fill-opacity: 0.7; stroke: #9467bd; stroke-opacity: 0.7"/>
     <use xlink:href="#m7084c1b1fb" x="262.495775" y="279.205212" style="fill: #9467bd; fill-opacity: 0.7; stroke: #9467bd; stroke-opacity: 0.7"/>
     <use xlink:href="#m7084c1b1fb" x="309.452838" y="284.095866" style="fill: #9467bd; fill-opacity: 0.7; stroke: #9467bd; stroke-opacity: 0.7"/>
     <use xlink:href="#m7084c1b1fb" x="356.968131" y="287.040054" style="fill: #9467bd; fill-opacity: 0.7; stroke: #9467bd; stroke-opacity: 0.7"/>
     <use xlink:href="#m7084c1b1fb" x="467.287273" y="289.287107" style="fill: #9467bd; fill-opacity: 0.7; stroke: #9467bd; stroke-opacity: 0.7"/>
    </g>
   </g>
   <g id="line2d_20">
    <path d="M 71.332727 100.567404 
L 87.936555 149.044874 
L 112.130144 185.445182 
L 129.681666 213.099941 
L 155.298657 238.168228 
L 200.838859 263.352726 
L 262.495775 279.07677 
L 309.452838 284.029114 
L 356.968131 286.674531 
L 467.287273 289.191458 
" clip-path="url(#ped0a27177d)" style="fill: none; stroke: #c5b0d5; stroke-opacity: 0.7; stroke-linecap: square"/>
    <defs>
     <path id="m5fac5c902f" d="M 0 2 
C 0.530406 2 1.03916 1.789267 1.414214 1.414214 
C 1.789267 1.03916 2 0.530406 2 0 
C 2 -0.530406 1.789267 -1.03916 1.414214 -1.414214 
C 1.03916 -1.789267 0.530406 -2 0 -2 
C -0.530406 -2 -1.03916 -1.789267 -1.414214 -1.414214 
C -1.789267 -1.03916 -2 -0.530406 -2 0 
C -2 0.530406 -1.789267 1.03916 -1.414214 1.414214 
C -1.03916 1.789267 -0.530406 2 0 2 
z
" style="stroke: #c5b0d5; stroke-opacity: 0.7"/>
    </defs>
    <g clip-path="url(#ped0a27177d)">
     <use xlink:href="#m5fac5c902f" x="71.332727" y="100.567404" style="fill: #c5b0d5; fill-opacity: 0.7; stroke: #c5b0d5; stroke-opacity: 0.7"/>
     <use xlink:href="#m5fac5c902f" x="87.936555" y="149.044874" style="fill: #c5b0d5; fill-opacity: 0.7; stroke: #c5b0d5; stroke-opacity: 0.7"/>
     <use xlink:href="#m5fac5c902f" x="112.130144" y="185.445182" style="fill: #c5b0d5; fill-opacity: 0.7; stroke: #c5b0d5; stroke-opacity: 0.7"/>
     <use xlink:href="#m5fac5c902f" x="129.681666" y="213.099941" style="fill: #c5b0d5; fill-opacity: 0.7; stroke: #c5b0d5; stroke-opacity: 0.7"/>
     <use xlink:href="#m5fac5c902f" x="155.298657" y="238.168228" style="fill: #c5b0d5; fill-opacity: 0.7; stroke: #c5b0d5; stroke-opacity: 0.7"/>
     <use xlink:href="#m5fac5c902f" x="200.838859" y="263.352726" style="fill: #c5b0d5; fill-opacity: 0.7; stroke: #c5b0d5; stroke-opacity: 0.7"/>
     <use xlink:href="#m5fac5c902f" x="262.495775" y="279.07677" style="fill: #c5b0d5; fill-opacity: 0.7; stroke: #c5b0d5; stroke-opacity: 0.7"/>
     <use xlink:href="#m5fac5c902f" x="309.452838" y="284.029114" style="fill: #c5b0d5; fill-opacity: 0.7; stroke: #c5b0d5; stroke-opacity: 0.7"/>
     <use xlink:href="#m5fac5c902f" x="356.968131" y="286.674531" style="fill: #c5b0d5; fill-opacity: 0.7; stroke: #c5b0d5; stroke-opacity: 0.7"/>
     <use xlink:href="#m5fac5c902f" x="467.287273" y="289.191458" style="fill: #c5b0d5; fill-opacity: 0.7; stroke: #c5b0d5; stroke-opacity: 0.7"/>
    </g>
   </g>
   <g id="line2d_21">
    <path d="M 71.332727 73.168574 
L 87.936555 129.983628 
L 112.130144 175.728184 
L 129.681666 204.870764 
L 155.298657 234.584723 
L 200.838859 262.641878 
L 262.495775 278.741099 
L 309.452838 283.953483 
L 356.968131 286.772433 
L 467.287273 289.208773 
" clip-path="url(#ped0a27177d)" style="fill: none; stroke: #8c564b; stroke-opacity: 0.7; stroke-linecap: square"/>
    <defs>
     <path id="ma8804c54a8" d="M 0 2 
C 0.530406 2 1.03916 1.789267 1.414214 1.414214 
C 1.789267 1.03916 2 0.530406 2 0 
C 2 -0.530406 1.789267 -1.03916 1.414214 -1.414214 
C 1.03916 -1.789267 0.530406 -2 0 -2 
C -0.530406 -2 -1.03916 -1.789267 -1.414214 -1.414214 
C -1.789267 -1.03916 -2 -0.530406 -2 0 
C -2 0.530406 -1.789267 1.03916 -1.414214 1.414214 
C -1.03916 1.789267 -0.530406 2 0 2 
z
" style="stroke: #8c564b; stroke-opacity: 0.7"/>
    </defs>
    <g clip-path="url(#ped0a27177d)">
     <use xlink:href="#ma8804c54a8" x="71.332727" y="73.168574" style="fill: #8c564b; fill-opacity: 0.7; stroke: #8c564b; stroke-opacity: 0.7"/>
     <use xlink:href="#ma8804c54a8" x="87.936555" y="129.983628" style="fill: #8c564b; fill-opacity: 0.7; stroke: #8c564b; stroke-opacity: 0.7"/>
     <use xlink:href="#ma8804c54a8" x="112.130144" y="175.728184" style="fill: #8c564b; fill-opacity: 0.7; stroke: #8c564b; stroke-opacity: 0.7"/>
     <use xlink:href="#ma8804c54a8" x="129.681666" y="204.870764" style="fill: #8c564b; fill-opacity: 0.7; stroke: #8c564b; stroke-opacity: 0.7"/>
     <use xlink:href="#ma8804c54a8" x="155.298657" y="234.584723" style="fill: #8c564b; fill-opacity: 0.7; stroke: #8c564b; stroke-opacity: 0.7"/>
     <use xlink:href="#ma8804c54a8" x="200.838859" y="262.641878" style="fill: #8c564b; fill-opacity: 0.7; stroke: #8c564b; stroke-opacity: 0.7"/>
     <use xlink:href="#ma8804c54a8" x="262.495775" y="278.741099" style="fill: #8c564b; fill-opacity: 0.7; stroke: #8c564b; stroke-opacity: 0.7"/>
     <use xlink:href="#ma8804c54a8" x="309.452838" y="283.953483" style="fill: #8c564b; fill-opacity: 0.7; stroke: #8c564b; stroke-opacity: 0.7"/>
     <use xlink:href="#ma8804c54a8" x="356.968131" y="286.772433" style="fill: #8c564b; fill-opacity: 0.7; stroke: #8c564b; stroke-opacity: 0.7"/>
     <use xlink:href="#ma8804c54a8" x="467.287273" y="289.208773" style="fill: #8c564b; fill-opacity: 0.7; stroke: #8c564b; stroke-opacity: 0.7"/>
    </g>
   </g>
   <g id="line2d_22">
    <path d="M 71.332727 94.908745 
L 87.936555 144.267634 
L 112.130144 191.058902 
L 129.681666 215.242741 
L 155.298657 246.449423 
L 200.838859 262.902733 
L 262.495775 278.01971 
L 309.452838 283.73674 
L 356.968131 286.832773 
L 467.287273 289.180301 
" clip-path="url(#ped0a27177d)" style="fill: none; stroke: #c49c94; stroke-opacity: 0.7; stroke-linecap: square"/>
    <defs>
     <path id="m21a32aa6d2" d="M 0 2 
C 0.530406 2 1.03916 1.789267 1.414214 1.414214 
C 1.789267 1.03916 2 0.530406 2 0 
C 2 -0.530406 1.789267 -1.03916 1.414214 -1.414214 
C 1.03916 -1.789267 0.530406 -2 0 -2 
C -0.530406 -2 -1.03916 -1.789267 -1.414214 -1.414214 
C -1.789267 -1.03916 -2 -0.530406 -2 0 
C -2 0.530406 -1.789267 1.03916 -1.414214 1.414214 
C -1.03916 1.789267 -0.530406 2 0 2 
z
" style="stroke: #c49c94; stroke-opacity: 0.7"/>
    </defs>
    <g clip-path="url(#ped0a27177d)">
     <use xlink:href="#m21a32aa6d2" x="71.332727" y="94.908745" style="fill: #c49c94; fill-opacity: 0.7; stroke: #c49c94; stroke-opacity: 0.7"/>
     <use xlink:href="#m21a32aa6d2" x="87.936555" y="144.267634" style="fill: #c49c94; fill-opacity: 0.7; stroke: #c49c94; stroke-opacity: 0.7"/>
     <use xlink:href="#m21a32aa6d2" x="112.130144" y="191.058902" style="fill: #c49c94; fill-opacity: 0.7; stroke: #c49c94; stroke-opacity: 0.7"/>
     <use xlink:href="#m21a32aa6d2" x="129.681666" y="215.242741" style="fill: #c49c94; fill-opacity: 0.7; stroke: #c49c94; stroke-opacity: 0.7"/>
     <use xlink:href="#m21a32aa6d2" x="155.298657" y="246.449423" style="fill: #c49c94; fill-opacity: 0.7; stroke: #c49c94; stroke-opacity: 0.7"/>
     <use xlink:href="#m21a32aa6d2" x="200.838859" y="262.902733" style="fill: #c49c94; fill-opacity: 0.7; stroke: #c49c94; stroke-opacity: 0.7"/>
     <use xlink:href="#m21a32aa6d2" x="262.495775" y="278.01971" style="fill: #c49c94; fill-opacity: 0.7; stroke: #c49c94; stroke-opacity: 0.7"/>
     <use xlink:href="#m21a32aa6d2" x="309.452838" y="283.73674" style="fill: #c49c94; fill-opacity: 0.7; stroke: #c49c94; stroke-opacity: 0.7"/>
     <use xlink:href="#m21a32aa6d2" x="356.968131" y="286.832773" style="fill: #c49c94; fill-opacity: 0.7; stroke: #c49c94; stroke-opacity: 0.7"/>
     <use xlink:href="#m21a32aa6d2" x="467.287273" y="289.180301" style="fill: #c49c94; fill-opacity: 0.7; stroke: #c49c94; stroke-opacity: 0.7"/>
    </g>
   </g>
   <g id="line2d_23">
    <path d="M 112.130144 189.024293 
L 129.681666 211.842982 
L 155.298657 237.005297 
L 200.838859 261.482728 
L 262.495775 278.603523 
L 309.452838 283.86498 
L 356.968131 286.747503 
L 467.287273 289.138159 
" clip-path="url(#ped0a27177d)" style="fill: none; stroke: #e377c2; stroke-opacity: 0.7; stroke-linecap: square"/>
    <defs>
     <path id="m7a0b83fffe" d="M 0 2 
C 0.530406 2 1.03916 1.789267 1.414214 1.414214 
C 1.789267 1.03916 2 0.530406 2 0 
C 2 -0.530406 1.789267 -1.03916 1.414214 -1.414214 
C 1.03916 -1.789267 0.530406 -2 0 -2 
C -0.530406 -2 -1.03916 -1.789267 -1.414214 -1.414214 
C -1.789267 -1.03916 -2 -0.530406 -2 0 
C -2 0.530406 -1.789267 1.03916 -1.414214 1.414214 
C -1.03916 1.789267 -0.530406 2 0 2 
z
" style="stroke: #e377c2; stroke-opacity: 0.7"/>
    </defs>
    <g clip-path="url(#ped0a27177d)">
     <use xlink:href="#m7a0b83fffe" x="112.130144" y="189.024293" style="fill: #e377c2; fill-opacity: 0.7; stroke: #e377c2; stroke-opacity: 0.7"/>
     <use xlink:href="#m7a0b83fffe" x="129.681666" y="211.842982" style="fill: #e377c2; fill-opacity: 0.7; stroke: #e377c2; stroke-opacity: 0.7"/>
     <use xlink:href="#m7a0b83fffe" x="155.298657" y="237.005297" style="fill: #e377c2; fill-opacity: 0.7; stroke: #e377c2; stroke-opacity: 0.7"/>
     <use xlink:href="#m7a0b83fffe" x="200.838859" y="261.482728" style="fill: #e377c2; fill-opacity: 0.7; stroke: #e377c2; stroke-opacity: 0.7"/>
     <use xlink:href="#m7a0b83fffe" x="262.495775" y="278.603523" style="fill: #e377c2; fill-opacity: 0.7; stroke: #e377c2; stroke-opacity: 0.7"/>
     <use xlink:href="#m7a0b83fffe" x="309.452838" y="283.86498" style="fill: #e377c2; fill-opacity: 0.7; stroke: #e377c2; stroke-opacity: 0.7"/>
     <use xlink:href="#m7a0b83fffe" x="356.968131" y="286.747503" style="fill: #e377c2; fill-opacity: 0.7; stroke: #e377c2; stroke-opacity: 0.7"/>
     <use xlink:href="#m7a0b83fffe" x="467.287273" y="289.138159" style="fill: #e377c2; fill-opacity: 0.7; stroke: #e377c2; stroke-opacity: 0.7"/>
    </g>
   </g>
   <g id="line2d_24">
    <path clip-path="url(#ped0a27177d)" style="fill: none; stroke: #f7b6d2; stroke-opacity: 0.7; stroke-linecap: square"/>
    <defs>
     <path id="mfd5afe1422" d="M 0 2 
C 0.530406 2 1.03916 1.789267 1.414214 1.414214 
C 1.789267 1.03916 2 0.530406 2 0 
C 2 -0.530406 1.789267 -1.03916 1.414214 -1.414214 
C 1.03916 -1.789267 0.530406 -2 0 -2 
C -0.530406 -2 -1.03916 -1.789267 -1.414214 -1.414214 
C -1.789267 -1.03916 -2 -0.530406 -2 0 
C -2 0.530406 -1.789267 1.03916 -1.414214 1.414214 
C -1.03916 1.789267 -0.530406 2 0 2 
z
" style="stroke: #f7b6d2; stroke-opacity: 0.7"/>
    </defs>
    <g clip-path="url(#ped0a27177d)"/>
   </g>
   <g id="line2d_25">
    <path d="M 71.332727 20.636364 
L 87.936555 117.433625 
L 112.130144 189.996487 
L 129.681666 213.813858 
L 155.298657 236.710936 
L 200.838859 264.708303 
L 262.495775 279.429067 
L 309.452838 284.447794 
L 356.968131 286.912292 
L 467.287273 289.273553 
" clip-path="url(#ped0a27177d)" style="fill: none; stroke: #7f7f7f; stroke-opacity: 0.7; stroke-linecap: square"/>
    <defs>
     <path id="me7901d93eb" d="M 0 2 
C 0.530406 2 1.03916 1.789267 1.414214 1.414214 
C 1.789267 1.03916 2 0.530406 2 0 
C 2 -0.530406 1.789267 -1.03916 1.414214 -1.414214 
C 1.03916 -1.789267 0.530406 -2 0 -2 
C -0.530406 -2 -1.03916 -1.789267 -1.414214 -1.414214 
C -1.789267 -1.03916 -2 -0.530406 -2 0 
C -2 0.530406 -1.789267 1.03916 -1.414214 1.414214 
C -1.03916 1.789267 -0.530406 2 0 2 
z
" style="stroke: #7f7f7f; stroke-opacity: 0.7"/>
    </defs>
    <g clip-path="url(#ped0a27177d)">
     <use xlink:href="#me7901d93eb" x="71.332727" y="20.636364" style="fill: #7f7f7f; fill-opacity: 0.7; stroke: #7f7f7f; stroke-opacity: 0.7"/>
     <use xlink:href="#me7901d93eb" x="87.936555" y="117.433625" style="fill: #7f7f7f; fill-opacity: 0.7; stroke: #7f7f7f; stroke-opacity: 0.7"/>
     <use xlink:href="#me7901d93eb" x="112.130144" y="189.996487" style="fill: #7f7f7f; fill-opacity: 0.7; stroke: #7f7f7f; stroke-opacity: 0.7"/>
     <use xlink:href="#me7901d93eb" x="129.681666" y="213.813858" style="fill: #7f7f7f; fill-opacity: 0.7; stroke: #7f7f7f; stroke-opacity: 0.7"/>
     <use xlink:href="#me7901d93eb" x="155.298657" y="236.710936" style="fill: #7f7f7f; fill-opacity: 0.7; stroke: #7f7f7f; stroke-opacity: 0.7"/>
     <use xlink:href="#me7901d93eb" x="200.838859" y="264.708303" style="fill: #7f7f7f; fill-opacity: 0.7; stroke: #7f7f7f; stroke-opacity: 0.7"/>
     <use xlink:href="#me7901d93eb" x="262.495775" y="279.429067" style="fill: #7f7f7f; fill-opacity: 0.7; stroke: #7f7f7f; stroke-opacity: 0.7"/>
     <use xlink:href="#me7901d93eb" x="309.452838" y="284.447794" style="fill: #7f7f7f; fill-opacity: 0.7; stroke: #7f7f7f; stroke-opacity: 0.7"/>
     <use xlink:href="#me7901d93eb" x="356.968131" y="286.912292" style="fill: #7f7f7f; fill-opacity: 0.7; stroke: #7f7f7f; stroke-opacity: 0.7"/>
     <use xlink:href="#me7901d93eb" x="467.287273" y="289.273553" style="fill: #7f7f7f; fill-opacity: 0.7; stroke: #7f7f7f; stroke-opacity: 0.7"/>
    </g>
   </g>
   <g id="line2d_26">
    <path clip-path="url(#ped0a27177d)" style="fill: none; stroke: #c7c7c7; stroke-opacity: 0.7; stroke-linecap: square"/>
    <defs>
     <path id="mbc9758ab39" d="M 0 2 
C 0.530406 2 1.03916 1.789267 1.414214 1.414214 
C 1.789267 1.03916 2 0.530406 2 0 
C 2 -0.530406 1.789267 -1.03916 1.414214 -1.414214 
C 1.03916 -1.789267 0.530406 -2 0 -2 
C -0.530406 -2 -1.03916 -1.789267 -1.414214 -1.414214 
C -1.789267 -1.03916 -2 -0.530406 -2 0 
C -2 0.530406 -1.789267 1.03916 -1.414214 1.414214 
C -1.03916 1.789267 -0.530406 2 0 2 
z
" style="stroke: #c7c7c7; stroke-opacity: 0.7"/>
    </defs>
    <g clip-path="url(#ped0a27177d)"/>
   </g>
   <g id="line2d_27">
    <path d="M 71.332727 101.758471 
L 87.936555 142.674153 
L 112.130144 193.377225 
L 129.681666 214.638559 
L 155.298657 239.210614 
L 200.838859 263.280594 
L 262.495775 279.073711 
L 309.452838 284.277478 
L 356.968131 287.084192 
L 467.287273 289.226088 
" clip-path="url(#ped0a27177d)" style="fill: none; stroke: #bcbd22; stroke-opacity: 0.7; stroke-linecap: square"/>
    <defs>
     <path id="mb927c5a98a" d="M 0 2 
C 0.530406 2 1.03916 1.789267 1.414214 1.414214 
C 1.789267 1.03916 2 0.530406 2 0 
C 2 -0.530406 1.789267 -1.03916 1.414214 -1.414214 
C 1.03916 -1.789267 0.530406 -2 0 -2 
C -0.530406 -2 -1.03916 -1.789267 -1.414214 -1.414214 
C -1.789267 -1.03916 -2 -0.530406 -2 0 
C -2 0.530406 -1.789267 1.03916 -1.414214 1.414214 
C -1.03916 1.789267 -0.530406 2 0 2 
z
" style="stroke: #bcbd22; stroke-opacity: 0.7"/>
    </defs>
    <g clip-path="url(#ped0a27177d)">
     <use xlink:href="#mb927c5a98a" x="71.332727" y="101.758471" style="fill: #bcbd22; fill-opacity: 0.7; stroke: #bcbd22; stroke-opacity: 0.7"/>
     <use xlink:href="#mb927c5a98a" x="87.936555" y="142.674153" style="fill: #bcbd22; fill-opacity: 0.7; stroke: #bcbd22; stroke-opacity: 0.7"/>
     <use xlink:href="#mb927c5a98a" x="112.130144" y="193.377225" style="fill: #bcbd22; fill-opacity: 0.7; stroke: #bcbd22; stroke-opacity: 0.7"/>
     <use xlink:href="#mb927c5a98a" x="129.681666" y="214.638559" style="fill: #bcbd22; fill-opacity: 0.7; stroke: #bcbd22; stroke-opacity: 0.7"/>
     <use xlink:href="#mb927c5a98a" x="155.298657" y="239.210614" style="fill: #bcbd22; fill-opacity: 0.7; stroke: #bcbd22; stroke-opacity: 0.7"/>
     <use xlink:href="#mb927c5a98a" x="200.838859" y="263.280594" style="fill: #bcbd22; fill-opacity: 0.7; stroke: #bcbd22; stroke-opacity: 0.7"/>
     <use xlink:href="#mb927c5a98a" x="262.495775" y="279.073711" style="fill: #bcbd22; fill-opacity: 0.7; stroke: #bcbd22; stroke-opacity: 0.7"/>
     <use xlink:href="#mb927c5a98a" x="309.452838" y="284.277478" style="fill: #bcbd22; fill-opacity: 0.7; stroke: #bcbd22; stroke-opacity: 0.7"/>
     <use xlink:href="#mb927c5a98a" x="356.968131" y="287.084192" style="fill: #bcbd22; fill-opacity: 0.7; stroke: #bcbd22; stroke-opacity: 0.7"/>
     <use xlink:href="#mb927c5a98a" x="467.287273" y="289.226088" style="fill: #bcbd22; fill-opacity: 0.7; stroke: #bcbd22; stroke-opacity: 0.7"/>
    </g>
   </g>
   <g id="line2d_28">
    <path d="M 71.332727 89.935602 
L 87.936555 147.784586 
L 112.130144 191.494654 
L 129.681666 215.802364 
L 155.298657 239.736732 
L 200.838859 263.98268 
L 262.495775 279.463778 
L 309.452838 284.344861 
L 356.968131 287.093379 
L 467.287273 289.209585 
" clip-path="url(#ped0a27177d)" style="fill: none; stroke: #dbdb8d; stroke-opacity: 0.7; stroke-linecap: square"/>
    <defs>
     <path id="mde1fcc95a2" d="M 0 2 
C 0.530406 2 1.03916 1.789267 1.414214 1.414214 
C 1.789267 1.03916 2 0.530406 2 0 
C 2 -0.530406 1.789267 -1.03916 1.414214 -1.414214 
C 1.03916 -1.789267 0.530406 -2 0 -2 
C -0.530406 -2 -1.03916 -1.789267 -1.414214 -1.414214 
C -1.789267 -1.03916 -2 -0.530406 -2 0 
C -2 0.530406 -1.789267 1.03916 -1.414214 1.414214 
C -1.03916 1.789267 -0.530406 2 0 2 
z
" style="stroke: #dbdb8d; stroke-opacity: 0.7"/>
    </defs>
    <g clip-path="url(#ped0a27177d)">
     <use xlink:href="#mde1fcc95a2" x="71.332727" y="89.935602" style="fill: #dbdb8d; fill-opacity: 0.7; stroke: #dbdb8d; stroke-opacity: 0.7"/>
     <use xlink:href="#mde1fcc95a2" x="87.936555" y="147.784586" style="fill: #dbdb8d; fill-opacity: 0.7; stroke: #dbdb8d; stroke-opacity: 0.7"/>
     <use xlink:href="#mde1fcc95a2" x="112.130144" y="191.494654" style="fill: #dbdb8d; fill-opacity: 0.7; stroke: #dbdb8d; stroke-opacity: 0.7"/>
     <use xlink:href="#mde1fcc95a2" x="129.681666" y="215.802364" style="fill: #dbdb8d; fill-opacity: 0.7; stroke: #dbdb8d; stroke-opacity: 0.7"/>
     <use xlink:href="#mde1fcc95a2" x="155.298657" y="239.736732" style="fill: #dbdb8d; fill-opacity: 0.7; stroke: #dbdb8d; stroke-opacity: 0.7"/>
     <use xlink:href="#mde1fcc95a2" x="200.838859" y="263.98268" style="fill: #dbdb8d; fill-opacity: 0.7; stroke: #dbdb8d; stroke-opacity: 0.7"/>
     <use xlink:href="#mde1fcc95a2" x="262.495775" y="279.463778" style="fill: #dbdb8d; fill-opacity: 0.7; stroke: #dbdb8d; stroke-opacity: 0.7"/>
     <use xlink:href="#mde1fcc95a2" x="309.452838" y="284.344861" style="fill: #dbdb8d; fill-opacity: 0.7; stroke: #dbdb8d; stroke-opacity: 0.7"/>
     <use xlink:href="#mde1fcc95a2" x="356.968131" y="287.093379" style="fill: #dbdb8d; fill-opacity: 0.7; stroke: #dbdb8d; stroke-opacity: 0.7"/>
     <use xlink:href="#mde1fcc95a2" x="467.287273" y="289.209585" style="fill: #dbdb8d; fill-opacity: 0.7; stroke: #dbdb8d; stroke-opacity: 0.7"/>
    </g>
   </g>
   <g id="line2d_29">
    <path d="M 87.936555 139.586439 
L 112.130144 189.75757 
L 129.681666 214.673873 
L 155.298657 238.417935 
L 200.838859 261.690614 
L 262.495775 278.217383 
L 309.452838 283.680178 
L 356.968131 286.764111 
L 467.287273 289.282369 
" clip-path="url(#ped0a27177d)" style="fill: none; stroke: #17becf; stroke-opacity: 0.7; stroke-linecap: square"/>
    <defs>
     <path id="m5db81f063c" d="M 0 2 
C 0.530406 2 1.03916 1.789267 1.414214 1.414214 
C 1.789267 1.03916 2 0.530406 2 0 
C 2 -0.530406 1.789267 -1.03916 1.414214 -1.414214 
C 1.03916 -1.789267 0.530406 -2 0 -2 
C -0.530406 -2 -1.03916 -1.789267 -1.414214 -1.414214 
C -1.789267 -1.03916 -2 -0.530406 -2 0 
C -2 0.530406 -1.789267 1.03916 -1.414214 1.414214 
C -1.03916 1.789267 -0.530406 2 0 2 
z
" style="stroke: #17becf; stroke-opacity: 0.7"/>
    </defs>
    <g clip-path="url(#ped0a27177d)">
     <use xlink:href="#m5db81f063c" x="87.936555" y="139.586439" style="fill: #17becf; fill-opacity: 0.7; stroke: #17becf; stroke-opacity: 0.7"/>
     <use xlink:href="#m5db81f063c" x="112.130144" y="189.75757" style="fill: #17becf; fill-opacity: 0.7; stroke: #17becf; stroke-opacity: 0.7"/>
     <use xlink:href="#m5db81f063c" x="129.681666" y="214.673873" style="fill: #17becf; fill-opacity: 0.7; stroke: #17becf; stroke-opacity: 0.7"/>
     <use xlink:href="#m5db81f063c" x="155.298657" y="238.417935" style="fill: #17becf; fill-opacity: 0.7; stroke: #17becf; stroke-opacity: 0.7"/>
     <use xlink:href="#m5db81f063c" x="200.838859" y="261.690614" style="fill: #17becf; fill-opacity: 0.7; stroke: #17becf; stroke-opacity: 0.7"/>
     <use xlink:href="#m5db81f063c" x="262.495775" y="278.217383" style="fill: #17becf; fill-opacity: 0.7; stroke: #17becf; stroke-opacity: 0.7"/>
     <use xlink:href="#m5db81f063c" x="309.452838" y="283.680178" style="fill: #17becf; fill-opacity: 0.7; stroke: #17becf; stroke-opacity: 0.7"/>
     <use xlink:href="#m5db81f063c" x="356.968131" y="286.764111" style="fill: #17becf; fill-opacity: 0.7; stroke: #17becf; stroke-opacity: 0.7"/>
     <use xlink:href="#m5db81f063c" x="467.287273" y="289.282369" style="fill: #17becf; fill-opacity: 0.7; stroke: #17becf; stroke-opacity: 0.7"/>
    </g>
   </g>
   <g id="line2d_30">
    <path d="M 87.936555 94.579 
L 112.130144 166.12326 
L 129.681666 197.90081 
L 155.298657 228.199048 
L 200.838859 260.080626 
L 262.495775 277.961978 
L 309.452838 283.512129 
L 356.968131 286.696855 
L 467.287273 289.101524 
" clip-path="url(#ped0a27177d)" style="fill: none; stroke: #9edae5; stroke-opacity: 0.7; stroke-linecap: square"/>
    <defs>
     <path id="m69d680f8dc" d="M 0 2 
C 0.530406 2 1.03916 1.789267 1.414214 1.414214 
C 1.789267 1.03916 2 0.530406 2 0 
C 2 -0.530406 1.789267 -1.03916 1.414214 -1.414214 
C 1.03916 -1.789267 0.530406 -2 0 -2 
C -0.530406 -2 -1.03916 -1.789267 -1.414214 -1.414214 
C -1.789267 -1.03916 -2 -0.530406 -2 0 
C -2 0.530406 -1.789267 1.03916 -1.414214 1.414214 
C -1.03916 1.789267 -0.530406 2 0 2 
z
" style="stroke: #9edae5; stroke-opacity: 0.7"/>
    </defs>
    <g clip-path="url(#ped0a27177d)">
     <use xlink:href="#m69d680f8dc" x="87.936555" y="94.579" style="fill: #9edae5; fill-opacity: 0.7; stroke: #9edae5; stroke-opacity: 0.7"/>
     <use xlink:href="#m69d680f8dc" x="112.130144" y="166.12326" style="fill: #9edae5; fill-opacity: 0.7; stroke: #9edae5; stroke-opacity: 0.7"/>
     <use xlink:href="#m69d680f8dc" x="129.681666" y="197.90081" style="fill: #9edae5; fill-opacity: 0.7; stroke: #9edae5; stroke-opacity: 0.7"/>
     <use xlink:href="#m69d680f8dc" x="155.298657" y="228.199048" style="fill: #9edae5; fill-opacity: 0.7; stroke: #9edae5; stroke-opacity: 0.7"/>
     <use xlink:href="#m69d680f8dc" x="200.838859" y="260.080626" style="fill: #9edae5; fill-opacity: 0.7; stroke: #9edae5; stroke-opacity: 0.7"/>
     <use xlink:href="#m69d680f8dc" x="262.495775" y="277.961978" style="fill: #9edae5; fill-opacity: 0.7; stroke: #9edae5; stroke-opacity: 0.7"/>
     <use xlink:href="#m69d680f8dc" x="309.452838" y="283.512129" style="fill: #9edae5; fill-opacity: 0.7; stroke: #9edae5; stroke-opacity: 0.7"/>
     <use xlink:href="#m69d680f8dc" x="356.968131" y="286.696855" style="fill: #9edae5; fill-opacity: 0.7; stroke: #9edae5; stroke-opacity: 0.7"/>
     <use xlink:href="#m69d680f8dc" x="467.287273" y="289.101524" style="fill: #9edae5; fill-opacity: 0.7; stroke: #9edae5; stroke-opacity: 0.7"/>
    </g>
   </g>
   <g id="line2d_31">
    <path d="M 71.332727 92.852602 
L 87.936555 144.4243 
L 112.130144 191.701168 
L 129.681666 214.665758 
L 155.298657 238.163389 
L 200.838859 262.639649 
L 262.495775 278.511837 
L 309.452838 284.151175 
L 356.968131 286.92206 
L 467.287273 289.164636 
" clip-path="url(#ped0a27177d)" style="fill: none; stroke: #9edae5; stroke-opacity: 0.7; stroke-linecap: square"/>
    <g clip-path="url(#ped0a27177d)">
     <use xlink:href="#m69d680f8dc" x="71.332727" y="92.852602" style="fill: #9edae5; fill-opacity: 0.7; stroke: #9edae5; stroke-opacity: 0.7"/>
     <use xlink:href="#m69d680f8dc" x="87.936555" y="144.4243" style="fill: #9edae5; fill-opacity: 0.7; stroke: #9edae5; stroke-opacity: 0.7"/>
     <use xlink:href="#m69d680f8dc" x="112.130144" y="191.701168" style="fill: #9edae5; fill-opacity: 0.7; stroke: #9edae5; stroke-opacity: 0.7"/>
     <use xlink:href="#m69d680f8dc" x="129.681666" y="214.665758" style="fill: #9edae5; fill-opacity: 0.7; stroke: #9edae5; stroke-opacity: 0.7"/>
     <use xlink:href="#m69d680f8dc" x="155.298657" y="238.163389" style="fill: #9edae5; fill-opacity: 0.7; stroke: #9edae5; stroke-opacity: 0.7"/>
     <use xlink:href="#m69d680f8dc" x="200.838859" y="262.639649" style="fill: #9edae5; fill-opacity: 0.7; stroke: #9edae5; stroke-opacity: 0.7"/>
     <use xlink:href="#m69d680f8dc" x="262.495775" y="278.511837" style="fill: #9edae5; fill-opacity: 0.7; stroke: #9edae5; stroke-opacity: 0.7"/>
     <use xlink:href="#m69d680f8dc" x="309.452838" y="284.151175" style="fill: #9edae5; fill-opacity: 0.7; stroke: #9edae5; stroke-opacity: 0.7"/>
     <use xlink:href="#m69d680f8dc" x="356.968131" y="286.92206" style="fill: #9edae5; fill-opacity: 0.7; stroke: #9edae5; stroke-opacity: 0.7"/>
     <use xlink:href="#m69d680f8dc" x="467.287273" y="289.164636" style="fill: #9edae5; fill-opacity: 0.7; stroke: #9edae5; stroke-opacity: 0.7"/>
    </g>
   </g>
   <g id="line2d_32">
    <path clip-path="url(#ped0a27177d)" style="fill: none; stroke: #9edae5; stroke-opacity: 0.7; stroke-linecap: square"/>
    <g clip-path="url(#ped0a27177d)"/>
   </g>
   <g id="patch_3">
    <path d="M 51.535 302.8 
L 51.535 7.2 
" style="fill: none; stroke: #000000; stroke-width: 0.8; stroke-linejoin: miter; stroke-linecap: square"/>
   </g>
   <g id="patch_4">
    <path d="M 487.085 302.8 
L 487.085 7.2 
" style="fill: none; stroke: #000000; stroke-width: 0.8; stroke-linejoin: miter; stroke-linecap: square"/>
   </g>
   <g id="patch_5">
    <path d="M 51.535 302.8 
L 487.085 302.8 
" style="fill: none; stroke: #000000; stroke-width: 0.8; stroke-linejoin: miter; stroke-linecap: square"/>
   </g>
   <g id="patch_6">
    <path d="M 51.535 7.2 
L 487.085 7.2 
" style="fill: none; stroke: #000000; stroke-width: 0.8; stroke-linejoin: miter; stroke-linecap: square"/>
   </g>
   <g id="line2d_33">
    <path d="M 71.332727 89.324041 
L 87.936555 138.548664 
L 112.130144 188.185876 
L 129.681666 213.271337 
L 155.298657 238.907572 
L 200.838859 263.293115 
L 262.495775 278.939356 
L 309.452838 284.131183 
L 356.968131 286.939367 
L 467.287273 289.21434 
" clip-path="url(#ped0a27177d)" style="fill: none; stroke: #000000; stroke-width: 2; stroke-linecap: square"/>
   </g>
   <g id="legend_1">
    <g id="patch_7">
     <path d="M 422.77 283.6775 
L 481.485 283.6775 
Q 483.085 283.6775 483.085 282.0775 
L 483.085 12.8 
Q 483.085 11.2 481.485 11.2 
L 422.77 11.2 
Q 421.17 11.2 421.17 12.8 
L 421.17 282.0775 
Q 421.17 283.6775 422.77 283.6775 
z
" style="fill: #ffffff; opacity: 0.8; stroke: #cccccc; stroke-linejoin: miter"/>
    </g>
    <g id="line2d_34">
     <path d="M 424.37 17.67875 
L 432.37 17.67875 
L 440.37 17.67875 
" style="fill: none; stroke: #1f77b4; stroke-opacity: 0.7; stroke-linecap: square"/>
     <g>
      <use xlink:href="#m02fc1809ed" x="432.37" y="17.67875" style="fill: #1f77b4; fill-opacity: 0.7; stroke: #1f77b4; stroke-opacity: 0.7"/>
     </g>
    </g>
    <g id="text_13">
     <!-- Bead 1 -->
     <g transform="translate(446.77 20.47875) scale(0.08 -0.08)">
      <defs>
       <path id="DejaVuSans-42" d="M 1259 2228 
L 1259 519 
L 2272 519 
Q 2781 519 3026 730 
Q 3272 941 3272 1375 
Q 3272 1813 3026 2020 
Q 2781 2228 2272 2228 
L 1259 2228 
z
M 1259 4147 
L 1259 2741 
L 2194 2741 
Q 2656 2741 2882 2914 
Q 3109 3088 3109 3444 
Q 3109 3797 2882 3972 
Q 2656 4147 2194 4147 
L 1259 4147 
z
M 628 4666 
L 2241 4666 
Q 2963 4666 3353 4366 
Q 3744 4066 3744 3513 
Q 3744 3084 3544 2831 
Q 3344 2578 2956 2516 
Q 3422 2416 3680 2098 
Q 3938 1781 3938 1306 
Q 3938 681 3513 340 
Q 3088 0 2303 0 
L 628 0 
L 628 4666 
z
" transform="scale(0.015625)"/>
       <path id="DejaVuSans-65" d="M 3597 1894 
L 3597 1613 
L 953 1613 
Q 991 1019 1311 708 
Q 1631 397 2203 397 
Q 2534 397 2845 478 
Q 3156 559 3463 722 
L 3463 178 
Q 3153 47 2828 -22 
Q 2503 -91 2169 -91 
Q 1331 -91 842 396 
Q 353 884 353 1716 
Q 353 2575 817 3079 
Q 1281 3584 2069 3584 
Q 2775 3584 3186 3129 
Q 3597 2675 3597 1894 
z
M 3022 2063 
Q 3016 2534 2758 2815 
Q 2500 3097 2075 3097 
Q 1594 3097 1305 2825 
Q 1016 2553 972 2059 
L 3022 2063 
z
" transform="scale(0.015625)"/>
       <path id="DejaVuSans-61" d="M 2194 1759 
Q 1497 1759 1228 1600 
Q 959 1441 959 1056 
Q 959 750 1161 570 
Q 1363 391 1709 391 
Q 2188 391 2477 730 
Q 2766 1069 2766 1631 
L 2766 1759 
L 2194 1759 
z
M 3341 1997 
L 3341 0 
L 2766 0 
L 2766 531 
Q 2569 213 2275 61 
Q 1981 -91 1556 -91 
Q 1019 -91 701 211 
Q 384 513 384 1019 
Q 384 1609 779 1909 
Q 1175 2209 1959 2209 
L 2766 2209 
L 2766 2266 
Q 2766 2663 2505 2880 
Q 2244 3097 1772 3097 
Q 1472 3097 1187 3025 
Q 903 2953 641 2809 
L 641 3341 
Q 956 3463 1253 3523 
Q 1550 3584 1831 3584 
Q 2591 3584 2966 3190 
Q 3341 2797 3341 1997 
z
" transform="scale(0.015625)"/>
       <path id="DejaVuSans-64" d="M 2906 2969 
L 2906 4863 
L 3481 4863 
L 3481 0 
L 2906 0 
L 2906 525 
Q 2725 213 2448 61 
Q 2172 -91 1784 -91 
Q 1150 -91 751 415 
Q 353 922 353 1747 
Q 353 2572 751 3078 
Q 1150 3584 1784 3584 
Q 2172 3584 2448 3432 
Q 2725 3281 2906 2969 
z
M 947 1747 
Q 947 1113 1208 752 
Q 1469 391 1925 391 
Q 2381 391 2643 752 
Q 2906 1113 2906 1747 
Q 2906 2381 2643 2742 
Q 2381 3103 1925 3103 
Q 1469 3103 1208 2742 
Q 947 2381 947 1747 
z
" transform="scale(0.015625)"/>
       <path id="DejaVuSans-20" transform="scale(0.015625)"/>
      </defs>
      <use xlink:href="#DejaVuSans-42"/>
      <use xlink:href="#DejaVuSans-65" transform="translate(68.603516 0)"/>
      <use xlink:href="#DejaVuSans-61" transform="translate(130.126953 0)"/>
      <use xlink:href="#DejaVuSans-64" transform="translate(191.40625 0)"/>
      <use xlink:href="#DejaVuSans-20" transform="translate(254.882812 0)"/>
      <use xlink:href="#DejaVuSans-31" transform="translate(286.669922 0)"/>
     </g>
    </g>
    <g id="line2d_35">
     <path d="M 424.37 29.42125 
L 432.37 29.42125 
L 440.37 29.42125 
" style="fill: none; stroke: #aec7e8; stroke-opacity: 0.7; stroke-linecap: square"/>
     <g>
      <use xlink:href="#m20a6f361b2" x="432.37" y="29.42125" style="fill: #aec7e8; fill-opacity: 0.7; stroke: #aec7e8; stroke-opacity: 0.7"/>
     </g>
    </g>
    <g id="text_14">
     <!-- Bead 2 -->
     <g transform="translate(446.77 32.22125) scale(0.08 -0.08)">
      <use xlink:href="#DejaVuSans-42"/>
      <use xlink:href="#DejaVuSans-65" transform="translate(68.603516 0)"/>
      <use xlink:href="#DejaVuSans-61" transform="translate(130.126953 0)"/>
      <use xlink:href="#DejaVuSans-64" transform="translate(191.40625 0)"/>
      <use xlink:href="#DejaVuSans-20" transform="translate(254.882812 0)"/>
      <use xlink:href="#DejaVuSans-32" transform="translate(286.669922 0)"/>
     </g>
    </g>
    <g id="line2d_36">
     <path d="M 424.37 41.16375 
L 432.37 41.16375 
L 440.37 41.16375 
" style="fill: none; stroke: #ff7f0e; stroke-opacity: 0.7; stroke-linecap: square"/>
     <g>
      <use xlink:href="#mb336d6f58c" x="432.37" y="41.16375" style="fill: #ff7f0e; fill-opacity: 0.7; stroke: #ff7f0e; stroke-opacity: 0.7"/>
     </g>
    </g>
    <g id="text_15">
     <!-- Bead 4 -->
     <g transform="translate(446.77 43.96375) scale(0.08 -0.08)">
      <use xlink:href="#DejaVuSans-42"/>
      <use xlink:href="#DejaVuSans-65" transform="translate(68.603516 0)"/>
      <use xlink:href="#DejaVuSans-61" transform="translate(130.126953 0)"/>
      <use xlink:href="#DejaVuSans-64" transform="translate(191.40625 0)"/>
      <use xlink:href="#DejaVuSans-20" transform="translate(254.882812 0)"/>
      <use xlink:href="#DejaVuSans-34" transform="translate(286.669922 0)"/>
     </g>
    </g>
    <g id="line2d_37">
     <path d="M 424.37 52.90625 
L 432.37 52.90625 
L 440.37 52.90625 
" style="fill: none; stroke: #ffbb78; stroke-opacity: 0.7; stroke-linecap: square"/>
     <g>
      <use xlink:href="#m9be023f577" x="432.37" y="52.90625" style="fill: #ffbb78; fill-opacity: 0.7; stroke: #ffbb78; stroke-opacity: 0.7"/>
     </g>
    </g>
    <g id="text_16">
     <!-- Bead 13 -->
     <g transform="translate(446.77 55.70625) scale(0.08 -0.08)">
      <use xlink:href="#DejaVuSans-42"/>
      <use xlink:href="#DejaVuSans-65" transform="translate(68.603516 0)"/>
      <use xlink:href="#DejaVuSans-61" transform="translate(130.126953 0)"/>
      <use xlink:href="#DejaVuSans-64" transform="translate(191.40625 0)"/>
      <use xlink:href="#DejaVuSans-20" transform="translate(254.882812 0)"/>
      <use xlink:href="#DejaVuSans-31" transform="translate(286.669922 0)"/>
      <use xlink:href="#DejaVuSans-33" transform="translate(350.292969 0)"/>
     </g>
    </g>
    <g id="line2d_38">
     <path d="M 424.37 64.64875 
L 432.37 64.64875 
L 440.37 64.64875 
" style="fill: none; stroke: #2ca02c; stroke-opacity: 0.7; stroke-linecap: square"/>
     <g>
      <use xlink:href="#m98d43b2ccd" x="432.37" y="64.64875" style="fill: #2ca02c; fill-opacity: 0.7; stroke: #2ca02c; stroke-opacity: 0.7"/>
     </g>
    </g>
    <g id="text_17">
     <!-- Bead 17 -->
     <g transform="translate(446.77 67.44875) scale(0.08 -0.08)">
      <defs>
       <path id="DejaVuSans-37" d="M 525 4666 
L 3525 4666 
L 3525 4397 
L 1831 0 
L 1172 0 
L 2766 4134 
L 525 4134 
L 525 4666 
z
" transform="scale(0.015625)"/>
      </defs>
      <use xlink:href="#DejaVuSans-42"/>
      <use xlink:href="#DejaVuSans-65" transform="translate(68.603516 0)"/>
      <use xlink:href="#DejaVuSans-61" transform="translate(130.126953 0)"/>
      <use xlink:href="#DejaVuSans-64" transform="translate(191.40625 0)"/>
      <use xlink:href="#DejaVuSans-20" transform="translate(254.882812 0)"/>
      <use xlink:href="#DejaVuSans-31" transform="translate(286.669922 0)"/>
      <use xlink:href="#DejaVuSans-37" transform="translate(350.292969 0)"/>
     </g>
    </g>
    <g id="line2d_39">
     <path d="M 424.37 76.39125 
L 432.37 76.39125 
L 440.37 76.39125 
" style="fill: none; stroke: #98df8a; stroke-opacity: 0.7; stroke-linecap: square"/>
     <g>
      <use xlink:href="#mf8ac576443" x="432.37" y="76.39125" style="fill: #98df8a; fill-opacity: 0.7; stroke: #98df8a; stroke-opacity: 0.7"/>
     </g>
    </g>
    <g id="text_18">
     <!-- Bead 18 -->
     <g transform="translate(446.77 79.19125) scale(0.08 -0.08)">
      <use xlink:href="#DejaVuSans-42"/>
      <use xlink:href="#DejaVuSans-65" transform="translate(68.603516 0)"/>
      <use xlink:href="#DejaVuSans-61" transform="translate(130.126953 0)"/>
      <use xlink:href="#DejaVuSans-64" transform="translate(191.40625 0)"/>
      <use xlink:href="#DejaVuSans-20" transform="translate(254.882812 0)"/>
      <use xlink:href="#DejaVuSans-31" transform="translate(286.669922 0)"/>
      <use xlink:href="#DejaVuSans-38" transform="translate(350.292969 0)"/>
     </g>
    </g>
    <g id="line2d_40">
     <path d="M 424.37 88.13375 
L 432.37 88.13375 
L 440.37 88.13375 
" style="fill: none; stroke: #d62728; stroke-opacity: 0.7; stroke-linecap: square"/>
     <g>
      <use xlink:href="#m0dbd318417" x="432.37" y="88.13375" style="fill: #d62728; fill-opacity: 0.7; stroke: #d62728; stroke-opacity: 0.7"/>
     </g>
    </g>
    <g id="text_19">
     <!-- Bead 19 -->
     <g transform="translate(446.77 90.93375) scale(0.08 -0.08)">
      <defs>
       <path id="DejaVuSans-39" d="M 703 97 
L 703 672 
Q 941 559 1184 500 
Q 1428 441 1663 441 
Q 2288 441 2617 861 
Q 2947 1281 2994 2138 
Q 2813 1869 2534 1725 
Q 2256 1581 1919 1581 
Q 1219 1581 811 2004 
Q 403 2428 403 3163 
Q 403 3881 828 4315 
Q 1253 4750 1959 4750 
Q 2769 4750 3195 4129 
Q 3622 3509 3622 2328 
Q 3622 1225 3098 567 
Q 2575 -91 1691 -91 
Q 1453 -91 1209 -44 
Q 966 3 703 97 
z
M 1959 2075 
Q 2384 2075 2632 2365 
Q 2881 2656 2881 3163 
Q 2881 3666 2632 3958 
Q 2384 4250 1959 4250 
Q 1534 4250 1286 3958 
Q 1038 3666 1038 3163 
Q 1038 2656 1286 2365 
Q 1534 2075 1959 2075 
z
" transform="scale(0.015625)"/>
      </defs>
      <use xlink:href="#DejaVuSans-42"/>
      <use xlink:href="#DejaVuSans-65" transform="translate(68.603516 0)"/>
      <use xlink:href="#DejaVuSans-61" transform="translate(130.126953 0)"/>
      <use xlink:href="#DejaVuSans-64" transform="translate(191.40625 0)"/>
      <use xlink:href="#DejaVuSans-20" transform="translate(254.882812 0)"/>
      <use xlink:href="#DejaVuSans-31" transform="translate(286.669922 0)"/>
      <use xlink:href="#DejaVuSans-39" transform="translate(350.292969 0)"/>
     </g>
    </g>
    <g id="line2d_41">
     <path d="M 424.37 99.87625 
L 432.37 99.87625 
L 440.37 99.87625 
" style="fill: none; stroke: #ff9896; stroke-opacity: 0.7; stroke-linecap: square"/>
     <g>
      <use xlink:href="#m8a283ef53d" x="432.37" y="99.87625" style="fill: #ff9896; fill-opacity: 0.7; stroke: #ff9896; stroke-opacity: 0.7"/>
     </g>
    </g>
    <g id="text_20">
     <!-- Bead 20 -->
     <g transform="translate(446.77 102.67625) scale(0.08 -0.08)">
      <use xlink:href="#DejaVuSans-42"/>
      <use xlink:href="#DejaVuSans-65" transform="translate(68.603516 0)"/>
      <use xlink:href="#DejaVuSans-61" transform="translate(130.126953 0)"/>
      <use xlink:href="#DejaVuSans-64" transform="translate(191.40625 0)"/>
      <use xlink:href="#DejaVuSans-20" transform="translate(254.882812 0)"/>
      <use xlink:href="#DejaVuSans-32" transform="translate(286.669922 0)"/>
      <use xlink:href="#DejaVuSans-30" transform="translate(350.292969 0)"/>
     </g>
    </g>
    <g id="line2d_42">
     <path d="M 424.37 111.61875 
L 432.37 111.61875 
L 440.37 111.61875 
" style="fill: none; stroke: #9467bd; stroke-opacity: 0.7; stroke-linecap: square"/>
     <g>
      <use xlink:href="#m7084c1b1fb" x="432.37" y="111.61875" style="fill: #9467bd; fill-opacity: 0.7; stroke: #9467bd; stroke-opacity: 0.7"/>
     </g>
    </g>
    <g id="text_21">
     <!-- Bead 22 -->
     <g transform="translate(446.77 114.41875) scale(0.08 -0.08)">
      <use xlink:href="#DejaVuSans-42"/>
      <use xlink:href="#DejaVuSans-65" transform="translate(68.603516 0)"/>
      <use xlink:href="#DejaVuSans-61" transform="translate(130.126953 0)"/>
      <use xlink:href="#DejaVuSans-64" transform="translate(191.40625 0)"/>
      <use xlink:href="#DejaVuSans-20" transform="translate(254.882812 0)"/>
      <use xlink:href="#DejaVuSans-32" transform="translate(286.669922 0)"/>
      <use xlink:href="#DejaVuSans-32" transform="translate(350.292969 0)"/>
     </g>
    </g>
    <g id="line2d_43">
     <path d="M 424.37 123.36125 
L 432.37 123.36125 
L 440.37 123.36125 
" style="fill: none; stroke: #c5b0d5; stroke-opacity: 0.7; stroke-linecap: square"/>
     <g>
      <use xlink:href="#m5fac5c902f" x="432.37" y="123.36125" style="fill: #c5b0d5; fill-opacity: 0.7; stroke: #c5b0d5; stroke-opacity: 0.7"/>
     </g>
    </g>
    <g id="text_22">
     <!-- Bead 25 -->
     <g transform="translate(446.77 126.16125) scale(0.08 -0.08)">
      <use xlink:href="#DejaVuSans-42"/>
      <use xlink:href="#DejaVuSans-65" transform="translate(68.603516 0)"/>
      <use xlink:href="#DejaVuSans-61" transform="translate(130.126953 0)"/>
      <use xlink:href="#DejaVuSans-64" transform="translate(191.40625 0)"/>
      <use xlink:href="#DejaVuSans-20" transform="translate(254.882812 0)"/>
      <use xlink:href="#DejaVuSans-32" transform="translate(286.669922 0)"/>
      <use xlink:href="#DejaVuSans-35" transform="translate(350.292969 0)"/>
     </g>
    </g>
    <g id="line2d_44">
     <path d="M 424.37 135.10375 
L 432.37 135.10375 
L 440.37 135.10375 
" style="fill: none; stroke: #8c564b; stroke-opacity: 0.7; stroke-linecap: square"/>
     <g>
      <use xlink:href="#ma8804c54a8" x="432.37" y="135.10375" style="fill: #8c564b; fill-opacity: 0.7; stroke: #8c564b; stroke-opacity: 0.7"/>
     </g>
    </g>
    <g id="text_23">
     <!-- Bead 26 -->
     <g transform="translate(446.77 137.90375) scale(0.08 -0.08)">
      <use xlink:href="#DejaVuSans-42"/>
      <use xlink:href="#DejaVuSans-65" transform="translate(68.603516 0)"/>
      <use xlink:href="#DejaVuSans-61" transform="translate(130.126953 0)"/>
      <use xlink:href="#DejaVuSans-64" transform="translate(191.40625 0)"/>
      <use xlink:href="#DejaVuSans-20" transform="translate(254.882812 0)"/>
      <use xlink:href="#DejaVuSans-32" transform="translate(286.669922 0)"/>
      <use xlink:href="#DejaVuSans-36" transform="translate(350.292969 0)"/>
     </g>
    </g>
    <g id="line2d_45">
     <path d="M 424.37 146.84625 
L 432.37 146.84625 
L 440.37 146.84625 
" style="fill: none; stroke: #c49c94; stroke-opacity: 0.7; stroke-linecap: square"/>
     <g>
      <use xlink:href="#m21a32aa6d2" x="432.37" y="146.84625" style="fill: #c49c94; fill-opacity: 0.7; stroke: #c49c94; stroke-opacity: 0.7"/>
     </g>
    </g>
    <g id="text_24">
     <!-- Bead 27 -->
     <g transform="translate(446.77 149.64625) scale(0.08 -0.08)">
      <use xlink:href="#DejaVuSans-42"/>
      <use xlink:href="#DejaVuSans-65" transform="translate(68.603516 0)"/>
      <use xlink:href="#DejaVuSans-61" transform="translate(130.126953 0)"/>
      <use xlink:href="#DejaVuSans-64" transform="translate(191.40625 0)"/>
      <use xlink:href="#DejaVuSans-20" transform="translate(254.882812 0)"/>
      <use xlink:href="#DejaVuSans-32" transform="translate(286.669922 0)"/>
      <use xlink:href="#DejaVuSans-37" transform="translate(350.292969 0)"/>
     </g>
    </g>
    <g id="line2d_46">
     <path d="M 424.37 158.58875 
L 432.37 158.58875 
L 440.37 158.58875 
" style="fill: none; stroke: #e377c2; stroke-opacity: 0.7; stroke-linecap: square"/>
     <g>
      <use xlink:href="#m7a0b83fffe" x="432.37" y="158.58875" style="fill: #e377c2; fill-opacity: 0.7; stroke: #e377c2; stroke-opacity: 0.7"/>
     </g>
    </g>
    <g id="text_25">
     <!-- Bead 32 -->
     <g transform="translate(446.77 161.38875) scale(0.08 -0.08)">
      <use xlink:href="#DejaVuSans-42"/>
      <use xlink:href="#DejaVuSans-65" transform="translate(68.603516 0)"/>
      <use xlink:href="#DejaVuSans-61" transform="translate(130.126953 0)"/>
      <use xlink:href="#DejaVuSans-64" transform="translate(191.40625 0)"/>
      <use xlink:href="#DejaVuSans-20" transform="translate(254.882812 0)"/>
      <use xlink:href="#DejaVuSans-33" transform="translate(286.669922 0)"/>
      <use xlink:href="#DejaVuSans-32" transform="translate(350.292969 0)"/>
     </g>
    </g>
    <g id="line2d_47">
     <path d="M 424.37 170.33125 
L 432.37 170.33125 
L 440.37 170.33125 
" style="fill: none; stroke: #f7b6d2; stroke-opacity: 0.7; stroke-linecap: square"/>
     <g>
      <use xlink:href="#mfd5afe1422" x="432.37" y="170.33125" style="fill: #f7b6d2; fill-opacity: 0.7; stroke: #f7b6d2; stroke-opacity: 0.7"/>
     </g>
    </g>
    <g id="text_26">
     <!-- Bead 33 -->
     <g transform="translate(446.77 173.13125) scale(0.08 -0.08)">
      <use xlink:href="#DejaVuSans-42"/>
      <use xlink:href="#DejaVuSans-65" transform="translate(68.603516 0)"/>
      <use xlink:href="#DejaVuSans-61" transform="translate(130.126953 0)"/>
      <use xlink:href="#DejaVuSans-64" transform="translate(191.40625 0)"/>
      <use xlink:href="#DejaVuSans-20" transform="translate(254.882812 0)"/>
      <use xlink:href="#DejaVuSans-33" transform="translate(286.669922 0)"/>
      <use xlink:href="#DejaVuSans-33" transform="translate(350.292969 0)"/>
     </g>
    </g>
    <g id="line2d_48">
     <path d="M 424.37 182.07375 
L 432.37 182.07375 
L 440.37 182.07375 
" style="fill: none; stroke: #7f7f7f; stroke-opacity: 0.7; stroke-linecap: square"/>
     <g>
      <use xlink:href="#me7901d93eb" x="432.37" y="182.07375" style="fill: #7f7f7f; fill-opacity: 0.7; stroke: #7f7f7f; stroke-opacity: 0.7"/>
     </g>
    </g>
    <g id="text_27">
     <!-- Bead 34 -->
     <g transform="translate(446.77 184.87375) scale(0.08 -0.08)">
      <use xlink:href="#DejaVuSans-42"/>
      <use xlink:href="#DejaVuSans-65" transform="translate(68.603516 0)"/>
      <use xlink:href="#DejaVuSans-61" transform="translate(130.126953 0)"/>
      <use xlink:href="#DejaVuSans-64" transform="translate(191.40625 0)"/>
      <use xlink:href="#DejaVuSans-20" transform="translate(254.882812 0)"/>
      <use xlink:href="#DejaVuSans-33" transform="translate(286.669922 0)"/>
      <use xlink:href="#DejaVuSans-34" transform="translate(350.292969 0)"/>
     </g>
    </g>
    <g id="line2d_49">
     <path d="M 424.37 193.81625 
L 432.37 193.81625 
L 440.37 193.81625 
" style="fill: none; stroke: #c7c7c7; stroke-opacity: 0.7; stroke-linecap: square"/>
     <g>
      <use xlink:href="#mbc9758ab39" x="432.37" y="193.81625" style="fill: #c7c7c7; fill-opacity: 0.7; stroke: #c7c7c7; stroke-opacity: 0.7"/>
     </g>
    </g>
    <g id="text_28">
     <!-- Bead 35 -->
     <g transform="translate(446.77 196.61625) scale(0.08 -0.08)">
      <use xlink:href="#DejaVuSans-42"/>
      <use xlink:href="#DejaVuSans-65" transform="translate(68.603516 0)"/>
      <use xlink:href="#DejaVuSans-61" transform="translate(130.126953 0)"/>
      <use xlink:href="#DejaVuSans-64" transform="translate(191.40625 0)"/>
      <use xlink:href="#DejaVuSans-20" transform="translate(254.882812 0)"/>
      <use xlink:href="#DejaVuSans-33" transform="translate(286.669922 0)"/>
      <use xlink:href="#DejaVuSans-35" transform="translate(350.292969 0)"/>
     </g>
    </g>
    <g id="line2d_50">
     <path d="M 424.37 205.55875 
L 432.37 205.55875 
L 440.37 205.55875 
" style="fill: none; stroke: #bcbd22; stroke-opacity: 0.7; stroke-linecap: square"/>
     <g>
      <use xlink:href="#mb927c5a98a" x="432.37" y="205.55875" style="fill: #bcbd22; fill-opacity: 0.7; stroke: #bcbd22; stroke-opacity: 0.7"/>
     </g>
    </g>
    <g id="text_29">
     <!-- Bead 36 -->
     <g transform="translate(446.77 208.35875) scale(0.08 -0.08)">
      <use xlink:href="#DejaVuSans-42"/>
      <use xlink:href="#DejaVuSans-65" transform="translate(68.603516 0)"/>
      <use xlink:href="#DejaVuSans-61" transform="translate(130.126953 0)"/>
      <use xlink:href="#DejaVuSans-64" transform="translate(191.40625 0)"/>
      <use xlink:href="#DejaVuSans-20" transform="translate(254.882812 0)"/>
      <use xlink:href="#DejaVuSans-33" transform="translate(286.669922 0)"/>
      <use xlink:href="#DejaVuSans-36" transform="translate(350.292969 0)"/>
     </g>
    </g>
    <g id="line2d_51">
     <path d="M 424.37 217.30125 
L 432.37 217.30125 
L 440.37 217.30125 
" style="fill: none; stroke: #dbdb8d; stroke-opacity: 0.7; stroke-linecap: square"/>
     <g>
      <use xlink:href="#mde1fcc95a2" x="432.37" y="217.30125" style="fill: #dbdb8d; fill-opacity: 0.7; stroke: #dbdb8d; stroke-opacity: 0.7"/>
     </g>
    </g>
    <g id="text_30">
     <!-- Bead 37 -->
     <g transform="translate(446.77 220.10125) scale(0.08 -0.08)">
      <use xlink:href="#DejaVuSans-42"/>
      <use xlink:href="#DejaVuSans-65" transform="translate(68.603516 0)"/>
      <use xlink:href="#DejaVuSans-61" transform="translate(130.126953 0)"/>
      <use xlink:href="#DejaVuSans-64" transform="translate(191.40625 0)"/>
      <use xlink:href="#DejaVuSans-20" transform="translate(254.882812 0)"/>
      <use xlink:href="#DejaVuSans-33" transform="translate(286.669922 0)"/>
      <use xlink:href="#DejaVuSans-37" transform="translate(350.292969 0)"/>
     </g>
    </g>
    <g id="line2d_52">
     <path d="M 424.37 229.04375 
L 432.37 229.04375 
L 440.37 229.04375 
" style="fill: none; stroke: #17becf; stroke-opacity: 0.7; stroke-linecap: square"/>
     <g>
      <use xlink:href="#m5db81f063c" x="432.37" y="229.04375" style="fill: #17becf; fill-opacity: 0.7; stroke: #17becf; stroke-opacity: 0.7"/>
     </g>
    </g>
    <g id="text_31">
     <!-- Bead 41 -->
     <g transform="translate(446.77 231.84375) scale(0.08 -0.08)">
      <use xlink:href="#DejaVuSans-42"/>
      <use xlink:href="#DejaVuSans-65" transform="translate(68.603516 0)"/>
      <use xlink:href="#DejaVuSans-61" transform="translate(130.126953 0)"/>
      <use xlink:href="#DejaVuSans-64" transform="translate(191.40625 0)"/>
      <use xlink:href="#DejaVuSans-20" transform="translate(254.882812 0)"/>
      <use xlink:href="#DejaVuSans-34" transform="translate(286.669922 0)"/>
      <use xlink:href="#DejaVuSans-31" transform="translate(350.292969 0)"/>
     </g>
    </g>
    <g id="line2d_53">
     <path d="M 424.37 240.78625 
L 432.37 240.78625 
L 440.37 240.78625 
" style="fill: none; stroke: #9edae5; stroke-opacity: 0.7; stroke-linecap: square"/>
     <g>
      <use xlink:href="#m69d680f8dc" x="432.37" y="240.78625" style="fill: #9edae5; fill-opacity: 0.7; stroke: #9edae5; stroke-opacity: 0.7"/>
     </g>
    </g>
    <g id="text_32">
     <!-- Bead 43 -->
     <g transform="translate(446.77 243.58625) scale(0.08 -0.08)">
      <use xlink:href="#DejaVuSans-42"/>
      <use xlink:href="#DejaVuSans-65" transform="translate(68.603516 0)"/>
      <use xlink:href="#DejaVuSans-61" transform="translate(130.126953 0)"/>
      <use xlink:href="#DejaVuSans-64" transform="translate(191.40625 0)"/>
      <use xlink:href="#DejaVuSans-20" transform="translate(254.882812 0)"/>
      <use xlink:href="#DejaVuSans-34" transform="translate(286.669922 0)"/>
      <use xlink:href="#DejaVuSans-33" transform="translate(350.292969 0)"/>
     </g>
    </g>
    <g id="line2d_54">
     <path d="M 424.37 252.52875 
L 432.37 252.52875 
L 440.37 252.52875 
" style="fill: none; stroke: #9edae5; stroke-opacity: 0.7; stroke-linecap: square"/>
     <g>
      <use xlink:href="#m69d680f8dc" x="432.37" y="252.52875" style="fill: #9edae5; fill-opacity: 0.7; stroke: #9edae5; stroke-opacity: 0.7"/>
     </g>
    </g>
    <g id="text_33">
     <!-- Bead 48 -->
     <g transform="translate(446.77 255.32875) scale(0.08 -0.08)">
      <use xlink:href="#DejaVuSans-42"/>
      <use xlink:href="#DejaVuSans-65" transform="translate(68.603516 0)"/>
      <use xlink:href="#DejaVuSans-61" transform="translate(130.126953 0)"/>
      <use xlink:href="#DejaVuSans-64" transform="translate(191.40625 0)"/>
      <use xlink:href="#DejaVuSans-20" transform="translate(254.882812 0)"/>
      <use xlink:href="#DejaVuSans-34" transform="translate(286.669922 0)"/>
      <use xlink:href="#DejaVuSans-38" transform="translate(350.292969 0)"/>
     </g>
    </g>
    <g id="line2d_55">
     <path d="M 424.37 264.27125 
L 432.37 264.27125 
L 440.37 264.27125 
" style="fill: none; stroke: #9edae5; stroke-opacity: 0.7; stroke-linecap: square"/>
     <g>
      <use xlink:href="#m69d680f8dc" x="432.37" y="264.27125" style="fill: #9edae5; fill-opacity: 0.7; stroke: #9edae5; stroke-opacity: 0.7"/>
     </g>
    </g>
    <g id="text_34">
     <!-- Bead 50 -->
     <g transform="translate(446.77 267.07125) scale(0.08 -0.08)">
      <use xlink:href="#DejaVuSans-42"/>
      <use xlink:href="#DejaVuSans-65" transform="translate(68.603516 0)"/>
      <use xlink:href="#DejaVuSans-61" transform="translate(130.126953 0)"/>
      <use xlink:href="#DejaVuSans-64" transform="translate(191.40625 0)"/>
      <use xlink:href="#DejaVuSans-20" transform="translate(254.882812 0)"/>
      <use xlink:href="#DejaVuSans-35" transform="translate(286.669922 0)"/>
      <use xlink:href="#DejaVuSans-30" transform="translate(350.292969 0)"/>
     </g>
    </g>
    <g id="line2d_56">
     <path d="M 424.37 276.01375 
L 432.37 276.01375 
L 440.37 276.01375 
" style="fill: none; stroke: #000000; stroke-width: 2; stroke-linecap: square"/>
    </g>
    <g id="text_35">
     <!-- Mean -->
     <g transform="translate(446.77 278.81375) scale(0.08 -0.08)">
      <defs>
       <path id="DejaVuSans-4d" d="M 628 4666 
L 1569 4666 
L 2759 1491 
L 3956 4666 
L 4897 4666 
L 4897 0 
L 4281 0 
L 4281 4097 
L 3078 897 
L 2444 897 
L 1241 4097 
L 1241 0 
L 628 0 
L 628 4666 
z
" transform="scale(0.015625)"/>
       <path id="DejaVuSans-6e" d="M 3513 2113 
L 3513 0 
L 2938 0 
L 2938 2094 
Q 2938 2591 2744 2837 
Q 2550 3084 2163 3084 
Q 1697 3084 1428 2787 
Q 1159 2491 1159 1978 
L 1159 0 
L 581 0 
L 581 3500 
L 1159 3500 
L 1159 2956 
Q 1366 3272 1645 3428 
Q 1925 3584 2291 3584 
Q 2894 3584 3203 3211 
Q 3513 2838 3513 2113 
z
" transform="scale(0.015625)"/>
      </defs>
      <use xlink:href="#DejaVuSans-4d"/>
      <use xlink:href="#DejaVuSans-65" transform="translate(86.279297 0)"/>
      <use xlink:href="#DejaVuSans-61" transform="translate(147.802734 0)"/>
      <use xlink:href="#DejaVuSans-6e" transform="translate(209.082031 0)"/>
     </g>
    </g>
   </g>
  </g>
 </g>
 <defs>
  <clipPath id="ped0a27177d">
   <rect x="51.535" y="7.2" width="435.55" height="295.6"/>
  </clipPath>
 </defs>
</svg>
