<?xml version="1.0" encoding="utf-8" standalone="no"?>
<!DOCTYPE svg PUBLIC "-//W3C//DTD SVG 1.1//EN"
  "http://www.w3.org/Graphics/SVG/1.1/DTD/svg11.dtd">
<svg xmlns:xlink="http://www.w3.org/1999/xlink" width="494.2275pt" height="352.434375pt" viewBox="0 0 494.2275 352.434375" xmlns="http://www.w3.org/2000/svg" version="1.1">
 <metadata>
  <rdf:RDF xmlns:dc="http://purl.org/dc/elements/1.1/" xmlns:cc="http://creativecommons.org/ns#" xmlns:rdf="http://www.w3.org/1999/02/22-rdf-syntax-ns#">
   <cc:Work>
    <dc:type rdf:resource="http://purl.org/dc/dcmitype/StillImage"/>
    <dc:date>2026-06-22T20:03:31.729588</dc:date>
    <dc:format>image/svg+xml</dc:format>
    <dc:creator>
     <cc:Agent>
      <dc:title>Matplotlib v3.10.9, https://matplotlib.org/</dc:title>
     </cc:Agent>
    </dc:creator>
   </cc:Work>
  </rdf:RDF>
 </metadata>
 <defs>
  <style type="text/css">*{stroke-linejoin: round; stroke-linecap: butt}</style>
 </defs>
 <g id="figure_1">
  <g id="patch_1">
   <path d="M 0 352.434375 
L 494.2275 352.434375 
L 494.2275 0 
L 0 0 
z
" style="fill: #ffffff"/>
  </g>
  <g id="axes_1">
   <g id="patch_2">
    <path d="M 42.6275 305.2 
L 487.0275 305.2 
L 487.0275 7.2 
L 42.6275 7.2 
z
" style="fill: #ffffff"/>
   </g>
   <g id="matplotlib.axis_1">
    <g id="xtick_1">
     <g id="line2d_1">
      <defs>
       <path id="mf504415320" d="M 0 0 
L 0 3.5 
" style="stroke: #000000; stroke-width: 0.8"/>
      </defs>
      <g>
       <use xlink:href="#mf504415320" x="62.507585" y="305.2" style="stroke: #000000; stroke-width: 0.8"/>
      </g>
     </g>
     <g id="text_1">
      <!-- 0 -->
      <g transform="translate(58.053835 322.837812) scale(0.14 -0.14)">
       <defs>
        <path id="DejaVuSans-30" d="M 2034 4250 
Q 1547 4250 1301 3770 
Q 1056 3291 1056 2328 
Q 1056 1369 1301 889 
Q 1547 409 2034 409 
Q 2525 409 2770 889 
Q 3016 1369 3016 2328 
Q 3016 3291 2770 3770 
Q 2525 4250 2034 4250 
z
M 2034 4750 
Q 2819 4750 3233 4129 
Q 3647 3509 3647 2328 
Q 3647 1150 3233 529 
Q 2819 -91 2034 -91 
Q 1250 -91 836 529 
Q 422 1150 422 2328 
Q 422 3509 836 4129 
Q 1250 4750 2034 4750 
z
" transform="scale(0.015625)"/>
       </defs>
       <use xlink:href="#DejaVuSans-30"/>
      </g>
     </g>
    </g>
    <g id="xtick_2">
     <g id="line2d_2">
      <g>
       <use xlink:href="#mf504415320" x="113.09057" y="305.2" style="stroke: #000000; stroke-width: 0.8"/>
      </g>
     </g>
     <g id="text_2">
      <!-- 5 -->
      <g transform="translate(108.63682 322.837812) scale(0.14 -0.14)">
       <defs>
        <path id="DejaVuSans-35" d="M 691 4666 
L 3169 4666 
L 3169 4134 
L 1269 4134 
L 1269 2991 
Q 1406 3038 1543 3061 
Q 1681 3084 1819 3084 
Q 2600 3084 3056 2656 
Q 3513 2228 3513 1497 
Q 3513 744 3044 326 
Q 2575 -91 1722 -91 
Q 1428 -91 1123 -41 
Q 819 9 494 109 
L 494 744 
Q 775 591 1075 516 
Q 1375 441 1709 441 
Q 2250 441 2565 725 
Q 2881 1009 2881 1497 
Q 2881 1984 2565 2268 
Q 2250 2553 1709 2553 
Q 1456 2553 1204 2497 
Q 953 2441 691 2322 
L 691 4666 
z
" transform="scale(0.015625)"/>
       </defs>
       <use xlink:href="#DejaVuSans-35"/>
      </g>
     </g>
    </g>
    <g id="xtick_3">
     <g id="line2d_3">
      <g>
       <use xlink:href="#mf504415320" x="163.673555" y="305.2" style="stroke: #000000; stroke-width: 0.8"/>
      </g>
     </g>
     <g id="text_3">
      <!-- 10 -->
      <g transform="translate(154.766055 322.837812) scale(0.14 -0.14)">
       <defs>
        <path id="DejaVuSans-31" d="M 794 531 
L 1825 531 
L 1825 4091 
L 703 3866 
L 703 4441 
L 1819 4666 
L 2450 4666 
L 2450 531 
L 3481 531 
L 3481 0 
L 794 0 
L 794 531 
z
" transform="scale(0.015625)"/>
       </defs>
       <use xlink:href="#DejaVuSans-31"/>
       <use xlink:href="#DejaVuSans-30" transform="translate(63.623047 0)"/>
      </g>
     </g>
    </g>
    <g id="xtick_4">
     <g id="line2d_4">
      <g>
       <use xlink:href="#mf504415320" x="214.25654" y="305.2" style="stroke: #000000; stroke-width: 0.8"/>
      </g>
     </g>
     <g id="text_4">
      <!-- 15 -->
      <g transform="translate(205.34904 322.837812) scale(0.14 -0.14)">
       <use xlink:href="#DejaVuSans-31"/>
       <use xlink:href="#DejaVuSans-35" transform="translate(63.623047 0)"/>
      </g>
     </g>
    </g>
    <g id="xtick_5">
     <g id="line2d_5">
      <g>
       <use xlink:href="#mf504415320" x="264.839525" y="305.2" style="stroke: #000000; stroke-width: 0.8"/>
      </g>
     </g>
     <g id="text_5">
      <!-- 20 -->
      <g transform="translate(255.932025 322.837812) scale(0.14 -0.14)">
       <defs>
        <path id="DejaVuSans-32" d="M 1228 531 
L 3431 531 
L 3431 0 
L 469 0 
L 469 531 
Q 828 903 1448 1529 
Q 2069 2156 2228 2338 
Q 2531 2678 2651 2914 
Q 2772 3150 2772 3378 
Q 2772 3750 2511 3984 
Q 2250 4219 1831 4219 
Q 1534 4219 1204 4116 
Q 875 4013 500 3803 
L 500 4441 
Q 881 4594 1212 4672 
Q 1544 4750 1819 4750 
Q 2544 4750 2975 4387 
Q 3406 4025 3406 3419 
Q 3406 3131 3298 2873 
Q 3191 2616 2906 2266 
Q 2828 2175 2409 1742 
Q 1991 1309 1228 531 
z
" transform="scale(0.015625)"/>
       </defs>
       <use xlink:href="#DejaVuSans-32"/>
       <use xlink:href="#DejaVuSans-30" transform="translate(63.623047 0)"/>
      </g>
     </g>
    </g>
    <g id="xtick_6">
     <g id="line2d_6">
      <g>
       <use xlink:href="#mf504415320" x="315.42251" y="305.2" style="stroke: #000000; stroke-width: 0.8"/>
      </g>
     </g>
     <g id="text_6">
      <!-- 25 -->
      <g transform="translate(306.51501 322.837812) scale(0.14 -0.14)">
       <use xlink:href="#DejaVuSans-32"/>
       <use xlink:href="#DejaVuSans-35" transform="translate(63.623047 0)"/>
      </g>
     </g>
    </g>
    <g id="xtick_7">
     <g id="line2d_7">
      <g>
       <use xlink:href="#mf504415320" x="366.005495" y="305.2" style="stroke: #000000; stroke-width: 0.8"/>
      </g>
     </g>
     <g id="text_7">
      <!-- 30 -->
      <g transform="translate(357.097995 322.837812) scale(0.14 -0.14)">
       <defs>
        <path id="DejaVuSans-33" d="M 2597 2516 
Q 3050 2419 3304 2112 
Q 3559 1806 3559 1356 
Q 3559 666 3084 287 
Q 2609 -91 1734 -91 
Q 1441 -91 1130 -33 
Q 819 25 488 141 
L 488 750 
Q 750 597 1062 519 
Q 1375 441 1716 441 
Q 2309 441 2620 675 
Q 2931 909 2931 1356 
Q 2931 1769 2642 2001 
Q 2353 2234 1838 2234 
L 1294 2234 
L 1294 2753 
L 1863 2753 
Q 2328 2753 2575 2939 
Q 2822 3125 2822 3475 
Q 2822 3834 2567 4026 
Q 2313 4219 1838 4219 
Q 1578 4219 1281 4162 
Q 984 4106 628 3988 
L 628 4550 
Q 988 4650 1302 4700 
Q 1616 4750 1894 4750 
Q 2613 4750 3031 4423 
Q 3450 4097 3450 3541 
Q 3450 3153 3228 2886 
Q 3006 2619 2597 2516 
z
" transform="scale(0.015625)"/>
       </defs>
       <use xlink:href="#DejaVuSans-33"/>
       <use xlink:href="#DejaVuSans-30" transform="translate(63.623047 0)"/>
      </g>
     </g>
    </g>
    <g id="xtick_8">
     <g id="line2d_8">
      <g>
       <use xlink:href="#mf504415320" x="416.588479" y="305.2" style="stroke: #000000; stroke-width: 0.8"/>
      </g>
     </g>
     <g id="text_8">
      <!-- 35 -->
      <g transform="translate(407.680979 322.837812) scale(0.14 -0.14)">
       <use xlink:href="#DejaVuSans-33"/>
       <use xlink:href="#DejaVuSans-35" transform="translate(63.623047 0)"/>
      </g>
     </g>
    </g>
    <g id="xtick_9">
     <g id="line2d_9">
      <g>
       <use xlink:href="#mf504415320" x="467.171464" y="305.2" style="stroke: #000000; stroke-width: 0.8"/>
      </g>
     </g>
     <g id="text_9">
      <!-- 40 -->
      <g transform="translate(458.263964 322.837812) scale(0.14 -0.14)">
       <defs>
        <path id="DejaVuSans-34" d="M 2419 4116 
L 825 1625 
L 2419 1625 
L 2419 4116 
z
M 2253 4666 
L 3047 4666 
L 3047 1625 
L 3713 1625 
L 3713 1100 
L 3047 1100 
L 3047 0 
L 2419 0 
L 2419 1100 
L 313 1100 
L 313 1709 
L 2253 4666 
z
" transform="scale(0.015625)"/>
       </defs>
       <use xlink:href="#DejaVuSans-34"/>
       <use xlink:href="#DejaVuSans-30" transform="translate(63.623047 0)"/>
      </g>
     </g>
    </g>
    <g id="text_10">
     <!-- Expected force  [pN] -->
     <g transform="translate(172.1525 341.906875) scale(0.16 -0.16)">
      <defs>
       <path id="DejaVuSans-Bold-45" d="M 588 4666 
L 3834 4666 
L 3834 3756 
L 1791 3756 
L 1791 2888 
L 3713 2888 
L 3713 1978 
L 1791 1978 
L 1791 909 
L 3903 909 
L 3903 0 
L 588 0 
L 588 4666 
z
" transform="scale(0.015625)"/>
       <path id="DejaVuSans-Bold-78" d="M 1422 1791 
L 159 3500 
L 1344 3500 
L 2059 2463 
L 2784 3500 
L 3969 3500 
L 2706 1797 
L 4031 0 
L 2847 0 
L 2059 1106 
L 1281 0 
L 97 0 
L 1422 1791 
z
" transform="scale(0.015625)"/>
       <path id="DejaVuSans-Bold-70" d="M 1656 506 
L 1656 -1331 
L 538 -1331 
L 538 3500 
L 1656 3500 
L 1656 2988 
Q 1888 3294 2169 3439 
Q 2450 3584 2816 3584 
Q 3463 3584 3878 3070 
Q 4294 2556 4294 1747 
Q 4294 938 3878 423 
Q 3463 -91 2816 -91 
Q 2450 -91 2169 54 
Q 1888 200 1656 506 
z
M 2400 2772 
Q 2041 2772 1848 2508 
Q 1656 2244 1656 1747 
Q 1656 1250 1848 986 
Q 2041 722 2400 722 
Q 2759 722 2948 984 
Q 3138 1247 3138 1747 
Q 3138 2247 2948 2509 
Q 2759 2772 2400 2772 
z
" transform="scale(0.015625)"/>
       <path id="DejaVuSans-Bold-65" d="M 4031 1759 
L 4031 1441 
L 1416 1441 
Q 1456 1047 1700 850 
Q 1944 653 2381 653 
Q 2734 653 3104 758 
Q 3475 863 3866 1075 
L 3866 213 
Q 3469 63 3072 -14 
Q 2675 -91 2278 -91 
Q 1328 -91 801 392 
Q 275 875 275 1747 
Q 275 2603 792 3093 
Q 1309 3584 2216 3584 
Q 3041 3584 3536 3087 
Q 4031 2591 4031 1759 
z
M 2881 2131 
Q 2881 2450 2695 2645 
Q 2509 2841 2209 2841 
Q 1884 2841 1681 2658 
Q 1478 2475 1428 2131 
L 2881 2131 
z
" transform="scale(0.015625)"/>
       <path id="DejaVuSans-Bold-63" d="M 3366 3391 
L 3366 2478 
Q 3138 2634 2908 2709 
Q 2678 2784 2431 2784 
Q 1963 2784 1702 2511 
Q 1441 2238 1441 1747 
Q 1441 1256 1702 982 
Q 1963 709 2431 709 
Q 2694 709 2930 787 
Q 3166 866 3366 1019 
L 3366 103 
Q 3103 6 2833 -42 
Q 2563 -91 2291 -91 
Q 1344 -91 809 395 
Q 275 881 275 1747 
Q 275 2613 809 3098 
Q 1344 3584 2291 3584 
Q 2566 3584 2833 3536 
Q 3100 3488 3366 3391 
z
" transform="scale(0.015625)"/>
       <path id="DejaVuSans-Bold-74" d="M 1759 4494 
L 1759 3500 
L 2913 3500 
L 2913 2700 
L 1759 2700 
L 1759 1216 
Q 1759 972 1856 886 
Q 1953 800 2241 800 
L 2816 800 
L 2816 0 
L 1856 0 
Q 1194 0 917 276 
Q 641 553 641 1216 
L 641 2700 
L 84 2700 
L 84 3500 
L 641 3500 
L 641 4494 
L 1759 4494 
z
" transform="scale(0.015625)"/>
       <path id="DejaVuSans-Bold-64" d="M 2919 2988 
L 2919 4863 
L 4044 4863 
L 4044 0 
L 2919 0 
L 2919 506 
Q 2688 197 2409 53 
Q 2131 -91 1766 -91 
Q 1119 -91 703 423 
Q 288 938 288 1747 
Q 288 2556 703 3070 
Q 1119 3584 1766 3584 
Q 2128 3584 2408 3439 
Q 2688 3294 2919 2988 
z
M 2181 722 
Q 2541 722 2730 984 
Q 2919 1247 2919 1747 
Q 2919 2247 2730 2509 
Q 2541 2772 2181 2772 
Q 1825 2772 1636 2509 
Q 1447 2247 1447 1747 
Q 1447 1247 1636 984 
Q 1825 722 2181 722 
z
" transform="scale(0.015625)"/>
       <path id="DejaVuSans-Bold-20" transform="scale(0.015625)"/>
       <path id="DejaVuSans-Bold-66" d="M 2841 4863 
L 2841 4128 
L 2222 4128 
Q 1984 4128 1890 4042 
Q 1797 3956 1797 3744 
L 1797 3500 
L 2753 3500 
L 2753 2700 
L 1797 2700 
L 1797 0 
L 678 0 
L 678 2700 
L 122 2700 
L 122 3500 
L 678 3500 
L 678 3744 
Q 678 4316 997 4589 
Q 1316 4863 1984 4863 
L 2841 4863 
z
" transform="scale(0.015625)"/>
       <path id="DejaVuSans-Bold-6f" d="M 2203 2784 
Q 1831 2784 1636 2517 
Q 1441 2250 1441 1747 
Q 1441 1244 1636 976 
Q 1831 709 2203 709 
Q 2569 709 2762 976 
Q 2956 1244 2956 1747 
Q 2956 2250 2762 2517 
Q 2569 2784 2203 2784 
z
M 2203 3584 
Q 3106 3584 3614 3096 
Q 4122 2609 4122 1747 
Q 4122 884 3614 396 
Q 3106 -91 2203 -91 
Q 1297 -91 786 396 
Q 275 884 275 1747 
Q 275 2609 786 3096 
Q 1297 3584 2203 3584 
z
" transform="scale(0.015625)"/>
       <path id="DejaVuSans-Bold-72" d="M 3138 2547 
Q 2991 2616 2845 2648 
Q 2700 2681 2553 2681 
Q 2122 2681 1889 2404 
Q 1656 2128 1656 1613 
L 1656 0 
L 538 0 
L 538 3500 
L 1656 3500 
L 1656 2925 
Q 1872 3269 2151 3426 
Q 2431 3584 2822 3584 
Q 2878 3584 2943 3579 
Q 3009 3575 3134 3559 
L 3138 2547 
z
" transform="scale(0.015625)"/>
       <path id="DejaVuSans-Bold-5b" d="M 550 4863 
L 2491 4863 
L 2491 4159 
L 1613 4159 
L 1613 -141 
L 2491 -141 
L 2491 -844 
L 550 -844 
L 550 4863 
z
" transform="scale(0.015625)"/>
       <path id="DejaVuSans-Bold-4e" d="M 588 4666 
L 1931 4666 
L 3628 1466 
L 3628 4666 
L 4769 4666 
L 4769 0 
L 3425 0 
L 1728 3200 
L 1728 0 
L 588 0 
L 588 4666 
z
" transform="scale(0.015625)"/>
       <path id="DejaVuSans-Bold-5d" d="M 2375 -844 
L 434 -844 
L 434 -141 
L 1313 -141 
L 1313 4159 
L 434 4159 
L 434 4863 
L 2375 4863 
L 2375 -844 
z
" transform="scale(0.015625)"/>
      </defs>
      <use xlink:href="#DejaVuSans-Bold-45"/>
      <use xlink:href="#DejaVuSans-Bold-78" transform="translate(68.310547 0)"/>
      <use xlink:href="#DejaVuSans-Bold-70" transform="translate(132.8125 0)"/>
      <use xlink:href="#DejaVuSans-Bold-65" transform="translate(204.394531 0)"/>
      <use xlink:href="#DejaVuSans-Bold-63" transform="translate(272.216797 0)"/>
      <use xlink:href="#DejaVuSans-Bold-74" transform="translate(331.494141 0)"/>
      <use xlink:href="#DejaVuSans-Bold-65" transform="translate(379.296875 0)"/>
      <use xlink:href="#DejaVuSans-Bold-64" transform="translate(447.119141 0)"/>
      <use xlink:href="#DejaVuSans-Bold-20" transform="translate(518.701172 0)"/>
      <use xlink:href="#DejaVuSans-Bold-66" transform="translate(553.515625 0)"/>
      <use xlink:href="#DejaVuSans-Bold-6f" transform="translate(597.021484 0)"/>
      <use xlink:href="#DejaVuSans-Bold-72" transform="translate(665.722656 0)"/>
      <use xlink:href="#DejaVuSans-Bold-63" transform="translate(715.039062 0)"/>
      <use xlink:href="#DejaVuSans-Bold-65" transform="translate(774.316406 0)"/>
      <use xlink:href="#DejaVuSans-Bold-20" transform="translate(842.138672 0)"/>
      <use xlink:href="#DejaVuSans-Bold-20" transform="translate(876.953125 0)"/>
      <use xlink:href="#DejaVuSans-Bold-5b" transform="translate(911.767578 0)"/>
      <use xlink:href="#DejaVuSans-Bold-70" transform="translate(957.470703 0)"/>
      <use xlink:href="#DejaVuSans-Bold-4e" transform="translate(1029.052734 0)"/>
      <use xlink:href="#DejaVuSans-Bold-5d" transform="translate(1112.744141 0)"/>
     </g>
    </g>
   </g>
   <g id="matplotlib.axis_2">
    <g id="ytick_1">
     <g id="line2d_10">
      <defs>
       <path id="me272b07afe" d="M 0 0 
L -3.5 0 
" style="stroke: #000000; stroke-width: 0.8"/>
      </defs>
      <g>
       <use xlink:href="#me272b07afe" x="42.6275" y="265.386414" style="stroke: #000000; stroke-width: 0.8"/>
      </g>
     </g>
     <g id="text_11">
      <!-- 2 -->
      <g transform="translate(26.72 270.705321) scale(0.14 -0.14)">
       <use xlink:href="#DejaVuSans-32"/>
      </g>
     </g>
    </g>
    <g id="ytick_2">
     <g id="line2d_11">
      <g>
       <use xlink:href="#me272b07afe" x="42.6275" y="218.475419" style="stroke: #000000; stroke-width: 0.8"/>
      </g>
     </g>
     <g id="text_12">
      <!-- 3 -->
      <g transform="translate(26.72 223.794326) scale(0.14 -0.14)">
       <use xlink:href="#DejaVuSans-33"/>
      </g>
     </g>
    </g>
    <g id="ytick_3">
     <g id="line2d_12">
      <g>
       <use xlink:href="#me272b07afe" x="42.6275" y="171.564424" style="stroke: #000000; stroke-width: 0.8"/>
      </g>
     </g>
     <g id="text_13">
      <!-- 4 -->
      <g transform="translate(26.72 176.883331) scale(0.14 -0.14)">
       <use xlink:href="#DejaVuSans-34"/>
      </g>
     </g>
    </g>
    <g id="ytick_4">
     <g id="line2d_13">
      <g>
       <use xlink:href="#me272b07afe" x="42.6275" y="124.65343" style="stroke: #000000; stroke-width: 0.8"/>
      </g>
     </g>
     <g id="text_14">
      <!-- 5 -->
      <g transform="translate(26.72 129.972336) scale(0.14 -0.14)">
       <use xlink:href="#DejaVuSans-35"/>
      </g>
     </g>
    </g>
    <g id="ytick_5">
     <g id="line2d_14">
      <g>
       <use xlink:href="#me272b07afe" x="42.6275" y="77.742435" style="stroke: #000000; stroke-width: 0.8"/>
      </g>
     </g>
     <g id="text_15">
      <!-- 6 -->
      <g transform="translate(26.72 83.061341) scale(0.14 -0.14)">
       <defs>
        <path id="DejaVuSans-36" d="M 2113 2584 
Q 1688 2584 1439 2293 
Q 1191 2003 1191 1497 
Q 1191 994 1439 701 
Q 1688 409 2113 409 
Q 2538 409 2786 701 
Q 3034 994 3034 1497 
Q 3034 2003 2786 2293 
Q 2538 2584 2113 2584 
z
M 3366 4563 
L 3366 3988 
Q 3128 4100 2886 4159 
Q 2644 4219 2406 4219 
Q 1781 4219 1451 3797 
Q 1122 3375 1075 2522 
Q 1259 2794 1537 2939 
Q 1816 3084 2150 3084 
Q 2853 3084 3261 2657 
Q 3669 2231 3669 1497 
Q 3669 778 3244 343 
Q 2819 -91 2113 -91 
Q 1303 -91 875 529 
Q 447 1150 447 2328 
Q 447 3434 972 4092 
Q 1497 4750 2381 4750 
Q 2619 4750 2861 4703 
Q 3103 4656 3366 4563 
z
" transform="scale(0.015625)"/>
       </defs>
       <use xlink:href="#DejaVuSans-36"/>
      </g>
     </g>
    </g>
    <g id="ytick_6">
     <g id="line2d_15">
      <g>
       <use xlink:href="#me272b07afe" x="42.6275" y="30.83144" style="stroke: #000000; stroke-width: 0.8"/>
      </g>
     </g>
     <g id="text_16">
      <!-- 7 -->
      <g transform="translate(26.72 36.150346) scale(0.14 -0.14)">
       <defs>
        <path id="DejaVuSans-37" d="M 525 4666 
L 3525 4666 
L 3525 4397 
L 1831 0 
L 1172 0 
L 2766 4134 
L 525 4134 
L 525 4666 
z
" transform="scale(0.015625)"/>
       </defs>
       <use xlink:href="#DejaVuSans-37"/>
      </g>
     </g>
    </g>
    <g id="text_17">
     <!-- $L_\mathrm{ext}$  [$\mu$m] -->
     <g transform="translate(19.36 196.2) rotate(-90) scale(0.16 -0.16)">
      <defs>
       <path id="DejaVuSans-Oblique-4c" d="M 1075 4666 
L 1709 4666 
L 909 525 
L 3181 525 
L 3078 0 
L 172 0 
L 1075 4666 
z
" transform="scale(0.015625)"/>
       <path id="DejaVuSans-65" d="M 3597 1894 
L 3597 1613 
L 953 1613 
Q 991 1019 1311 708 
Q 1631 397 2203 397 
Q 2534 397 2845 478 
Q 3156 559 3463 722 
L 3463 178 
Q 3153 47 2828 -22 
Q 2503 -91 2169 -91 
Q 1331 -91 842 396 
Q 353 884 353 1716 
Q 353 2575 817 3079 
Q 1281 3584 2069 3584 
Q 2775 3584 3186 3129 
Q 3597 2675 3597 1894 
z
M 3022 2063 
Q 3016 2534 2758 2815 
Q 2500 3097 2075 3097 
Q 1594 3097 1305 2825 
Q 1016 2553 972 2059 
L 3022 2063 
z
" transform="scale(0.015625)"/>
       <path id="DejaVuSans-78" d="M 3513 3500 
L 2247 1797 
L 3578 0 
L 2900 0 
L 1881 1375 
L 863 0 
L 184 0 
L 1544 1831 
L 300 3500 
L 978 3500 
L 1906 2253 
L 2834 3500 
L 3513 3500 
z
" transform="scale(0.015625)"/>
       <path id="DejaVuSans-74" d="M 1172 4494 
L 1172 3500 
L 2356 3500 
L 2356 3053 
L 1172 3053 
L 1172 1153 
Q 1172 725 1289 603 
Q 1406 481 1766 481 
L 2356 481 
L 2356 0 
L 1766 0 
Q 1100 0 847 248 
Q 594 497 594 1153 
L 594 3053 
L 172 3053 
L 172 3500 
L 594 3500 
L 594 4494 
L 1172 4494 
z
" transform="scale(0.015625)"/>
       <path id="DejaVuSans-Oblique-3bc" d="M -84 -1331 
L 856 3500 
L 1434 3500 
L 1009 1322 
Q 997 1256 987 1175 
Q 978 1094 978 1013 
Q 978 722 1161 565 
Q 1344 409 1684 409 
Q 2147 409 2431 671 
Q 2716 934 2816 1459 
L 3213 3500 
L 3788 3500 
L 3266 809 
Q 3253 750 3248 706 
Q 3244 663 3244 628 
Q 3244 531 3283 486 
Q 3322 441 3406 441 
Q 3438 441 3492 456 
Q 3547 472 3647 513 
L 3559 50 
Q 3422 -19 3297 -55 
Q 3172 -91 3053 -91 
Q 2847 -91 2730 40 
Q 2613 172 2613 403 
Q 2438 153 2195 31 
Q 1953 -91 1625 -91 
Q 1334 -91 1117 43 
Q 900 178 831 397 
L 494 -1331 
L -84 -1331 
z
" transform="scale(0.015625)"/>
       <path id="DejaVuSans-Bold-6d" d="M 3781 2919 
Q 3994 3244 4286 3414 
Q 4578 3584 4928 3584 
Q 5531 3584 5847 3212 
Q 6163 2841 6163 2131 
L 6163 0 
L 5038 0 
L 5038 1825 
Q 5041 1866 5042 1909 
Q 5044 1953 5044 2034 
Q 5044 2406 4934 2573 
Q 4825 2741 4581 2741 
Q 4263 2741 4089 2478 
Q 3916 2216 3909 1719 
L 3909 0 
L 2784 0 
L 2784 1825 
Q 2784 2406 2684 2573 
Q 2584 2741 2328 2741 
Q 2006 2741 1831 2477 
Q 1656 2213 1656 1722 
L 1656 0 
L 531 0 
L 531 3500 
L 1656 3500 
L 1656 2988 
Q 1863 3284 2130 3434 
Q 2397 3584 2719 3584 
Q 3081 3584 3359 3409 
Q 3638 3234 3781 2919 
z
" transform="scale(0.015625)"/>
      </defs>
      <use xlink:href="#DejaVuSans-Oblique-4c" transform="translate(0 0.015625)"/>
      <use xlink:href="#DejaVuSans-65" transform="translate(55.712891 -16.390625) scale(0.7)"/>
      <use xlink:href="#DejaVuSans-78" transform="translate(98.779297 -16.390625) scale(0.7)"/>
      <use xlink:href="#DejaVuSans-74" transform="translate(140.205078 -16.390625) scale(0.7)"/>
      <use xlink:href="#DejaVuSans-Bold-20" transform="translate(170.385742 0.015625)"/>
      <use xlink:href="#DejaVuSans-Bold-20" transform="translate(205.200195 0.015625)"/>
      <use xlink:href="#DejaVuSans-Bold-5b" transform="translate(240.014648 0.015625)"/>
      <use xlink:href="#DejaVuSans-Oblique-3bc" transform="translate(285.717773 0.015625)"/>
      <use xlink:href="#DejaVuSans-Bold-6d" transform="translate(349.34082 0.015625)"/>
      <use xlink:href="#DejaVuSans-Bold-5d" transform="translate(453.540039 0.015625)"/>
     </g>
    </g>
   </g>
   <g id="patch_3">
    <path d="M 42.6275 305.2 
L 42.6275 7.2 
" style="fill: none; stroke: #000000; stroke-width: 0.8; stroke-linejoin: miter; stroke-linecap: square"/>
   </g>
   <g id="patch_4">
    <path d="M 487.0275 305.2 
L 487.0275 7.2 
" style="fill: none; stroke: #000000; stroke-width: 0.8; stroke-linejoin: miter; stroke-linecap: square"/>
   </g>
   <g id="patch_5">
    <path d="M 42.6275 305.2 
L 487.0275 305.2 
" style="fill: none; stroke: #000000; stroke-width: 0.8; stroke-linejoin: miter; stroke-linecap: square"/>
   </g>
   <g id="patch_6">
    <path d="M 42.6275 7.2 
L 487.0275 7.2 
" style="fill: none; stroke: #000000; stroke-width: 0.8; stroke-linejoin: miter; stroke-linecap: square"/>
   </g>
   <g id="line2d_16">
    <path d="M 63.519245 195.062545 
L 67.565884 99.395514 
L 72.644415 78.722708 
L 82.720546 63.997365 
L 113.09057 49.587316 
L 163.89612 41.548504 
L 214.307123 37.91064 
L 264.212296 35.107727 
L 365.084884 30.707996 
L 466.8275 27.437698 
" clip-path="url(#p64c758a8c2)" style="fill: none; stroke: #1f77b4; stroke-opacity: 0.8; stroke-width: 1.2; stroke-linecap: square"/>
    <defs>
     <path id="md2a1d6eb2c" d="M 0 2.5 
C 0.663008 2.5 1.29895 2.236584 1.767767 1.767767 
C 2.236584 1.29895 2.5 0.663008 2.5 0 
C 2.5 -0.663008 2.236584 -1.29895 1.767767 -1.767767 
C 1.29895 -2.236584 0.663008 -2.5 0 -2.5 
C -0.663008 -2.5 -1.29895 -2.236584 -1.767767 -1.767767 
C -2.236584 -1.29895 -2.5 -0.663008 -2.5 0 
C -2.5 0.663008 -2.236584 1.29895 -1.767767 1.767767 
C -1.29895 2.236584 -0.663008 2.5 0 2.5 
z
" style="stroke: #1f77b4; stroke-opacity: 0.8"/>
    </defs>
    <g clip-path="url(#p64c758a8c2)">
     <use xlink:href="#md2a1d6eb2c" x="63.519245" y="195.062545" style="fill: #1f77b4; fill-opacity: 0.8; stroke: #1f77b4; stroke-opacity: 0.8"/>
     <use xlink:href="#md2a1d6eb2c" x="67.565884" y="99.395514" style="fill: #1f77b4; fill-opacity: 0.8; stroke: #1f77b4; stroke-opacity: 0.8"/>
     <use xlink:href="#md2a1d6eb2c" x="72.644415" y="78.722708" style="fill: #1f77b4; fill-opacity: 0.8; stroke: #1f77b4; stroke-opacity: 0.8"/>
     <use xlink:href="#md2a1d6eb2c" x="82.720546" y="63.997365" style="fill: #1f77b4; fill-opacity: 0.8; stroke: #1f77b4; stroke-opacity: 0.8"/>
     <use xlink:href="#md2a1d6eb2c" x="113.09057" y="49.587316" style="fill: #1f77b4; fill-opacity: 0.8; stroke: #1f77b4; stroke-opacity: 0.8"/>
     <use xlink:href="#md2a1d6eb2c" x="163.89612" y="41.548504" style="fill: #1f77b4; fill-opacity: 0.8; stroke: #1f77b4; stroke-opacity: 0.8"/>
     <use xlink:href="#md2a1d6eb2c" x="214.307123" y="37.91064" style="fill: #1f77b4; fill-opacity: 0.8; stroke: #1f77b4; stroke-opacity: 0.8"/>
     <use xlink:href="#md2a1d6eb2c" x="264.212296" y="35.107727" style="fill: #1f77b4; fill-opacity: 0.8; stroke: #1f77b4; stroke-opacity: 0.8"/>
     <use xlink:href="#md2a1d6eb2c" x="365.084884" y="30.707996" style="fill: #1f77b4; fill-opacity: 0.8; stroke: #1f77b4; stroke-opacity: 0.8"/>
     <use xlink:href="#md2a1d6eb2c" x="466.8275" y="27.437698" style="fill: #1f77b4; fill-opacity: 0.8; stroke: #1f77b4; stroke-opacity: 0.8"/>
    </g>
   </g>
   <g id="line2d_17">
    <path clip-path="url(#p64c758a8c2)" style="fill: none; stroke: #aec7e8; stroke-opacity: 0.8; stroke-width: 1.2; stroke-linecap: square"/>
    <defs>
     <path id="m81c4bb8e46" d="M 0 2.5 
C 0.663008 2.5 1.29895 2.236584 1.767767 1.767767 
C 2.236584 1.29895 2.5 0.663008 2.5 0 
C 2.5 -0.663008 2.236584 -1.29895 1.767767 -1.767767 
C 1.29895 -2.236584 0.663008 -2.5 0 -2.5 
C -0.663008 -2.5 -1.29895 -2.236584 -1.767767 -1.767767 
C -2.236584 -1.29895 -2.5 -0.663008 -2.5 0 
C -2.5 0.663008 -2.236584 1.29895 -1.767767 1.767767 
C -1.29895 2.236584 -0.663008 2.5 0 2.5 
z
" style="stroke: #aec7e8; stroke-opacity: 0.8"/>
    </defs>
    <g clip-path="url(#p64c758a8c2)"/>
   </g>
   <g id="line2d_18">
    <path clip-path="url(#p64c758a8c2)" style="fill: none; stroke: #ff7f0e; stroke-opacity: 0.8; stroke-width: 1.2; stroke-linecap: square"/>
    <defs>
     <path id="meb97b4facb" d="M 0 2.5 
C 0.663008 2.5 1.29895 2.236584 1.767767 1.767767 
C 2.236584 1.29895 2.5 0.663008 2.5 0 
C 2.5 -0.663008 2.236584 -1.29895 1.767767 -1.767767 
C 1.29895 -2.236584 0.663008 -2.5 0 -2.5 
C -0.663008 -2.5 -1.29895 -2.236584 -1.767767 -1.767767 
C -2.236584 -1.29895 -2.5 -0.663008 -2.5 0 
C -2.5 0.663008 -2.236584 1.29895 -1.767767 1.767767 
C -1.29895 2.236584 -0.663008 2.5 0 2.5 
z
" style="stroke: #ff7f0e; stroke-opacity: 0.8"/>
    </defs>
    <g clip-path="url(#p64c758a8c2)"/>
   </g>
   <g id="line2d_19">
    <path d="M 63.519245 223.41246 
L 67.565884 122.413398 
L 72.644415 101.909514 
L 82.720546 87.119292 
L 113.09057 72.965931 
L 163.89612 57.506583 
L 214.307123 50.531529 
L 264.212296 46.043324 
" clip-path="url(#p64c758a8c2)" style="fill: none; stroke: #ffbb78; stroke-opacity: 0.8; stroke-width: 1.2; stroke-linecap: square"/>
    <defs>
     <path id="mb3a905905f" d="M 0 2.5 
C 0.663008 2.5 1.29895 2.236584 1.767767 1.767767 
C 2.236584 1.29895 2.5 0.663008 2.5 0 
C 2.5 -0.663008 2.236584 -1.29895 1.767767 -1.767767 
C 1.29895 -2.236584 0.663008 -2.5 0 -2.5 
C -0.663008 -2.5 -1.29895 -2.236584 -1.767767 -1.767767 
C -2.236584 -1.29895 -2.5 -0.663008 -2.5 0 
C -2.5 0.663008 -2.236584 1.29895 -1.767767 1.767767 
C -1.29895 2.236584 -0.663008 2.5 0 2.5 
z
" style="stroke: #ffbb78; stroke-opacity: 0.8"/>
    </defs>
    <g clip-path="url(#p64c758a8c2)">
     <use xlink:href="#mb3a905905f" x="63.519245" y="223.41246" style="fill: #ffbb78; fill-opacity: 0.8; stroke: #ffbb78; stroke-opacity: 0.8"/>
     <use xlink:href="#mb3a905905f" x="67.565884" y="122.413398" style="fill: #ffbb78; fill-opacity: 0.8; stroke: #ffbb78; stroke-opacity: 0.8"/>
     <use xlink:href="#mb3a905905f" x="72.644415" y="101.909514" style="fill: #ffbb78; fill-opacity: 0.8; stroke: #ffbb78; stroke-opacity: 0.8"/>
     <use xlink:href="#mb3a905905f" x="82.720546" y="87.119292" style="fill: #ffbb78; fill-opacity: 0.8; stroke: #ffbb78; stroke-opacity: 0.8"/>
     <use xlink:href="#mb3a905905f" x="113.09057" y="72.965931" style="fill: #ffbb78; fill-opacity: 0.8; stroke: #ffbb78; stroke-opacity: 0.8"/>
     <use xlink:href="#mb3a905905f" x="163.89612" y="57.506583" style="fill: #ffbb78; fill-opacity: 0.8; stroke: #ffbb78; stroke-opacity: 0.8"/>
     <use xlink:href="#mb3a905905f" x="214.307123" y="50.531529" style="fill: #ffbb78; fill-opacity: 0.8; stroke: #ffbb78; stroke-opacity: 0.8"/>
     <use xlink:href="#mb3a905905f" x="264.212296" y="46.043324" style="fill: #ffbb78; fill-opacity: 0.8; stroke: #ffbb78; stroke-opacity: 0.8"/>
    </g>
   </g>
   <g id="line2d_20">
    <path d="M 63.519245 194.107966 
L 67.565884 100.700776 
L 72.644415 80.992482 
L 82.720546 65.0303 
L 113.09057 50.416407 
L 163.89612 42.091434 
L 214.307123 37.690719 
L 264.212296 34.669342 
L 365.084884 29.532296 
L 466.8275 25.484723 
" clip-path="url(#p64c758a8c2)" style="fill: none; stroke: #2ca02c; stroke-opacity: 0.8; stroke-width: 1.2; stroke-linecap: square"/>
    <defs>
     <path id="mc84fda3ea7" d="M 0 2.5 
C 0.663008 2.5 1.29895 2.236584 1.767767 1.767767 
C 2.236584 1.29895 2.5 0.663008 2.5 0 
C 2.5 -0.663008 2.236584 -1.29895 1.767767 -1.767767 
C 1.29895 -2.236584 0.663008 -2.5 0 -2.5 
C -0.663008 -2.5 -1.29895 -2.236584 -1.767767 -1.767767 
C -2.236584 -1.29895 -2.5 -0.663008 -2.5 0 
C -2.5 0.663008 -2.236584 1.29895 -1.767767 1.767767 
C -1.29895 2.236584 -0.663008 2.5 0 2.5 
z
" style="stroke: #2ca02c; stroke-opacity: 0.8"/>
    </defs>
    <g clip-path="url(#p64c758a8c2)">
     <use xlink:href="#mc84fda3ea7" x="63.519245" y="194.107966" style="fill: #2ca02c; fill-opacity: 0.8; stroke: #2ca02c; stroke-opacity: 0.8"/>
     <use xlink:href="#mc84fda3ea7" x="67.565884" y="100.700776" style="fill: #2ca02c; fill-opacity: 0.8; stroke: #2ca02c; stroke-opacity: 0.8"/>
     <use xlink:href="#mc84fda3ea7" x="72.644415" y="80.992482" style="fill: #2ca02c; fill-opacity: 0.8; stroke: #2ca02c; stroke-opacity: 0.8"/>
     <use xlink:href="#mc84fda3ea7" x="82.720546" y="65.0303" style="fill: #2ca02c; fill-opacity: 0.8; stroke: #2ca02c; stroke-opacity: 0.8"/>
     <use xlink:href="#mc84fda3ea7" x="113.09057" y="50.416407" style="fill: #2ca02c; fill-opacity: 0.8; stroke: #2ca02c; stroke-opacity: 0.8"/>
     <use xlink:href="#mc84fda3ea7" x="163.89612" y="42.091434" style="fill: #2ca02c; fill-opacity: 0.8; stroke: #2ca02c; stroke-opacity: 0.8"/>
     <use xlink:href="#mc84fda3ea7" x="214.307123" y="37.690719" style="fill: #2ca02c; fill-opacity: 0.8; stroke: #2ca02c; stroke-opacity: 0.8"/>
     <use xlink:href="#mc84fda3ea7" x="264.212296" y="34.669342" style="fill: #2ca02c; fill-opacity: 0.8; stroke: #2ca02c; stroke-opacity: 0.8"/>
     <use xlink:href="#mc84fda3ea7" x="365.084884" y="29.532296" style="fill: #2ca02c; fill-opacity: 0.8; stroke: #2ca02c; stroke-opacity: 0.8"/>
     <use xlink:href="#mc84fda3ea7" x="466.8275" y="25.484723" style="fill: #2ca02c; fill-opacity: 0.8; stroke: #2ca02c; stroke-opacity: 0.8"/>
    </g>
   </g>
   <g id="line2d_21">
    <path clip-path="url(#p64c758a8c2)" style="fill: none; stroke: #98df8a; stroke-opacity: 0.8; stroke-width: 1.2; stroke-linecap: square"/>
    <defs>
     <path id="m9d58254e45" d="M 0 2.5 
C 0.663008 2.5 1.29895 2.236584 1.767767 1.767767 
C 2.236584 1.29895 2.5 0.663008 2.5 0 
C 2.5 -0.663008 2.236584 -1.29895 1.767767 -1.767767 
C 1.29895 -2.236584 0.663008 -2.5 0 -2.5 
C -0.663008 -2.5 -1.29895 -2.236584 -1.767767 -1.767767 
C -2.236584 -1.29895 -2.5 -0.663008 -2.5 0 
C -2.5 0.663008 -2.236584 1.29895 -1.767767 1.767767 
C -1.29895 2.236584 -0.663008 2.5 0 2.5 
z
" style="stroke: #98df8a; stroke-opacity: 0.8"/>
    </defs>
    <g clip-path="url(#p64c758a8c2)"/>
   </g>
   <g id="line2d_22">
    <path clip-path="url(#p64c758a8c2)" style="fill: none; stroke: #d62728; stroke-opacity: 0.8; stroke-width: 1.2; stroke-linecap: square"/>
    <defs>
     <path id="m19f0430db8" d="M 0 2.5 
C 0.663008 2.5 1.29895 2.236584 1.767767 1.767767 
C 2.236584 1.29895 2.5 0.663008 2.5 0 
C 2.5 -0.663008 2.236584 -1.29895 1.767767 -1.767767 
C 1.29895 -2.236584 0.663008 -2.5 0 -2.5 
C -0.663008 -2.5 -1.29895 -2.236584 -1.767767 -1.767767 
C -2.236584 -1.29895 -2.5 -0.663008 -2.5 0 
C -2.5 0.663008 -2.236584 1.29895 -1.767767 1.767767 
C -1.29895 2.236584 -0.663008 2.5 0 2.5 
z
" style="stroke: #d62728; stroke-opacity: 0.8"/>
    </defs>
    <g clip-path="url(#p64c758a8c2)"/>
   </g>
   <g id="line2d_23">
    <path clip-path="url(#p64c758a8c2)" style="fill: none; stroke: #ff9896; stroke-opacity: 0.8; stroke-width: 1.2; stroke-linecap: square"/>
    <defs>
     <path id="m2454a48638" d="M 0 2.5 
C 0.663008 2.5 1.29895 2.236584 1.767767 1.767767 
C 2.236584 1.29895 2.5 0.663008 2.5 0 
C 2.5 -0.663008 2.236584 -1.29895 1.767767 -1.767767 
C 1.29895 -2.236584 0.663008 -2.5 0 -2.5 
C -0.663008 -2.5 -1.29895 -2.236584 -1.767767 -1.767767 
C -2.236584 -1.29895 -2.5 -0.663008 -2.5 0 
C -2.5 0.663008 -2.236584 1.29895 -1.767767 1.767767 
C -1.29895 2.236584 -0.663008 2.5 0 2.5 
z
" style="stroke: #ff9896; stroke-opacity: 0.8"/>
    </defs>
    <g clip-path="url(#p64c758a8c2)"/>
   </g>
   <g id="line2d_24">
    <path d="M 63.519245 200.14831 
L 67.565884 102.255475 
L 72.644415 81.056713 
L 82.720546 66.344845 
L 113.09057 52.299911 
L 163.89612 43.753879 
L 214.307123 39.200715 
L 264.212296 36.085604 
L 365.084884 31.628716 
" clip-path="url(#p64c758a8c2)" style="fill: none; stroke: #9467bd; stroke-opacity: 0.8; stroke-width: 1.2; stroke-linecap: square"/>
    <defs>
     <path id="ma02f515fe5" d="M 0 2.5 
C 0.663008 2.5 1.29895 2.236584 1.767767 1.767767 
C 2.236584 1.29895 2.5 0.663008 2.5 0 
C 2.5 -0.663008 2.236584 -1.29895 1.767767 -1.767767 
C 1.29895 -2.236584 0.663008 -2.5 0 -2.5 
C -0.663008 -2.5 -1.29895 -2.236584 -1.767767 -1.767767 
C -2.236584 -1.29895 -2.5 -0.663008 -2.5 0 
C -2.5 0.663008 -2.236584 1.29895 -1.767767 1.767767 
C -1.29895 2.236584 -0.663008 2.5 0 2.5 
z
" style="stroke: #9467bd; stroke-opacity: 0.8"/>
    </defs>
    <g clip-path="url(#p64c758a8c2)">
     <use xlink:href="#ma02f515fe5" x="63.519245" y="200.14831" style="fill: #9467bd; fill-opacity: 0.8; stroke: #9467bd; stroke-opacity: 0.8"/>
     <use xlink:href="#ma02f515fe5" x="67.565884" y="102.255475" style="fill: #9467bd; fill-opacity: 0.8; stroke: #9467bd; stroke-opacity: 0.8"/>
     <use xlink:href="#ma02f515fe5" x="72.644415" y="81.056713" style="fill: #9467bd; fill-opacity: 0.8; stroke: #9467bd; stroke-opacity: 0.8"/>
     <use xlink:href="#ma02f515fe5" x="82.720546" y="66.344845" style="fill: #9467bd; fill-opacity: 0.8; stroke: #9467bd; stroke-opacity: 0.8"/>
     <use xlink:href="#ma02f515fe5" x="113.09057" y="52.299911" style="fill: #9467bd; fill-opacity: 0.8; stroke: #9467bd; stroke-opacity: 0.8"/>
     <use xlink:href="#ma02f515fe5" x="163.89612" y="43.753879" style="fill: #9467bd; fill-opacity: 0.8; stroke: #9467bd; stroke-opacity: 0.8"/>
     <use xlink:href="#ma02f515fe5" x="214.307123" y="39.200715" style="fill: #9467bd; fill-opacity: 0.8; stroke: #9467bd; stroke-opacity: 0.8"/>
     <use xlink:href="#ma02f515fe5" x="264.212296" y="36.085604" style="fill: #9467bd; fill-opacity: 0.8; stroke: #9467bd; stroke-opacity: 0.8"/>
     <use xlink:href="#ma02f515fe5" x="365.084884" y="31.628716" style="fill: #9467bd; fill-opacity: 0.8; stroke: #9467bd; stroke-opacity: 0.8"/>
    </g>
   </g>
   <g id="line2d_25">
    <path d="M 63.519245 190.885921 
L 67.565884 101.413404 
L 72.644415 80.706329 
L 82.720546 69.791287 
L 113.09057 58.084029 
L 163.89612 50.617968 
L 214.307123 44.970983 
L 264.212296 40.655108 
L 365.084884 33.842219 
L 466.8275 28.370928 
" clip-path="url(#p64c758a8c2)" style="fill: none; stroke: #c5b0d5; stroke-opacity: 0.8; stroke-width: 1.2; stroke-linecap: square"/>
    <defs>
     <path id="ma8ce32a9ae" d="M 0 2.5 
C 0.663008 2.5 1.29895 2.236584 1.767767 1.767767 
C 2.236584 1.29895 2.5 0.663008 2.5 0 
C 2.5 -0.663008 2.236584 -1.29895 1.767767 -1.767767 
C 1.29895 -2.236584 0.663008 -2.5 0 -2.5 
C -0.663008 -2.5 -1.29895 -2.236584 -1.767767 -1.767767 
C -2.236584 -1.29895 -2.5 -0.663008 -2.5 0 
C -2.5 0.663008 -2.236584 1.29895 -1.767767 1.767767 
C -1.29895 2.236584 -0.663008 2.5 0 2.5 
z
" style="stroke: #c5b0d5; stroke-opacity: 0.8"/>
    </defs>
    <g clip-path="url(#p64c758a8c2)">
     <use xlink:href="#ma8ce32a9ae" x="63.519245" y="190.885921" style="fill: #c5b0d5; fill-opacity: 0.8; stroke: #c5b0d5; stroke-opacity: 0.8"/>
     <use xlink:href="#ma8ce32a9ae" x="67.565884" y="101.413404" style="fill: #c5b0d5; fill-opacity: 0.8; stroke: #c5b0d5; stroke-opacity: 0.8"/>
     <use xlink:href="#ma8ce32a9ae" x="72.644415" y="80.706329" style="fill: #c5b0d5; fill-opacity: 0.8; stroke: #c5b0d5; stroke-opacity: 0.8"/>
     <use xlink:href="#ma8ce32a9ae" x="82.720546" y="69.791287" style="fill: #c5b0d5; fill-opacity: 0.8; stroke: #c5b0d5; stroke-opacity: 0.8"/>
     <use xlink:href="#ma8ce32a9ae" x="113.09057" y="58.084029" style="fill: #c5b0d5; fill-opacity: 0.8; stroke: #c5b0d5; stroke-opacity: 0.8"/>
     <use xlink:href="#ma8ce32a9ae" x="163.89612" y="50.617968" style="fill: #c5b0d5; fill-opacity: 0.8; stroke: #c5b0d5; stroke-opacity: 0.8"/>
     <use xlink:href="#ma8ce32a9ae" x="214.307123" y="44.970983" style="fill: #c5b0d5; fill-opacity: 0.8; stroke: #c5b0d5; stroke-opacity: 0.8"/>
     <use xlink:href="#ma8ce32a9ae" x="264.212296" y="40.655108" style="fill: #c5b0d5; fill-opacity: 0.8; stroke: #c5b0d5; stroke-opacity: 0.8"/>
     <use xlink:href="#ma8ce32a9ae" x="365.084884" y="33.842219" style="fill: #c5b0d5; fill-opacity: 0.8; stroke: #c5b0d5; stroke-opacity: 0.8"/>
     <use xlink:href="#ma8ce32a9ae" x="466.8275" y="28.370928" style="fill: #c5b0d5; fill-opacity: 0.8; stroke: #c5b0d5; stroke-opacity: 0.8"/>
    </g>
   </g>
   <g id="line2d_26">
    <path d="M 63.519245 192.857275 
L 67.565884 97.833484 
L 72.644415 76.652672 
L 82.720546 62.544764 
L 113.09057 49.584865 
L 163.89612 42.976016 
L 214.307123 38.960798 
L 264.212296 36.130433 
L 365.084884 31.233325 
L 466.8275 27.159733 
" clip-path="url(#p64c758a8c2)" style="fill: none; stroke: #8c564b; stroke-opacity: 0.8; stroke-width: 1.2; stroke-linecap: square"/>
    <defs>
     <path id="m79ea6359fa" d="M 0 2.5 
C 0.663008 2.5 1.29895 2.236584 1.767767 1.767767 
C 2.236584 1.29895 2.5 0.663008 2.5 0 
C 2.5 -0.663008 2.236584 -1.29895 1.767767 -1.767767 
C 1.29895 -2.236584 0.663008 -2.5 0 -2.5 
C -0.663008 -2.5 -1.29895 -2.236584 -1.767767 -1.767767 
C -2.236584 -1.29895 -2.5 -0.663008 -2.5 0 
C -2.5 0.663008 -2.236584 1.29895 -1.767767 1.767767 
C -1.29895 2.236584 -0.663008 2.5 0 2.5 
z
" style="stroke: #8c564b; stroke-opacity: 0.8"/>
    </defs>
    <g clip-path="url(#p64c758a8c2)">
     <use xlink:href="#m79ea6359fa" x="63.519245" y="192.857275" style="fill: #8c564b; fill-opacity: 0.8; stroke: #8c564b; stroke-opacity: 0.8"/>
     <use xlink:href="#m79ea6359fa" x="67.565884" y="97.833484" style="fill: #8c564b; fill-opacity: 0.8; stroke: #8c564b; stroke-opacity: 0.8"/>
     <use xlink:href="#m79ea6359fa" x="72.644415" y="76.652672" style="fill: #8c564b; fill-opacity: 0.8; stroke: #8c564b; stroke-opacity: 0.8"/>
     <use xlink:href="#m79ea6359fa" x="82.720546" y="62.544764" style="fill: #8c564b; fill-opacity: 0.8; stroke: #8c564b; stroke-opacity: 0.8"/>
     <use xlink:href="#m79ea6359fa" x="113.09057" y="49.584865" style="fill: #8c564b; fill-opacity: 0.8; stroke: #8c564b; stroke-opacity: 0.8"/>
     <use xlink:href="#m79ea6359fa" x="163.89612" y="42.976016" style="fill: #8c564b; fill-opacity: 0.8; stroke: #8c564b; stroke-opacity: 0.8"/>
     <use xlink:href="#m79ea6359fa" x="214.307123" y="38.960798" style="fill: #8c564b; fill-opacity: 0.8; stroke: #8c564b; stroke-opacity: 0.8"/>
     <use xlink:href="#m79ea6359fa" x="264.212296" y="36.130433" style="fill: #8c564b; fill-opacity: 0.8; stroke: #8c564b; stroke-opacity: 0.8"/>
     <use xlink:href="#m79ea6359fa" x="365.084884" y="31.233325" style="fill: #8c564b; fill-opacity: 0.8; stroke: #8c564b; stroke-opacity: 0.8"/>
     <use xlink:href="#m79ea6359fa" x="466.8275" y="27.159733" style="fill: #8c564b; fill-opacity: 0.8; stroke: #8c564b; stroke-opacity: 0.8"/>
    </g>
   </g>
   <g id="line2d_27">
    <path d="M 63.519245 197.921268 
L 67.565884 104.102213 
L 72.644415 85.392968 
L 82.720546 71.051368 
L 113.09057 56.448571 
L 163.89612 46.533974 
L 214.307123 41.682373 
L 264.212296 39.112347 
L 365.084884 35.015545 
L 466.8275 32.039585 
" clip-path="url(#p64c758a8c2)" style="fill: none; stroke: #c49c94; stroke-opacity: 0.8; stroke-width: 1.2; stroke-linecap: square"/>
    <defs>
     <path id="m6c3bd29dd3" d="M 0 2.5 
C 0.663008 2.5 1.29895 2.236584 1.767767 1.767767 
C 2.236584 1.29895 2.5 0.663008 2.5 0 
C 2.5 -0.663008 2.236584 -1.29895 1.767767 -1.767767 
C 1.29895 -2.236584 0.663008 -2.5 0 -2.5 
C -0.663008 -2.5 -1.29895 -2.236584 -1.767767 -1.767767 
C -2.236584 -1.29895 -2.5 -0.663008 -2.5 0 
C -2.5 0.663008 -2.236584 1.29895 -1.767767 1.767767 
C -1.29895 2.236584 -0.663008 2.5 0 2.5 
z
" style="stroke: #c49c94; stroke-opacity: 0.8"/>
    </defs>
    <g clip-path="url(#p64c758a8c2)">
     <use xlink:href="#m6c3bd29dd3" x="63.519245" y="197.921268" style="fill: #c49c94; fill-opacity: 0.8; stroke: #c49c94; stroke-opacity: 0.8"/>
     <use xlink:href="#m6c3bd29dd3" x="67.565884" y="104.102213" style="fill: #c49c94; fill-opacity: 0.8; stroke: #c49c94; stroke-opacity: 0.8"/>
     <use xlink:href="#m6c3bd29dd3" x="72.644415" y="85.392968" style="fill: #c49c94; fill-opacity: 0.8; stroke: #c49c94; stroke-opacity: 0.8"/>
     <use xlink:href="#m6c3bd29dd3" x="82.720546" y="71.051368" style="fill: #c49c94; fill-opacity: 0.8; stroke: #c49c94; stroke-opacity: 0.8"/>
     <use xlink:href="#m6c3bd29dd3" x="113.09057" y="56.448571" style="fill: #c49c94; fill-opacity: 0.8; stroke: #c49c94; stroke-opacity: 0.8"/>
     <use xlink:href="#m6c3bd29dd3" x="163.89612" y="46.533974" style="fill: #c49c94; fill-opacity: 0.8; stroke: #c49c94; stroke-opacity: 0.8"/>
     <use xlink:href="#m6c3bd29dd3" x="214.307123" y="41.682373" style="fill: #c49c94; fill-opacity: 0.8; stroke: #c49c94; stroke-opacity: 0.8"/>
     <use xlink:href="#m6c3bd29dd3" x="264.212296" y="39.112347" style="fill: #c49c94; fill-opacity: 0.8; stroke: #c49c94; stroke-opacity: 0.8"/>
     <use xlink:href="#m6c3bd29dd3" x="365.084884" y="35.015545" style="fill: #c49c94; fill-opacity: 0.8; stroke: #c49c94; stroke-opacity: 0.8"/>
     <use xlink:href="#m6c3bd29dd3" x="466.8275" y="32.039585" style="fill: #c49c94; fill-opacity: 0.8; stroke: #c49c94; stroke-opacity: 0.8"/>
    </g>
   </g>
   <g id="line2d_28">
    <path d="M 63.519245 186.444266 
L 67.565884 100.74983 
L 72.644415 82.22648 
L 82.720546 65.378399 
L 113.09057 51.95251 
L 163.89612 44.388134 
L 214.307123 40.120934 
L 264.212296 37.334771 
" clip-path="url(#p64c758a8c2)" style="fill: none; stroke: #e377c2; stroke-opacity: 0.8; stroke-width: 1.2; stroke-linecap: square"/>
    <defs>
     <path id="ma7c1c878cd" d="M 0 2.5 
C 0.663008 2.5 1.29895 2.236584 1.767767 1.767767 
C 2.236584 1.29895 2.5 0.663008 2.5 0 
C 2.5 -0.663008 2.236584 -1.29895 1.767767 -1.767767 
C 1.29895 -2.236584 0.663008 -2.5 0 -2.5 
C -0.663008 -2.5 -1.29895 -2.236584 -1.767767 -1.767767 
C -2.236584 -1.29895 -2.5 -0.663008 -2.5 0 
C -2.5 0.663008 -2.236584 1.29895 -1.767767 1.767767 
C -1.29895 2.236584 -0.663008 2.5 0 2.5 
z
" style="stroke: #e377c2; stroke-opacity: 0.8"/>
    </defs>
    <g clip-path="url(#p64c758a8c2)">
     <use xlink:href="#ma7c1c878cd" x="63.519245" y="186.444266" style="fill: #e377c2; fill-opacity: 0.8; stroke: #e377c2; stroke-opacity: 0.8"/>
     <use xlink:href="#ma7c1c878cd" x="67.565884" y="100.74983" style="fill: #e377c2; fill-opacity: 0.8; stroke: #e377c2; stroke-opacity: 0.8"/>
     <use xlink:href="#ma7c1c878cd" x="72.644415" y="82.22648" style="fill: #e377c2; fill-opacity: 0.8; stroke: #e377c2; stroke-opacity: 0.8"/>
     <use xlink:href="#ma7c1c878cd" x="82.720546" y="65.378399" style="fill: #e377c2; fill-opacity: 0.8; stroke: #e377c2; stroke-opacity: 0.8"/>
     <use xlink:href="#ma7c1c878cd" x="113.09057" y="51.95251" style="fill: #e377c2; fill-opacity: 0.8; stroke: #e377c2; stroke-opacity: 0.8"/>
     <use xlink:href="#ma7c1c878cd" x="163.89612" y="44.388134" style="fill: #e377c2; fill-opacity: 0.8; stroke: #e377c2; stroke-opacity: 0.8"/>
     <use xlink:href="#ma7c1c878cd" x="214.307123" y="40.120934" style="fill: #e377c2; fill-opacity: 0.8; stroke: #e377c2; stroke-opacity: 0.8"/>
     <use xlink:href="#ma7c1c878cd" x="264.212296" y="37.334771" style="fill: #e377c2; fill-opacity: 0.8; stroke: #e377c2; stroke-opacity: 0.8"/>
    </g>
   </g>
   <g id="line2d_29">
    <path clip-path="url(#p64c758a8c2)" style="fill: none; stroke: #f7b6d2; stroke-opacity: 0.8; stroke-width: 1.2; stroke-linecap: square"/>
    <defs>
     <path id="m0db3b5a108" d="M 0 2.5 
C 0.663008 2.5 1.29895 2.236584 1.767767 1.767767 
C 2.236584 1.29895 2.5 0.663008 2.5 0 
C 2.5 -0.663008 2.236584 -1.29895 1.767767 -1.767767 
C 1.29895 -2.236584 0.663008 -2.5 0 -2.5 
C -0.663008 -2.5 -1.29895 -2.236584 -1.767767 -1.767767 
C -2.236584 -1.29895 -2.5 -0.663008 -2.5 0 
C -2.5 0.663008 -2.236584 1.29895 -1.767767 1.767767 
C -1.29895 2.236584 -0.663008 2.5 0 2.5 
z
" style="stroke: #f7b6d2; stroke-opacity: 0.8"/>
    </defs>
    <g clip-path="url(#p64c758a8c2)"/>
   </g>
   <g id="line2d_30">
    <path d="M 63.519245 200.047225 
L 67.565884 102.281525 
L 72.644415 81.275101 
L 82.720546 66.653353 
L 113.09057 53.043717 
L 163.89612 44.778174 
L 214.307123 40.552383 
L 264.212296 37.76044 
L 365.084884 33.335387 
L 466.8275 29.994564 
" clip-path="url(#p64c758a8c2)" style="fill: none; stroke: #7f7f7f; stroke-opacity: 0.8; stroke-width: 1.2; stroke-linecap: square"/>
    <defs>
     <path id="md91bc77ee8" d="M 0 2.5 
C 0.663008 2.5 1.29895 2.236584 1.767767 1.767767 
C 2.236584 1.29895 2.5 0.663008 2.5 0 
C 2.5 -0.663008 2.236584 -1.29895 1.767767 -1.767767 
C 1.29895 -2.236584 0.663008 -2.5 0 -2.5 
C -0.663008 -2.5 -1.29895 -2.236584 -1.767767 -1.767767 
C -2.236584 -1.29895 -2.5 -0.663008 -2.5 0 
C -2.5 0.663008 -2.236584 1.29895 -1.767767 1.767767 
C -1.29895 2.236584 -0.663008 2.5 0 2.5 
z
" style="stroke: #7f7f7f; stroke-opacity: 0.8"/>
    </defs>
    <g clip-path="url(#p64c758a8c2)">
     <use xlink:href="#md91bc77ee8" x="63.519245" y="200.047225" style="fill: #7f7f7f; fill-opacity: 0.8; stroke: #7f7f7f; stroke-opacity: 0.8"/>
     <use xlink:href="#md91bc77ee8" x="67.565884" y="102.281525" style="fill: #7f7f7f; fill-opacity: 0.8; stroke: #7f7f7f; stroke-opacity: 0.8"/>
     <use xlink:href="#md91bc77ee8" x="72.644415" y="81.275101" style="fill: #7f7f7f; fill-opacity: 0.8; stroke: #7f7f7f; stroke-opacity: 0.8"/>
     <use xlink:href="#md91bc77ee8" x="82.720546" y="66.653353" style="fill: #7f7f7f; fill-opacity: 0.8; stroke: #7f7f7f; stroke-opacity: 0.8"/>
     <use xlink:href="#md91bc77ee8" x="113.09057" y="53.043717" style="fill: #7f7f7f; fill-opacity: 0.8; stroke: #7f7f7f; stroke-opacity: 0.8"/>
     <use xlink:href="#md91bc77ee8" x="163.89612" y="44.778174" style="fill: #7f7f7f; fill-opacity: 0.8; stroke: #7f7f7f; stroke-opacity: 0.8"/>
     <use xlink:href="#md91bc77ee8" x="214.307123" y="40.552383" style="fill: #7f7f7f; fill-opacity: 0.8; stroke: #7f7f7f; stroke-opacity: 0.8"/>
     <use xlink:href="#md91bc77ee8" x="264.212296" y="37.76044" style="fill: #7f7f7f; fill-opacity: 0.8; stroke: #7f7f7f; stroke-opacity: 0.8"/>
     <use xlink:href="#md91bc77ee8" x="365.084884" y="33.335387" style="fill: #7f7f7f; fill-opacity: 0.8; stroke: #7f7f7f; stroke-opacity: 0.8"/>
     <use xlink:href="#md91bc77ee8" x="466.8275" y="29.994564" style="fill: #7f7f7f; fill-opacity: 0.8; stroke: #7f7f7f; stroke-opacity: 0.8"/>
    </g>
   </g>
   <g id="line2d_31">
    <path clip-path="url(#p64c758a8c2)" style="fill: none; stroke: #c7c7c7; stroke-opacity: 0.8; stroke-width: 1.2; stroke-linecap: square"/>
    <defs>
     <path id="m19b5193658" d="M 0 2.5 
C 0.663008 2.5 1.29895 2.236584 1.767767 1.767767 
C 2.236584 1.29895 2.5 0.663008 2.5 0 
C 2.5 -0.663008 2.236584 -1.29895 1.767767 -1.767767 
C 1.29895 -2.236584 0.663008 -2.5 0 -2.5 
C -0.663008 -2.5 -1.29895 -2.236584 -1.767767 -1.767767 
C -2.236584 -1.29895 -2.5 -0.663008 -2.5 0 
C -2.5 0.663008 -2.236584 1.29895 -1.767767 1.767767 
C -1.29895 2.236584 -0.663008 2.5 0 2.5 
z
" style="stroke: #c7c7c7; stroke-opacity: 0.8"/>
    </defs>
    <g clip-path="url(#p64c758a8c2)"/>
   </g>
   <g id="line2d_32">
    <path d="M 63.519245 186.649774 
L 67.565884 95.789409 
L 72.644415 76.169266 
L 82.720546 61.991568 
L 113.09057 49.396228 
L 163.89612 41.780474 
L 214.307123 37.684602 
L 264.212296 34.828666 
L 365.084884 30.942203 
L 466.8275 27.313215 
" clip-path="url(#p64c758a8c2)" style="fill: none; stroke: #bcbd22; stroke-opacity: 0.8; stroke-width: 1.2; stroke-linecap: square"/>
    <defs>
     <path id="m4f6804cedf" d="M 0 2.5 
C 0.663008 2.5 1.29895 2.236584 1.767767 1.767767 
C 2.236584 1.29895 2.5 0.663008 2.5 0 
C 2.5 -0.663008 2.236584 -1.29895 1.767767 -1.767767 
C 1.29895 -2.236584 0.663008 -2.5 0 -2.5 
C -0.663008 -2.5 -1.29895 -2.236584 -1.767767 -1.767767 
C -2.236584 -1.29895 -2.5 -0.663008 -2.5 0 
C -2.5 0.663008 -2.236584 1.29895 -1.767767 1.767767 
C -1.29895 2.236584 -0.663008 2.5 0 2.5 
z
" style="stroke: #bcbd22; stroke-opacity: 0.8"/>
    </defs>
    <g clip-path="url(#p64c758a8c2)">
     <use xlink:href="#m4f6804cedf" x="63.519245" y="186.649774" style="fill: #bcbd22; fill-opacity: 0.8; stroke: #bcbd22; stroke-opacity: 0.8"/>
     <use xlink:href="#m4f6804cedf" x="67.565884" y="95.789409" style="fill: #bcbd22; fill-opacity: 0.8; stroke: #bcbd22; stroke-opacity: 0.8"/>
     <use xlink:href="#m4f6804cedf" x="72.644415" y="76.169266" style="fill: #bcbd22; fill-opacity: 0.8; stroke: #bcbd22; stroke-opacity: 0.8"/>
     <use xlink:href="#m4f6804cedf" x="82.720546" y="61.991568" style="fill: #bcbd22; fill-opacity: 0.8; stroke: #bcbd22; stroke-opacity: 0.8"/>
     <use xlink:href="#m4f6804cedf" x="113.09057" y="49.396228" style="fill: #bcbd22; fill-opacity: 0.8; stroke: #bcbd22; stroke-opacity: 0.8"/>
     <use xlink:href="#m4f6804cedf" x="163.89612" y="41.780474" style="fill: #bcbd22; fill-opacity: 0.8; stroke: #bcbd22; stroke-opacity: 0.8"/>
     <use xlink:href="#m4f6804cedf" x="214.307123" y="37.684602" style="fill: #bcbd22; fill-opacity: 0.8; stroke: #bcbd22; stroke-opacity: 0.8"/>
     <use xlink:href="#m4f6804cedf" x="264.212296" y="34.828666" style="fill: #bcbd22; fill-opacity: 0.8; stroke: #bcbd22; stroke-opacity: 0.8"/>
     <use xlink:href="#m4f6804cedf" x="365.084884" y="30.942203" style="fill: #bcbd22; fill-opacity: 0.8; stroke: #bcbd22; stroke-opacity: 0.8"/>
     <use xlink:href="#m4f6804cedf" x="466.8275" y="27.313215" style="fill: #bcbd22; fill-opacity: 0.8; stroke: #bcbd22; stroke-opacity: 0.8"/>
    </g>
   </g>
   <g id="line2d_33">
    <path d="M 63.519245 197.962361 
L 67.565884 103.920709 
L 72.644415 83.398043 
L 82.720546 67.659621 
L 113.09057 53.719373 
L 163.89612 45.243705 
L 214.307123 41.068576 
L 264.212296 37.766317 
L 365.084884 33.557545 
L 466.8275 29.553797 
" clip-path="url(#p64c758a8c2)" style="fill: none; stroke: #dbdb8d; stroke-opacity: 0.8; stroke-width: 1.2; stroke-linecap: square"/>
    <defs>
     <path id="m35eea18b40" d="M 0 2.5 
C 0.663008 2.5 1.29895 2.236584 1.767767 1.767767 
C 2.236584 1.29895 2.5 0.663008 2.5 0 
C 2.5 -0.663008 2.236584 -1.29895 1.767767 -1.767767 
C 1.29895 -2.236584 0.663008 -2.5 0 -2.5 
C -0.663008 -2.5 -1.29895 -2.236584 -1.767767 -1.767767 
C -2.236584 -1.29895 -2.5 -0.663008 -2.5 0 
C -2.5 0.663008 -2.236584 1.29895 -1.767767 1.767767 
C -1.29895 2.236584 -0.663008 2.5 0 2.5 
z
" style="stroke: #dbdb8d; stroke-opacity: 0.8"/>
    </defs>
    <g clip-path="url(#p64c758a8c2)">
     <use xlink:href="#m35eea18b40" x="63.519245" y="197.962361" style="fill: #dbdb8d; fill-opacity: 0.8; stroke: #dbdb8d; stroke-opacity: 0.8"/>
     <use xlink:href="#m35eea18b40" x="67.565884" y="103.920709" style="fill: #dbdb8d; fill-opacity: 0.8; stroke: #dbdb8d; stroke-opacity: 0.8"/>
     <use xlink:href="#m35eea18b40" x="72.644415" y="83.398043" style="fill: #dbdb8d; fill-opacity: 0.8; stroke: #dbdb8d; stroke-opacity: 0.8"/>
     <use xlink:href="#m35eea18b40" x="82.720546" y="67.659621" style="fill: #dbdb8d; fill-opacity: 0.8; stroke: #dbdb8d; stroke-opacity: 0.8"/>
     <use xlink:href="#m35eea18b40" x="113.09057" y="53.719373" style="fill: #dbdb8d; fill-opacity: 0.8; stroke: #dbdb8d; stroke-opacity: 0.8"/>
     <use xlink:href="#m35eea18b40" x="163.89612" y="45.243705" style="fill: #dbdb8d; fill-opacity: 0.8; stroke: #dbdb8d; stroke-opacity: 0.8"/>
     <use xlink:href="#m35eea18b40" x="214.307123" y="41.068576" style="fill: #dbdb8d; fill-opacity: 0.8; stroke: #dbdb8d; stroke-opacity: 0.8"/>
     <use xlink:href="#m35eea18b40" x="264.212296" y="37.766317" style="fill: #dbdb8d; fill-opacity: 0.8; stroke: #dbdb8d; stroke-opacity: 0.8"/>
     <use xlink:href="#m35eea18b40" x="365.084884" y="33.557545" style="fill: #dbdb8d; fill-opacity: 0.8; stroke: #dbdb8d; stroke-opacity: 0.8"/>
     <use xlink:href="#m35eea18b40" x="466.8275" y="29.553797" style="fill: #dbdb8d; fill-opacity: 0.8; stroke: #dbdb8d; stroke-opacity: 0.8"/>
    </g>
   </g>
   <g id="line2d_34">
    <path d="M 63.519245 184.115171 
L 67.565884 95.634965 
L 72.644415 77.59974 
L 82.720546 63.471826 
L 113.09057 50.521911 
L 163.89612 41.703105 
L 214.307123 37.101266 
L 264.212296 33.748972 
L 365.084884 29.377641 
" clip-path="url(#p64c758a8c2)" style="fill: none; stroke: #17becf; stroke-opacity: 0.8; stroke-width: 1.2; stroke-linecap: square"/>
    <defs>
     <path id="m53a4481290" d="M 0 2.5 
C 0.663008 2.5 1.29895 2.236584 1.767767 1.767767 
C 2.236584 1.29895 2.5 0.663008 2.5 0 
C 2.5 -0.663008 2.236584 -1.29895 1.767767 -1.767767 
C 1.29895 -2.236584 0.663008 -2.5 0 -2.5 
C -0.663008 -2.5 -1.29895 -2.236584 -1.767767 -1.767767 
C -2.236584 -1.29895 -2.5 -0.663008 -2.5 0 
C -2.5 0.663008 -2.236584 1.29895 -1.767767 1.767767 
C -1.29895 2.236584 -0.663008 2.5 0 2.5 
z
" style="stroke: #17becf; stroke-opacity: 0.8"/>
    </defs>
    <g clip-path="url(#p64c758a8c2)">
     <use xlink:href="#m53a4481290" x="63.519245" y="184.115171" style="fill: #17becf; fill-opacity: 0.8; stroke: #17becf; stroke-opacity: 0.8"/>
     <use xlink:href="#m53a4481290" x="67.565884" y="95.634965" style="fill: #17becf; fill-opacity: 0.8; stroke: #17becf; stroke-opacity: 0.8"/>
     <use xlink:href="#m53a4481290" x="72.644415" y="77.59974" style="fill: #17becf; fill-opacity: 0.8; stroke: #17becf; stroke-opacity: 0.8"/>
     <use xlink:href="#m53a4481290" x="82.720546" y="63.471826" style="fill: #17becf; fill-opacity: 0.8; stroke: #17becf; stroke-opacity: 0.8"/>
     <use xlink:href="#m53a4481290" x="113.09057" y="50.521911" style="fill: #17becf; fill-opacity: 0.8; stroke: #17becf; stroke-opacity: 0.8"/>
     <use xlink:href="#m53a4481290" x="163.89612" y="41.703105" style="fill: #17becf; fill-opacity: 0.8; stroke: #17becf; stroke-opacity: 0.8"/>
     <use xlink:href="#m53a4481290" x="214.307123" y="37.101266" style="fill: #17becf; fill-opacity: 0.8; stroke: #17becf; stroke-opacity: 0.8"/>
     <use xlink:href="#m53a4481290" x="264.212296" y="33.748972" style="fill: #17becf; fill-opacity: 0.8; stroke: #17becf; stroke-opacity: 0.8"/>
     <use xlink:href="#m53a4481290" x="365.084884" y="29.377641" style="fill: #17becf; fill-opacity: 0.8; stroke: #17becf; stroke-opacity: 0.8"/>
    </g>
   </g>
   <g id="line2d_35">
    <path d="M 63.519245 187.433495 
L 67.565884 95.265516 
L 72.644415 76.020634 
L 82.720546 62.021457 
L 113.09057 49.003756 
L 163.89612 41.214814 
L 214.307123 37.356589 
L 264.212296 34.610332 
L 365.084884 30.335043 
" clip-path="url(#p64c758a8c2)" style="fill: none; stroke: #9edae5; stroke-opacity: 0.8; stroke-width: 1.2; stroke-linecap: square"/>
    <defs>
     <path id="ma36108d5ee" d="M 0 2.5 
C 0.663008 2.5 1.29895 2.236584 1.767767 1.767767 
C 2.236584 1.29895 2.5 0.663008 2.5 0 
C 2.5 -0.663008 2.236584 -1.29895 1.767767 -1.767767 
C 1.29895 -2.236584 0.663008 -2.5 0 -2.5 
C -0.663008 -2.5 -1.29895 -2.236584 -1.767767 -1.767767 
C -2.236584 -1.29895 -2.5 -0.663008 -2.5 0 
C -2.5 0.663008 -2.236584 1.29895 -1.767767 1.767767 
C -1.29895 2.236584 -0.663008 2.5 0 2.5 
z
" style="stroke: #9edae5; stroke-opacity: 0.8"/>
    </defs>
    <g clip-path="url(#p64c758a8c2)">
     <use xlink:href="#ma36108d5ee" x="63.519245" y="187.433495" style="fill: #9edae5; fill-opacity: 0.8; stroke: #9edae5; stroke-opacity: 0.8"/>
     <use xlink:href="#ma36108d5ee" x="67.565884" y="95.265516" style="fill: #9edae5; fill-opacity: 0.8; stroke: #9edae5; stroke-opacity: 0.8"/>
     <use xlink:href="#ma36108d5ee" x="72.644415" y="76.020634" style="fill: #9edae5; fill-opacity: 0.8; stroke: #9edae5; stroke-opacity: 0.8"/>
     <use xlink:href="#ma36108d5ee" x="82.720546" y="62.021457" style="fill: #9edae5; fill-opacity: 0.8; stroke: #9edae5; stroke-opacity: 0.8"/>
     <use xlink:href="#ma36108d5ee" x="113.09057" y="49.003756" style="fill: #9edae5; fill-opacity: 0.8; stroke: #9edae5; stroke-opacity: 0.8"/>
     <use xlink:href="#ma36108d5ee" x="163.89612" y="41.214814" style="fill: #9edae5; fill-opacity: 0.8; stroke: #9edae5; stroke-opacity: 0.8"/>
     <use xlink:href="#ma36108d5ee" x="214.307123" y="37.356589" style="fill: #9edae5; fill-opacity: 0.8; stroke: #9edae5; stroke-opacity: 0.8"/>
     <use xlink:href="#ma36108d5ee" x="264.212296" y="34.610332" style="fill: #9edae5; fill-opacity: 0.8; stroke: #9edae5; stroke-opacity: 0.8"/>
     <use xlink:href="#ma36108d5ee" x="365.084884" y="30.335043" style="fill: #9edae5; fill-opacity: 0.8; stroke: #9edae5; stroke-opacity: 0.8"/>
    </g>
   </g>
   <g id="line2d_36">
    <path d="M 63.519245 191.743837 
L 67.565884 91.540392 
L 72.644415 70.639746 
L 82.720546 56.924779 
L 113.09057 43.10509 
L 163.89612 35.504637 
L 214.307123 31.317697 
L 264.212296 28.435097 
L 365.084884 24.377628 
L 466.8275 20.745455 
" clip-path="url(#p64c758a8c2)" style="fill: none; stroke: #9edae5; stroke-opacity: 0.8; stroke-width: 1.2; stroke-linecap: square"/>
    <g clip-path="url(#p64c758a8c2)">
     <use xlink:href="#ma36108d5ee" x="63.519245" y="191.743837" style="fill: #9edae5; fill-opacity: 0.8; stroke: #9edae5; stroke-opacity: 0.8"/>
     <use xlink:href="#ma36108d5ee" x="67.565884" y="91.540392" style="fill: #9edae5; fill-opacity: 0.8; stroke: #9edae5; stroke-opacity: 0.8"/>
     <use xlink:href="#ma36108d5ee" x="72.644415" y="70.639746" style="fill: #9edae5; fill-opacity: 0.8; stroke: #9edae5; stroke-opacity: 0.8"/>
     <use xlink:href="#ma36108d5ee" x="82.720546" y="56.924779" style="fill: #9edae5; fill-opacity: 0.8; stroke: #9edae5; stroke-opacity: 0.8"/>
     <use xlink:href="#ma36108d5ee" x="113.09057" y="43.10509" style="fill: #9edae5; fill-opacity: 0.8; stroke: #9edae5; stroke-opacity: 0.8"/>
     <use xlink:href="#ma36108d5ee" x="163.89612" y="35.504637" style="fill: #9edae5; fill-opacity: 0.8; stroke: #9edae5; stroke-opacity: 0.8"/>
     <use xlink:href="#ma36108d5ee" x="214.307123" y="31.317697" style="fill: #9edae5; fill-opacity: 0.8; stroke: #9edae5; stroke-opacity: 0.8"/>
     <use xlink:href="#ma36108d5ee" x="264.212296" y="28.435097" style="fill: #9edae5; fill-opacity: 0.8; stroke: #9edae5; stroke-opacity: 0.8"/>
     <use xlink:href="#ma36108d5ee" x="365.084884" y="24.377628" style="fill: #9edae5; fill-opacity: 0.8; stroke: #9edae5; stroke-opacity: 0.8"/>
     <use xlink:href="#ma36108d5ee" x="466.8275" y="20.745455" style="fill: #9edae5; fill-opacity: 0.8; stroke: #9edae5; stroke-opacity: 0.8"/>
    </g>
   </g>
   <g id="line2d_37">
    <path clip-path="url(#p64c758a8c2)" style="fill: none; stroke: #9edae5; stroke-opacity: 0.8; stroke-width: 1.2; stroke-linecap: square"/>
    <g clip-path="url(#p64c758a8c2)"/>
   </g>
   <g id="line2d_38">
    <path d="M 62.8275 291.654545 
L 63.313654 223.723721 
L 63.787088 185.345227 
L 64.325399 158.955217 
L 64.906146 140.836413 
L 65.557577 127.158329 
L 66.245186 116.960831 
L 67.00394 108.684181 
L 67.817668 101.965178 
L 68.778662 95.869158 
L 69.77795 90.923335 
L 70.936472 86.380786 
L 72.100653 82.708113 
L 73.425629 79.293933 
L 74.706055 76.557817 
L 76.136645 73.984847 
L 77.735008 71.564228 
L 79.520822 69.285879 
L 81.51607 67.140546 
L 83.745312 65.11966 
L 86.235991 63.215294 
L 89.018768 61.420144 
L 92.127897 59.727331 
L 95.601654 58.130613 
L 99.4828 56.624105 
L 103.819111 55.202377 
L 108.663969 53.860294 
L 114.077012 52.593202 
L 120.124877 51.396605 
L 126.882012 50.266454 
L 135.773279 49.026747 
L 142.866571 48.190185 
L 142.866571 48.190185 
" clip-path="url(#p64c758a8c2)" style="fill: none; stroke-dasharray: 6.66,2.88; stroke-dashoffset: 0; stroke: #000000; stroke-width: 1.8"/>
   </g>
   <g id="legend_1">
    <g id="patch_7">
     <path d="M 409.28375 301.2 
L 481.4275 301.2 
Q 483.0275 301.2 483.0275 299.6 
L 483.0275 30.3225 
Q 483.0275 28.7225 481.4275 28.7225 
L 409.28375 28.7225 
Q 407.68375 28.7225 407.68375 30.3225 
L 407.68375 299.6 
Q 407.68375 301.2 409.28375 301.2 
z
" style="fill: #ffffff; opacity: 0.8; stroke: #cccccc; stroke-linejoin: miter"/>
    </g>
    <g id="line2d_39">
     <path d="M 410.88375 35.20125 
L 418.88375 35.20125 
L 426.88375 35.20125 
" style="fill: none; stroke: #1f77b4; stroke-opacity: 0.8; stroke-width: 1.2; stroke-linecap: square"/>
     <g>
      <use xlink:href="#md2a1d6eb2c" x="418.88375" y="35.20125" style="fill: #1f77b4; fill-opacity: 0.8; stroke: #1f77b4; stroke-opacity: 0.8"/>
     </g>
    </g>
    <g id="text_18">
     <!-- Bead 1 -->
     <g transform="translate(433.28375 38.00125) scale(0.08 -0.08)">
      <defs>
       <path id="DejaVuSans-42" d="M 1259 2228 
L 1259 519 
L 2272 519 
Q 2781 519 3026 730 
Q 3272 941 3272 1375 
Q 3272 1813 3026 2020 
Q 2781 2228 2272 2228 
L 1259 2228 
z
M 1259 4147 
L 1259 2741 
L 2194 2741 
Q 2656 2741 2882 2914 
Q 3109 3088 3109 3444 
Q 3109 3797 2882 3972 
Q 2656 4147 2194 4147 
L 1259 4147 
z
M 628 4666 
L 2241 4666 
Q 2963 4666 3353 4366 
Q 3744 4066 3744 3513 
Q 3744 3084 3544 2831 
Q 3344 2578 2956 2516 
Q 3422 2416 3680 2098 
Q 3938 1781 3938 1306 
Q 3938 681 3513 340 
Q 3088 0 2303 0 
L 628 0 
L 628 4666 
z
" transform="scale(0.015625)"/>
       <path id="DejaVuSans-61" d="M 2194 1759 
Q 1497 1759 1228 1600 
Q 959 1441 959 1056 
Q 959 750 1161 570 
Q 1363 391 1709 391 
Q 2188 391 2477 730 
Q 2766 1069 2766 1631 
L 2766 1759 
L 2194 1759 
z
M 3341 1997 
L 3341 0 
L 2766 0 
L 2766 531 
Q 2569 213 2275 61 
Q 1981 -91 1556 -91 
Q 1019 -91 701 211 
Q 384 513 384 1019 
Q 384 1609 779 1909 
Q 1175 2209 1959 2209 
L 2766 2209 
L 2766 2266 
Q 2766 2663 2505 2880 
Q 2244 3097 1772 3097 
Q 1472 3097 1187 3025 
Q 903 2953 641 2809 
L 641 3341 
Q 956 3463 1253 3523 
Q 1550 3584 1831 3584 
Q 2591 3584 2966 3190 
Q 3341 2797 3341 1997 
z
" transform="scale(0.015625)"/>
       <path id="DejaVuSans-64" d="M 2906 2969 
L 2906 4863 
L 3481 4863 
L 3481 0 
L 2906 0 
L 2906 525 
Q 2725 213 2448 61 
Q 2172 -91 1784 -91 
Q 1150 -91 751 415 
Q 353 922 353 1747 
Q 353 2572 751 3078 
Q 1150 3584 1784 3584 
Q 2172 3584 2448 3432 
Q 2725 3281 2906 2969 
z
M 947 1747 
Q 947 1113 1208 752 
Q 1469 391 1925 391 
Q 2381 391 2643 752 
Q 2906 1113 2906 1747 
Q 2906 2381 2643 2742 
Q 2381 3103 1925 3103 
Q 1469 3103 1208 2742 
Q 947 2381 947 1747 
z
" transform="scale(0.015625)"/>
       <path id="DejaVuSans-20" transform="scale(0.015625)"/>
      </defs>
      <use xlink:href="#DejaVuSans-42"/>
      <use xlink:href="#DejaVuSans-65" transform="translate(68.603516 0)"/>
      <use xlink:href="#DejaVuSans-61" transform="translate(130.126953 0)"/>
      <use xlink:href="#DejaVuSans-64" transform="translate(191.40625 0)"/>
      <use xlink:href="#DejaVuSans-20" transform="translate(254.882812 0)"/>
      <use xlink:href="#DejaVuSans-31" transform="translate(286.669922 0)"/>
     </g>
    </g>
    <g id="line2d_40">
     <path d="M 410.88375 46.94375 
L 418.88375 46.94375 
L 426.88375 46.94375 
" style="fill: none; stroke: #aec7e8; stroke-opacity: 0.8; stroke-width: 1.2; stroke-linecap: square"/>
     <g>
      <use xlink:href="#m81c4bb8e46" x="418.88375" y="46.94375" style="fill: #aec7e8; fill-opacity: 0.8; stroke: #aec7e8; stroke-opacity: 0.8"/>
     </g>
    </g>
    <g id="text_19">
     <!-- Bead 2 -->
     <g transform="translate(433.28375 49.74375) scale(0.08 -0.08)">
      <use xlink:href="#DejaVuSans-42"/>
      <use xlink:href="#DejaVuSans-65" transform="translate(68.603516 0)"/>
      <use xlink:href="#DejaVuSans-61" transform="translate(130.126953 0)"/>
      <use xlink:href="#DejaVuSans-64" transform="translate(191.40625 0)"/>
      <use xlink:href="#DejaVuSans-20" transform="translate(254.882812 0)"/>
      <use xlink:href="#DejaVuSans-32" transform="translate(286.669922 0)"/>
     </g>
    </g>
    <g id="line2d_41">
     <path d="M 410.88375 58.68625 
L 418.88375 58.68625 
L 426.88375 58.68625 
" style="fill: none; stroke: #ff7f0e; stroke-opacity: 0.8; stroke-width: 1.2; stroke-linecap: square"/>
     <g>
      <use xlink:href="#meb97b4facb" x="418.88375" y="58.68625" style="fill: #ff7f0e; fill-opacity: 0.8; stroke: #ff7f0e; stroke-opacity: 0.8"/>
     </g>
    </g>
    <g id="text_20">
     <!-- Bead 4 -->
     <g transform="translate(433.28375 61.48625) scale(0.08 -0.08)">
      <use xlink:href="#DejaVuSans-42"/>
      <use xlink:href="#DejaVuSans-65" transform="translate(68.603516 0)"/>
      <use xlink:href="#DejaVuSans-61" transform="translate(130.126953 0)"/>
      <use xlink:href="#DejaVuSans-64" transform="translate(191.40625 0)"/>
      <use xlink:href="#DejaVuSans-20" transform="translate(254.882812 0)"/>
      <use xlink:href="#DejaVuSans-34" transform="translate(286.669922 0)"/>
     </g>
    </g>
    <g id="line2d_42">
     <path d="M 410.88375 70.42875 
L 418.88375 70.42875 
L 426.88375 70.42875 
" style="fill: none; stroke: #ffbb78; stroke-opacity: 0.8; stroke-width: 1.2; stroke-linecap: square"/>
     <g>
      <use xlink:href="#mb3a905905f" x="418.88375" y="70.42875" style="fill: #ffbb78; fill-opacity: 0.8; stroke: #ffbb78; stroke-opacity: 0.8"/>
     </g>
    </g>
    <g id="text_21">
     <!-- Bead 13 -->
     <g transform="translate(433.28375 73.22875) scale(0.08 -0.08)">
      <use xlink:href="#DejaVuSans-42"/>
      <use xlink:href="#DejaVuSans-65" transform="translate(68.603516 0)"/>
      <use xlink:href="#DejaVuSans-61" transform="translate(130.126953 0)"/>
      <use xlink:href="#DejaVuSans-64" transform="translate(191.40625 0)"/>
      <use xlink:href="#DejaVuSans-20" transform="translate(254.882812 0)"/>
      <use xlink:href="#DejaVuSans-31" transform="translate(286.669922 0)"/>
      <use xlink:href="#DejaVuSans-33" transform="translate(350.292969 0)"/>
     </g>
    </g>
    <g id="line2d_43">
     <path d="M 410.88375 82.17125 
L 418.88375 82.17125 
L 426.88375 82.17125 
" style="fill: none; stroke: #2ca02c; stroke-opacity: 0.8; stroke-width: 1.2; stroke-linecap: square"/>
     <g>
      <use xlink:href="#mc84fda3ea7" x="418.88375" y="82.17125" style="fill: #2ca02c; fill-opacity: 0.8; stroke: #2ca02c; stroke-opacity: 0.8"/>
     </g>
    </g>
    <g id="text_22">
     <!-- Bead 17 -->
     <g transform="translate(433.28375 84.97125) scale(0.08 -0.08)">
      <use xlink:href="#DejaVuSans-42"/>
      <use xlink:href="#DejaVuSans-65" transform="translate(68.603516 0)"/>
      <use xlink:href="#DejaVuSans-61" transform="translate(130.126953 0)"/>
      <use xlink:href="#DejaVuSans-64" transform="translate(191.40625 0)"/>
      <use xlink:href="#DejaVuSans-20" transform="translate(254.882812 0)"/>
      <use xlink:href="#DejaVuSans-31" transform="translate(286.669922 0)"/>
      <use xlink:href="#DejaVuSans-37" transform="translate(350.292969 0)"/>
     </g>
    </g>
    <g id="line2d_44">
     <path d="M 410.88375 93.91375 
L 418.88375 93.91375 
L 426.88375 93.91375 
" style="fill: none; stroke: #98df8a; stroke-opacity: 0.8; stroke-width: 1.2; stroke-linecap: square"/>
     <g>
      <use xlink:href="#m9d58254e45" x="418.88375" y="93.91375" style="fill: #98df8a; fill-opacity: 0.8; stroke: #98df8a; stroke-opacity: 0.8"/>
     </g>
    </g>
    <g id="text_23">
     <!-- Bead 18 -->
     <g transform="translate(433.28375 96.71375) scale(0.08 -0.08)">
      <defs>
       <path id="DejaVuSans-38" d="M 2034 2216 
Q 1584 2216 1326 1975 
Q 1069 1734 1069 1313 
Q 1069 891 1326 650 
Q 1584 409 2034 409 
Q 2484 409 2743 651 
Q 3003 894 3003 1313 
Q 3003 1734 2745 1975 
Q 2488 2216 2034 2216 
z
M 1403 2484 
Q 997 2584 770 2862 
Q 544 3141 544 3541 
Q 544 4100 942 4425 
Q 1341 4750 2034 4750 
Q 2731 4750 3128 4425 
Q 3525 4100 3525 3541 
Q 3525 3141 3298 2862 
Q 3072 2584 2669 2484 
Q 3125 2378 3379 2068 
Q 3634 1759 3634 1313 
Q 3634 634 3220 271 
Q 2806 -91 2034 -91 
Q 1263 -91 848 271 
Q 434 634 434 1313 
Q 434 1759 690 2068 
Q 947 2378 1403 2484 
z
M 1172 3481 
Q 1172 3119 1398 2916 
Q 1625 2713 2034 2713 
Q 2441 2713 2670 2916 
Q 2900 3119 2900 3481 
Q 2900 3844 2670 4047 
Q 2441 4250 2034 4250 
Q 1625 4250 1398 4047 
Q 1172 3844 1172 3481 
z
" transform="scale(0.015625)"/>
      </defs>
      <use xlink:href="#DejaVuSans-42"/>
      <use xlink:href="#DejaVuSans-65" transform="translate(68.603516 0)"/>
      <use xlink:href="#DejaVuSans-61" transform="translate(130.126953 0)"/>
      <use xlink:href="#DejaVuSans-64" transform="translate(191.40625 0)"/>
      <use xlink:href="#DejaVuSans-20" transform="translate(254.882812 0)"/>
      <use xlink:href="#DejaVuSans-31" transform="translate(286.669922 0)"/>
      <use xlink:href="#DejaVuSans-38" transform="translate(350.292969 0)"/>
     </g>
    </g>
    <g id="line2d_45">
     <path d="M 410.88375 105.65625 
L 418.88375 105.65625 
L 426.88375 105.65625 
" style="fill: none; stroke: #d62728; stroke-opacity: 0.8; stroke-width: 1.2; stroke-linecap: square"/>
     <g>
      <use xlink:href="#m19f0430db8" x="418.88375" y="105.65625" style="fill: #d62728; fill-opacity: 0.8; stroke: #d62728; stroke-opacity: 0.8"/>
     </g>
    </g>
    <g id="text_24">
     <!-- Bead 19 -->
     <g transform="translate(433.28375 108.45625) scale(0.08 -0.08)">
      <defs>
       <path id="DejaVuSans-39" d="M 703 97 
L 703 672 
Q 941 559 1184 500 
Q 1428 441 1663 441 
Q 2288 441 2617 861 
Q 2947 1281 2994 2138 
Q 2813 1869 2534 1725 
Q 2256 1581 1919 1581 
Q 1219 1581 811 2004 
Q 403 2428 403 3163 
Q 403 3881 828 4315 
Q 1253 4750 1959 4750 
Q 2769 4750 3195 4129 
Q 3622 3509 3622 2328 
Q 3622 1225 3098 567 
Q 2575 -91 1691 -91 
Q 1453 -91 1209 -44 
Q 966 3 703 97 
z
M 1959 2075 
Q 2384 2075 2632 2365 
Q 2881 2656 2881 3163 
Q 2881 3666 2632 3958 
Q 2384 4250 1959 4250 
Q 1534 4250 1286 3958 
Q 1038 3666 1038 3163 
Q 1038 2656 1286 2365 
Q 1534 2075 1959 2075 
z
" transform="scale(0.015625)"/>
      </defs>
      <use xlink:href="#DejaVuSans-42"/>
      <use xlink:href="#DejaVuSans-65" transform="translate(68.603516 0)"/>
      <use xlink:href="#DejaVuSans-61" transform="translate(130.126953 0)"/>
      <use xlink:href="#DejaVuSans-64" transform="translate(191.40625 0)"/>
      <use xlink:href="#DejaVuSans-20" transform="translate(254.882812 0)"/>
      <use xlink:href="#DejaVuSans-31" transform="translate(286.669922 0)"/>
      <use xlink:href="#DejaVuSans-39" transform="translate(350.292969 0)"/>
     </g>
    </g>
    <g id="line2d_46">
     <path d="M 410.88375 117.39875 
L 418.88375 117.39875 
L 426.88375 117.39875 
" style="fill: none; stroke: #ff9896; stroke-opacity: 0.8; stroke-width: 1.2; stroke-linecap: square"/>
     <g>
      <use xlink:href="#m2454a48638" x="418.88375" y="117.39875" style="fill: #ff9896; fill-opacity: 0.8; stroke: #ff9896; stroke-opacity: 0.8"/>
     </g>
    </g>
    <g id="text_25">
     <!-- Bead 20 -->
     <g transform="translate(433.28375 120.19875) scale(0.08 -0.08)">
      <use xlink:href="#DejaVuSans-42"/>
      <use xlink:href="#DejaVuSans-65" transform="translate(68.603516 0)"/>
      <use xlink:href="#DejaVuSans-61" transform="translate(130.126953 0)"/>
      <use xlink:href="#DejaVuSans-64" transform="translate(191.40625 0)"/>
      <use xlink:href="#DejaVuSans-20" transform="translate(254.882812 0)"/>
      <use xlink:href="#DejaVuSans-32" transform="translate(286.669922 0)"/>
      <use xlink:href="#DejaVuSans-30" transform="translate(350.292969 0)"/>
     </g>
    </g>
    <g id="line2d_47">
     <path d="M 410.88375 129.14125 
L 418.88375 129.14125 
L 426.88375 129.14125 
" style="fill: none; stroke: #9467bd; stroke-opacity: 0.8; stroke-width: 1.2; stroke-linecap: square"/>
     <g>
      <use xlink:href="#ma02f515fe5" x="418.88375" y="129.14125" style="fill: #9467bd; fill-opacity: 0.8; stroke: #9467bd; stroke-opacity: 0.8"/>
     </g>
    </g>
    <g id="text_26">
     <!-- Bead 22 -->
     <g transform="translate(433.28375 131.94125) scale(0.08 -0.08)">
      <use xlink:href="#DejaVuSans-42"/>
      <use xlink:href="#DejaVuSans-65" transform="translate(68.603516 0)"/>
      <use xlink:href="#DejaVuSans-61" transform="translate(130.126953 0)"/>
      <use xlink:href="#DejaVuSans-64" transform="translate(191.40625 0)"/>
      <use xlink:href="#DejaVuSans-20" transform="translate(254.882812 0)"/>
      <use xlink:href="#DejaVuSans-32" transform="translate(286.669922 0)"/>
      <use xlink:href="#DejaVuSans-32" transform="translate(350.292969 0)"/>
     </g>
    </g>
    <g id="line2d_48">
     <path d="M 410.88375 140.88375 
L 418.88375 140.88375 
L 426.88375 140.88375 
" style="fill: none; stroke: #c5b0d5; stroke-opacity: 0.8; stroke-width: 1.2; stroke-linecap: square"/>
     <g>
      <use xlink:href="#ma8ce32a9ae" x="418.88375" y="140.88375" style="fill: #c5b0d5; fill-opacity: 0.8; stroke: #c5b0d5; stroke-opacity: 0.8"/>
     </g>
    </g>
    <g id="text_27">
     <!-- Bead 25 -->
     <g transform="translate(433.28375 143.68375) scale(0.08 -0.08)">
      <use xlink:href="#DejaVuSans-42"/>
      <use xlink:href="#DejaVuSans-65" transform="translate(68.603516 0)"/>
      <use xlink:href="#DejaVuSans-61" transform="translate(130.126953 0)"/>
      <use xlink:href="#DejaVuSans-64" transform="translate(191.40625 0)"/>
      <use xlink:href="#DejaVuSans-20" transform="translate(254.882812 0)"/>
      <use xlink:href="#DejaVuSans-32" transform="translate(286.669922 0)"/>
      <use xlink:href="#DejaVuSans-35" transform="translate(350.292969 0)"/>
     </g>
    </g>
    <g id="line2d_49">
     <path d="M 410.88375 152.62625 
L 418.88375 152.62625 
L 426.88375 152.62625 
" style="fill: none; stroke: #8c564b; stroke-opacity: 0.8; stroke-width: 1.2; stroke-linecap: square"/>
     <g>
      <use xlink:href="#m79ea6359fa" x="418.88375" y="152.62625" style="fill: #8c564b; fill-opacity: 0.8; stroke: #8c564b; stroke-opacity: 0.8"/>
     </g>
    </g>
    <g id="text_28">
     <!-- Bead 26 -->
     <g transform="translate(433.28375 155.42625) scale(0.08 -0.08)">
      <use xlink:href="#DejaVuSans-42"/>
      <use xlink:href="#DejaVuSans-65" transform="translate(68.603516 0)"/>
      <use xlink:href="#DejaVuSans-61" transform="translate(130.126953 0)"/>
      <use xlink:href="#DejaVuSans-64" transform="translate(191.40625 0)"/>
      <use xlink:href="#DejaVuSans-20" transform="translate(254.882812 0)"/>
      <use xlink:href="#DejaVuSans-32" transform="translate(286.669922 0)"/>
      <use xlink:href="#DejaVuSans-36" transform="translate(350.292969 0)"/>
     </g>
    </g>
    <g id="line2d_50">
     <path d="M 410.88375 164.36875 
L 418.88375 164.36875 
L 426.88375 164.36875 
" style="fill: none; stroke: #c49c94; stroke-opacity: 0.8; stroke-width: 1.2; stroke-linecap: square"/>
     <g>
      <use xlink:href="#m6c3bd29dd3" x="418.88375" y="164.36875" style="fill: #c49c94; fill-opacity: 0.8; stroke: #c49c94; stroke-opacity: 0.8"/>
     </g>
    </g>
    <g id="text_29">
     <!-- Bead 27 -->
     <g transform="translate(433.28375 167.16875) scale(0.08 -0.08)">
      <use xlink:href="#DejaVuSans-42"/>
      <use xlink:href="#DejaVuSans-65" transform="translate(68.603516 0)"/>
      <use xlink:href="#DejaVuSans-61" transform="translate(130.126953 0)"/>
      <use xlink:href="#DejaVuSans-64" transform="translate(191.40625 0)"/>
      <use xlink:href="#DejaVuSans-20" transform="translate(254.882812 0)"/>
      <use xlink:href="#DejaVuSans-32" transform="translate(286.669922 0)"/>
      <use xlink:href="#DejaVuSans-37" transform="translate(350.292969 0)"/>
     </g>
    </g>
    <g id="line2d_51">
     <path d="M 410.88375 176.11125 
L 418.88375 176.11125 
L 426.88375 176.11125 
" style="fill: none; stroke: #e377c2; stroke-opacity: 0.8; stroke-width: 1.2; stroke-linecap: square"/>
     <g>
      <use xlink:href="#ma7c1c878cd" x="418.88375" y="176.11125" style="fill: #e377c2; fill-opacity: 0.8; stroke: #e377c2; stroke-opacity: 0.8"/>
     </g>
    </g>
    <g id="text_30">
     <!-- Bead 32 -->
     <g transform="translate(433.28375 178.91125) scale(0.08 -0.08)">
      <use xlink:href="#DejaVuSans-42"/>
      <use xlink:href="#DejaVuSans-65" transform="translate(68.603516 0)"/>
      <use xlink:href="#DejaVuSans-61" transform="translate(130.126953 0)"/>
      <use xlink:href="#DejaVuSans-64" transform="translate(191.40625 0)"/>
      <use xlink:href="#DejaVuSans-20" transform="translate(254.882812 0)"/>
      <use xlink:href="#DejaVuSans-33" transform="translate(286.669922 0)"/>
      <use xlink:href="#DejaVuSans-32" transform="translate(350.292969 0)"/>
     </g>
    </g>
    <g id="line2d_52">
     <path d="M 410.88375 187.85375 
L 418.88375 187.85375 
L 426.88375 187.85375 
" style="fill: none; stroke: #f7b6d2; stroke-opacity: 0.8; stroke-width: 1.2; stroke-linecap: square"/>
     <g>
      <use xlink:href="#m0db3b5a108" x="418.88375" y="187.85375" style="fill: #f7b6d2; fill-opacity: 0.8; stroke: #f7b6d2; stroke-opacity: 0.8"/>
     </g>
    </g>
    <g id="text_31">
     <!-- Bead 33 -->
     <g transform="translate(433.28375 190.65375) scale(0.08 -0.08)">
      <use xlink:href="#DejaVuSans-42"/>
      <use xlink:href="#DejaVuSans-65" transform="translate(68.603516 0)"/>
      <use xlink:href="#DejaVuSans-61" transform="translate(130.126953 0)"/>
      <use xlink:href="#DejaVuSans-64" transform="translate(191.40625 0)"/>
      <use xlink:href="#DejaVuSans-20" transform="translate(254.882812 0)"/>
      <use xlink:href="#DejaVuSans-33" transform="translate(286.669922 0)"/>
      <use xlink:href="#DejaVuSans-33" transform="translate(350.292969 0)"/>
     </g>
    </g>
    <g id="line2d_53">
     <path d="M 410.88375 199.59625 
L 418.88375 199.59625 
L 426.88375 199.59625 
" style="fill: none; stroke: #7f7f7f; stroke-opacity: 0.8; stroke-width: 1.2; stroke-linecap: square"/>
     <g>
      <use xlink:href="#md91bc77ee8" x="418.88375" y="199.59625" style="fill: #7f7f7f; fill-opacity: 0.8; stroke: #7f7f7f; stroke-opacity: 0.8"/>
     </g>
    </g>
    <g id="text_32">
     <!-- Bead 34 -->
     <g transform="translate(433.28375 202.39625) scale(0.08 -0.08)">
      <use xlink:href="#DejaVuSans-42"/>
      <use xlink:href="#DejaVuSans-65" transform="translate(68.603516 0)"/>
      <use xlink:href="#DejaVuSans-61" transform="translate(130.126953 0)"/>
      <use xlink:href="#DejaVuSans-64" transform="translate(191.40625 0)"/>
      <use xlink:href="#DejaVuSans-20" transform="translate(254.882812 0)"/>
      <use xlink:href="#DejaVuSans-33" transform="translate(286.669922 0)"/>
      <use xlink:href="#DejaVuSans-34" transform="translate(350.292969 0)"/>
     </g>
    </g>
    <g id="line2d_54">
     <path d="M 410.88375 211.33875 
L 418.88375 211.33875 
L 426.88375 211.33875 
" style="fill: none; stroke: #c7c7c7; stroke-opacity: 0.8; stroke-width: 1.2; stroke-linecap: square"/>
     <g>
      <use xlink:href="#m19b5193658" x="418.88375" y="211.33875" style="fill: #c7c7c7; fill-opacity: 0.8; stroke: #c7c7c7; stroke-opacity: 0.8"/>
     </g>
    </g>
    <g id="text_33">
     <!-- Bead 35 -->
     <g transform="translate(433.28375 214.13875) scale(0.08 -0.08)">
      <use xlink:href="#DejaVuSans-42"/>
      <use xlink:href="#DejaVuSans-65" transform="translate(68.603516 0)"/>
      <use xlink:href="#DejaVuSans-61" transform="translate(130.126953 0)"/>
      <use xlink:href="#DejaVuSans-64" transform="translate(191.40625 0)"/>
      <use xlink:href="#DejaVuSans-20" transform="translate(254.882812 0)"/>
      <use xlink:href="#DejaVuSans-33" transform="translate(286.669922 0)"/>
      <use xlink:href="#DejaVuSans-35" transform="translate(350.292969 0)"/>
     </g>
    </g>
    <g id="line2d_55">
     <path d="M 410.88375 223.08125 
L 418.88375 223.08125 
L 426.88375 223.08125 
" style="fill: none; stroke: #bcbd22; stroke-opacity: 0.8; stroke-width: 1.2; stroke-linecap: square"/>
     <g>
      <use xlink:href="#m4f6804cedf" x="418.88375" y="223.08125" style="fill: #bcbd22; fill-opacity: 0.8; stroke: #bcbd22; stroke-opacity: 0.8"/>
     </g>
    </g>
    <g id="text_34">
     <!-- Bead 36 -->
     <g transform="translate(433.28375 225.88125) scale(0.08 -0.08)">
      <use xlink:href="#DejaVuSans-42"/>
      <use xlink:href="#DejaVuSans-65" transform="translate(68.603516 0)"/>
      <use xlink:href="#DejaVuSans-61" transform="translate(130.126953 0)"/>
      <use xlink:href="#DejaVuSans-64" transform="translate(191.40625 0)"/>
      <use xlink:href="#DejaVuSans-20" transform="translate(254.882812 0)"/>
      <use xlink:href="#DejaVuSans-33" transform="translate(286.669922 0)"/>
      <use xlink:href="#DejaVuSans-36" transform="translate(350.292969 0)"/>
     </g>
    </g>
    <g id="line2d_56">
     <path d="M 410.88375 234.82375 
L 418.88375 234.82375 
L 426.88375 234.82375 
" style="fill: none; stroke: #dbdb8d; stroke-opacity: 0.8; stroke-width: 1.2; stroke-linecap: square"/>
     <g>
      <use xlink:href="#m35eea18b40" x="418.88375" y="234.82375" style="fill: #dbdb8d; fill-opacity: 0.8; stroke: #dbdb8d; stroke-opacity: 0.8"/>
     </g>
    </g>
    <g id="text_35">
     <!-- Bead 37 -->
     <g transform="translate(433.28375 237.62375) scale(0.08 -0.08)">
      <use xlink:href="#DejaVuSans-42"/>
      <use xlink:href="#DejaVuSans-65" transform="translate(68.603516 0)"/>
      <use xlink:href="#DejaVuSans-61" transform="translate(130.126953 0)"/>
      <use xlink:href="#DejaVuSans-64" transform="translate(191.40625 0)"/>
      <use xlink:href="#DejaVuSans-20" transform="translate(254.882812 0)"/>
      <use xlink:href="#DejaVuSans-33" transform="translate(286.669922 0)"/>
      <use xlink:href="#DejaVuSans-37" transform="translate(350.292969 0)"/>
     </g>
    </g>
    <g id="line2d_57">
     <path d="M 410.88375 246.56625 
L 418.88375 246.56625 
L 426.88375 246.56625 
" style="fill: none; stroke: #17becf; stroke-opacity: 0.8; stroke-width: 1.2; stroke-linecap: square"/>
     <g>
      <use xlink:href="#m53a4481290" x="418.88375" y="246.56625" style="fill: #17becf; fill-opacity: 0.8; stroke: #17becf; stroke-opacity: 0.8"/>
     </g>
    </g>
    <g id="text_36">
     <!-- Bead 41 -->
     <g transform="translate(433.28375 249.36625) scale(0.08 -0.08)">
      <use xlink:href="#DejaVuSans-42"/>
      <use xlink:href="#DejaVuSans-65" transform="translate(68.603516 0)"/>
      <use xlink:href="#DejaVuSans-61" transform="translate(130.126953 0)"/>
      <use xlink:href="#DejaVuSans-64" transform="translate(191.40625 0)"/>
      <use xlink:href="#DejaVuSans-20" transform="translate(254.882812 0)"/>
      <use xlink:href="#DejaVuSans-34" transform="translate(286.669922 0)"/>
      <use xlink:href="#DejaVuSans-31" transform="translate(350.292969 0)"/>
     </g>
    </g>
    <g id="line2d_58">
     <path d="M 410.88375 258.30875 
L 418.88375 258.30875 
L 426.88375 258.30875 
" style="fill: none; stroke: #9edae5; stroke-opacity: 0.8; stroke-width: 1.2; stroke-linecap: square"/>
     <g>
      <use xlink:href="#ma36108d5ee" x="418.88375" y="258.30875" style="fill: #9edae5; fill-opacity: 0.8; stroke: #9edae5; stroke-opacity: 0.8"/>
     </g>
    </g>
    <g id="text_37">
     <!-- Bead 43 -->
     <g transform="translate(433.28375 261.10875) scale(0.08 -0.08)">
      <use xlink:href="#DejaVuSans-42"/>
      <use xlink:href="#DejaVuSans-65" transform="translate(68.603516 0)"/>
      <use xlink:href="#DejaVuSans-61" transform="translate(130.126953 0)"/>
      <use xlink:href="#DejaVuSans-64" transform="translate(191.40625 0)"/>
      <use xlink:href="#DejaVuSans-20" transform="translate(254.882812 0)"/>
      <use xlink:href="#DejaVuSans-34" transform="translate(286.669922 0)"/>
      <use xlink:href="#DejaVuSans-33" transform="translate(350.292969 0)"/>
     </g>
    </g>
    <g id="line2d_59">
     <path d="M 410.88375 270.05125 
L 418.88375 270.05125 
L 426.88375 270.05125 
" style="fill: none; stroke: #9edae5; stroke-opacity: 0.8; stroke-width: 1.2; stroke-linecap: square"/>
     <g>
      <use xlink:href="#ma36108d5ee" x="418.88375" y="270.05125" style="fill: #9edae5; fill-opacity: 0.8; stroke: #9edae5; stroke-opacity: 0.8"/>
     </g>
    </g>
    <g id="text_38">
     <!-- Bead 48 -->
     <g transform="translate(433.28375 272.85125) scale(0.08 -0.08)">
      <use xlink:href="#DejaVuSans-42"/>
      <use xlink:href="#DejaVuSans-65" transform="translate(68.603516 0)"/>
      <use xlink:href="#DejaVuSans-61" transform="translate(130.126953 0)"/>
      <use xlink:href="#DejaVuSans-64" transform="translate(191.40625 0)"/>
      <use xlink:href="#DejaVuSans-20" transform="translate(254.882812 0)"/>
      <use xlink:href="#DejaVuSans-34" transform="translate(286.669922 0)"/>
      <use xlink:href="#DejaVuSans-38" transform="translate(350.292969 0)"/>
     </g>
    </g>
    <g id="line2d_60">
     <path d="M 410.88375 281.79375 
L 418.88375 281.79375 
L 426.88375 281.79375 
" style="fill: none; stroke: #9edae5; stroke-opacity: 0.8; stroke-width: 1.2; stroke-linecap: square"/>
     <g>
      <use xlink:href="#ma36108d5ee" x="418.88375" y="281.79375" style="fill: #9edae5; fill-opacity: 0.8; stroke: #9edae5; stroke-opacity: 0.8"/>
     </g>
    </g>
    <g id="text_39">
     <!-- Bead 50 -->
     <g transform="translate(433.28375 284.59375) scale(0.08 -0.08)">
      <use xlink:href="#DejaVuSans-42"/>
      <use xlink:href="#DejaVuSans-65" transform="translate(68.603516 0)"/>
      <use xlink:href="#DejaVuSans-61" transform="translate(130.126953 0)"/>
      <use xlink:href="#DejaVuSans-64" transform="translate(191.40625 0)"/>
      <use xlink:href="#DejaVuSans-20" transform="translate(254.882812 0)"/>
      <use xlink:href="#DejaVuSans-35" transform="translate(286.669922 0)"/>
      <use xlink:href="#DejaVuSans-30" transform="translate(350.292969 0)"/>
     </g>
    </g>
    <g id="line2d_61">
     <path d="M 410.88375 293.53625 
L 418.88375 293.53625 
L 426.88375 293.53625 
" style="fill: none; stroke-dasharray: 6.66,2.88; stroke-dashoffset: 0; stroke: #000000; stroke-width: 1.8"/>
    </g>
    <g id="text_40">
     <!-- WLC theory -->
     <g transform="translate(433.28375 296.33625) scale(0.08 -0.08)">
      <defs>
       <path id="DejaVuSans-57" d="M 213 4666 
L 850 4666 
L 1831 722 
L 2809 4666 
L 3519 4666 
L 4500 722 
L 5478 4666 
L 6119 4666 
L 4947 0 
L 4153 0 
L 3169 4050 
L 2175 0 
L 1381 0 
L 213 4666 
z
" transform="scale(0.015625)"/>
       <path id="DejaVuSans-4c" d="M 628 4666 
L 1259 4666 
L 1259 531 
L 3531 531 
L 3531 0 
L 628 0 
L 628 4666 
z
" transform="scale(0.015625)"/>
       <path id="DejaVuSans-43" d="M 4122 4306 
L 4122 3641 
Q 3803 3938 3442 4084 
Q 3081 4231 2675 4231 
Q 1875 4231 1450 3742 
Q 1025 3253 1025 2328 
Q 1025 1406 1450 917 
Q 1875 428 2675 428 
Q 3081 428 3442 575 
Q 3803 722 4122 1019 
L 4122 359 
Q 3791 134 3420 21 
Q 3050 -91 2638 -91 
Q 1578 -91 968 557 
Q 359 1206 359 2328 
Q 359 3453 968 4101 
Q 1578 4750 2638 4750 
Q 3056 4750 3426 4639 
Q 3797 4528 4122 4306 
z
" transform="scale(0.015625)"/>
       <path id="DejaVuSans-68" d="M 3513 2113 
L 3513 0 
L 2938 0 
L 2938 2094 
Q 2938 2591 2744 2837 
Q 2550 3084 2163 3084 
Q 1697 3084 1428 2787 
Q 1159 2491 1159 1978 
L 1159 0 
L 581 0 
L 581 4863 
L 1159 4863 
L 1159 2956 
Q 1366 3272 1645 3428 
Q 1925 3584 2291 3584 
Q 2894 3584 3203 3211 
Q 3513 2838 3513 2113 
z
" transform="scale(0.015625)"/>
       <path id="DejaVuSans-6f" d="M 1959 3097 
Q 1497 3097 1228 2736 
Q 959 2375 959 1747 
Q 959 1119 1226 758 
Q 1494 397 1959 397 
Q 2419 397 2687 759 
Q 2956 1122 2956 1747 
Q 2956 2369 2687 2733 
Q 2419 3097 1959 3097 
z
M 1959 3584 
Q 2709 3584 3137 3096 
Q 3566 2609 3566 1747 
Q 3566 888 3137 398 
Q 2709 -91 1959 -91 
Q 1206 -91 779 398 
Q 353 888 353 1747 
Q 353 2609 779 3096 
Q 1206 3584 1959 3584 
z
" transform="scale(0.015625)"/>
       <path id="DejaVuSans-72" d="M 2631 2963 
Q 2534 3019 2420 3045 
Q 2306 3072 2169 3072 
Q 1681 3072 1420 2755 
Q 1159 2438 1159 1844 
L 1159 0 
L 581 0 
L 581 3500 
L 1159 3500 
L 1159 2956 
Q 1341 3275 1631 3429 
Q 1922 3584 2338 3584 
Q 2397 3584 2469 3576 
Q 2541 3569 2628 3553 
L 2631 2963 
z
" transform="scale(0.015625)"/>
       <path id="DejaVuSans-79" d="M 2059 -325 
Q 1816 -950 1584 -1140 
Q 1353 -1331 966 -1331 
L 506 -1331 
L 506 -850 
L 844 -850 
Q 1081 -850 1212 -737 
Q 1344 -625 1503 -206 
L 1606 56 
L 191 3500 
L 800 3500 
L 1894 763 
L 2988 3500 
L 3597 3500 
L 2059 -325 
z
" transform="scale(0.015625)"/>
      </defs>
      <use xlink:href="#DejaVuSans-57"/>
      <use xlink:href="#DejaVuSans-4c" transform="translate(98.876953 0)"/>
      <use xlink:href="#DejaVuSans-43" transform="translate(154.589844 0)"/>
      <use xlink:href="#DejaVuSans-20" transform="translate(224.414062 0)"/>
      <use xlink:href="#DejaVuSans-74" transform="translate(256.201172 0)"/>
      <use xlink:href="#DejaVuSans-68" transform="translate(295.410156 0)"/>
      <use xlink:href="#DejaVuSans-65" transform="translate(358.789062 0)"/>
      <use xlink:href="#DejaVuSans-6f" transform="translate(420.3125 0)"/>
      <use xlink:href="#DejaVuSans-72" transform="translate(481.494141 0)"/>
      <use xlink:href="#DejaVuSans-79" transform="translate(522.607422 0)"/>
     </g>
    </g>
   </g>
  </g>
 </g>
 <defs>
  <clipPath id="p64c758a8c2">
   <rect x="42.6275" y="7.2" width="444.4" height="298"/>
  </clipPath>
 </defs>
</svg>
